<svg width="272" height="128" viewBox="0 0 272 128" fill="none" xmlns="http://www.w3.org/2000/svg">
<g clip-path="url(#clip0_107_87)">
<path d="M113.777 97.9284C113.561 98.0004 113.417 98.0723 113.273 98.1442C113.129 98.2161 112.914 98.288 112.626 98.3599C112.41 98.4319 112.195 98.5038 111.907 98.5038C111.619 98.5757 111.332 98.5757 111.044 98.5757C110.469 98.5757 109.893 98.5038 109.462 98.3599C108.958 98.2161 108.599 97.9284 108.239 97.5689C107.88 97.2093 107.592 96.7778 107.448 96.2744C107.232 95.771 107.16 95.1238 107.16 94.4046C107.16 93.7574 107.232 93.182 107.448 92.6067C107.664 92.1033 107.88 91.6718 108.239 91.3122C108.599 90.9527 108.958 90.665 109.462 90.5212C109.965 90.3054 110.469 90.2335 111.044 90.2335C111.475 90.2335 111.907 90.3054 112.338 90.3774C112.77 90.4493 113.273 90.665 113.777 90.9527V92.2471H113.705C113.273 91.8876 112.842 91.5999 112.41 91.4561C111.979 91.3122 111.475 91.1684 111.044 91.1684C110.612 91.1684 110.253 91.2403 109.965 91.3842C109.606 91.528 109.318 91.7437 109.102 91.9595C108.886 92.2471 108.671 92.5348 108.527 92.9663C108.383 93.3978 108.311 93.8293 108.311 94.4046C108.311 94.9799 108.383 95.4833 108.527 95.8429C108.671 96.2744 108.886 96.5621 109.102 96.8497C109.39 97.1374 109.677 97.2812 109.965 97.425C110.325 97.5689 110.684 97.6408 111.044 97.6408C111.547 97.6408 112.051 97.5689 112.482 97.3531C112.914 97.2093 113.345 96.9216 113.777 96.5621H113.849V97.7846L113.777 97.9284Z" fill="#000000"/>
<path d="M132.115 98.6475H130.964L130.173 96.4182H126.721L125.93 98.6475H124.852L127.8 90.593H129.238L132.187 98.6475H132.115ZM129.886 95.4833L128.447 91.5279L127.009 95.4833H129.814H129.886Z" fill="#000000"/>
<path d="M147.361 92.6067C147.361 92.9663 147.289 93.3259 147.145 93.6135C147.002 93.9012 146.858 94.1889 146.642 94.4046C146.354 94.6923 146.067 94.908 145.635 95.0518C145.276 95.1957 144.772 95.2676 144.197 95.2676H143.118V98.288H142.039V90.2335H144.197C144.7 90.2335 145.06 90.3054 145.419 90.3774C145.779 90.4493 146.067 90.5931 146.282 90.7369C146.57 90.9527 146.858 91.1684 147.002 91.528C147.145 91.8157 147.217 92.2471 147.217 92.6786L147.361 92.6067ZM146.282 92.6067C146.282 92.3191 146.21 92.1033 146.139 91.8876C146.067 91.6718 145.923 91.528 145.707 91.3842C145.563 91.2403 145.347 91.1684 145.132 91.1684C144.916 91.0965 144.628 91.0965 144.269 91.0965H143.19V94.3327H144.125C144.556 94.3327 144.916 94.2608 145.204 94.1889C145.491 94.1169 145.707 93.9731 145.851 93.8293C145.995 93.6855 146.139 93.4697 146.21 93.254C146.282 93.0382 146.282 92.8225 146.282 92.6067Z" fill="#000000"/>
<path d="M162.319 98.288H157.07V90.3054H162.319V91.2403H158.076V93.4697H162.319V94.4046H158.076V97.3531H162.319V98.288Z" fill="#000000"/>
<path d="M177.35 95.699C177.35 95.9867 177.278 96.3463 177.134 96.6339C176.99 96.9216 176.774 97.2093 176.487 97.425C176.199 97.6407 175.84 97.8565 175.48 97.9284C175.12 98.0722 174.617 98.1442 174.114 98.1442C173.538 98.1442 173.035 98.0722 172.531 98.0003C172.1 97.9284 171.597 97.7127 171.093 97.4969V96.1305H171.165C171.597 96.4901 172.028 96.7058 172.603 96.9216C173.107 97.1373 173.61 97.2093 174.114 97.2093C174.761 97.2093 175.264 97.0654 175.696 96.8497C176.055 96.6339 176.271 96.2744 176.271 95.8429C176.271 95.4833 176.199 95.1956 175.983 95.0518C175.84 94.908 175.552 94.7641 175.192 94.6922C174.905 94.6203 174.617 94.5484 174.329 94.5484C174.042 94.4765 173.682 94.4765 173.323 94.4046C172.603 94.2607 172.1 93.9731 171.74 93.6135C171.381 93.2539 171.237 92.7505 171.237 92.1752C171.237 91.528 171.525 90.9526 172.1 90.5211C172.675 90.0896 173.394 89.8739 174.257 89.8739C174.833 89.8739 175.336 89.9458 175.84 90.0177C176.343 90.0896 176.703 90.2335 177.062 90.4492V91.7437H176.99C176.703 91.456 176.271 91.2403 175.768 91.0965C175.264 90.9526 174.761 90.8088 174.257 90.8088C173.682 90.8088 173.251 90.9526 172.891 91.1684C172.531 91.3841 172.388 91.7437 172.388 92.1033C172.388 92.4628 172.46 92.6786 172.675 92.8943C172.819 93.1101 173.179 93.2539 173.61 93.3258C173.826 93.3977 174.185 93.4697 174.617 93.5416C175.048 93.6135 175.408 93.6854 175.696 93.7573C176.271 93.9012 176.774 94.1888 177.062 94.4765C177.35 94.7641 177.494 95.2675 177.494 95.8429L177.35 95.699Z" fill="#000000"/>
<path fill-rule="evenodd" clip-rule="evenodd" d="M140.385 55.9299C144.197 55.9299 147.289 59.0223 147.289 62.8338C147.289 66.6453 144.197 69.7377 140.385 69.7377C136.574 69.7377 133.481 66.6453 133.481 62.8338C133.481 59.0223 136.574 55.9299 140.385 55.9299Z" fill="url(#paint0_radial_107_87)"/>
<path fill-rule="evenodd" clip-rule="evenodd" d="M170.014 27.1638C170.734 27.1638 171.309 27.7391 171.309 28.3864C171.309 29.1055 170.734 29.6089 170.014 29.6089C169.295 29.6089 168.72 29.0336 168.72 28.3864C168.72 27.6672 169.295 27.1638 170.014 27.1638Z" fill="#000000"/>
<path d="M170.014 27.1638C170.734 27.1638 171.309 27.7391 171.309 28.3864C171.309 29.1055 170.734 29.6089 170.014 29.6089C169.295 29.6089 168.72 29.0336 168.72 28.3864C168.72 27.6672 169.295 27.1638 170.014 27.1638Z" stroke="#000000" stroke-width="0.287955"/>
<path d="M107.736 72.3265L106.657 72.5423L106.441 70.6725L106.513 68.8027L106.801 66.9329L107.304 65.0631L108.023 63.1933L108.958 61.3235L110.037 59.4537L111.332 57.6558L112.77 55.858L114.352 54.0601L116.078 52.3341L117.948 50.6081L119.961 48.9541L122.119 47.3L124.348 45.7179L126.721 44.1358L129.167 42.6256L131.684 41.1872L134.273 39.7489L136.933 38.3826L139.666 37.0881L142.399 35.8655L145.204 34.7149L148.008 33.6362L150.813 32.6293L153.618 31.6944L156.422 30.8315L159.227 30.0404L161.96 29.3932L164.693 28.8178L167.354 28.3144L170.014 27.8829L170.158 28.9617L167.569 29.3212L164.908 29.8246L162.248 30.4L159.515 31.0472L156.782 31.8383L153.977 32.7013L151.173 33.6362L148.368 34.643L145.563 35.7217L142.83 36.8723L140.098 38.0949L137.437 39.3894L134.848 40.7558L132.259 42.1221L129.742 43.5605L127.297 45.0707L124.995 46.5809L122.766 48.163L120.681 49.7452L118.667 51.3992L116.797 53.0533L115.071 54.7792L113.489 56.5052L112.051 58.2312L110.828 59.9571L109.749 61.755L108.886 63.5529L108.239 65.3508L107.736 67.1486L107.448 68.8746L107.376 70.6006L107.592 72.3265H107.736ZM174.617 76.5695L175.12 77.5044H175.048L171.597 78.7989L168.217 80.0215L164.908 81.1002L161.672 82.107L158.508 83.0419L155.416 83.9049L152.395 84.696L149.447 85.4151L146.57 85.9904L143.765 86.4938L141.033 86.9253L138.372 87.2849L135.783 87.5006L133.266 87.6445L130.893 87.7164L128.591 87.6445L126.362 87.5006L124.276 87.2849L122.263 86.9253L120.393 86.4938L118.595 85.9185L116.941 85.2713L115.359 84.4802L113.921 83.6172L112.554 82.6104L111.332 81.5317L110.253 80.3091L109.318 78.9427L108.527 77.5044L107.88 75.9223L107.376 74.2682L106.945 72.4704L108.023 72.2546L108.383 73.9806L108.886 75.5627L109.534 77.001L110.325 78.3674L111.188 79.59L112.195 80.7406L113.345 81.7474L114.568 82.6823L115.934 83.5453L117.444 84.2645L119.026 84.9117L120.752 85.4151L122.55 85.8466L124.492 86.2062L126.506 86.4219L128.663 86.5658L130.893 86.6377L133.266 86.5658L135.711 86.4219L138.228 86.2062L140.817 85.8466L143.55 85.4151L146.354 84.9117L149.231 84.3364L152.179 83.6172L155.2 82.8262L158.292 81.9632L161.456 81.0283L164.693 80.0215L168.001 78.9427L171.381 77.7921L174.833 76.4976H174.761L174.617 76.5695ZM140.529 43.7043L140.385 44.783L140.313 43.7762L143.981 42.6975L147.577 41.9064L151.101 41.3311L154.481 40.9715L157.789 40.8277L160.953 40.8996L163.974 41.1153L166.922 41.5468L169.727 42.1221L172.316 42.8413L174.761 43.7043L177.062 44.7111L179.148 45.8617L181.089 47.1562L182.815 48.5226L184.326 49.9609L185.692 51.543L186.843 53.1971L187.706 54.9231L188.353 56.649L188.784 58.4469L188.928 60.3167L188.856 62.1865L188.497 64.0563L187.849 65.9261L186.914 67.724L185.692 69.5218L184.182 71.2478L182.384 72.9738L180.226 74.6278L177.781 76.21L175.048 77.7202L174.545 76.7853L177.206 75.347L179.579 73.8368L181.593 72.2546L183.319 70.6006L184.757 68.9465L185.908 67.2206L186.771 65.4946L187.346 63.7686L187.706 62.0427L187.777 60.3167L187.634 58.6626L187.274 57.0086L186.699 55.3545L185.836 53.7724L184.757 52.2622L183.463 50.8239L182.024 49.4575L180.37 48.163L178.5 46.9405L176.487 45.8617L174.257 44.8549L171.884 43.9919L169.367 43.2728L166.634 42.6975L163.758 42.266L160.809 42.0502L157.717 41.9783L154.481 42.1221L151.101 42.4817L147.649 43.057L144.125 43.8481L140.457 44.8549L140.385 43.8481L140.529 43.7043ZM140.385 44.783L138.012 44.4953L140.313 43.7762L140.385 44.783ZM169.151 79.7338L168.936 78.6551L171.093 78.2955L173.035 77.7921L174.761 77.2168L176.271 76.4976L177.565 75.7066L178.716 74.8436L179.651 73.9087L180.37 72.9019L180.945 71.8231L181.305 70.6725L181.521 69.5218V68.2993L181.305 67.0048L180.945 65.7103L180.37 64.3439L179.579 62.9776L178.644 61.6112L177.494 60.1729L176.127 58.8065L174.545 57.4401L172.819 56.0737L170.877 54.7073L168.72 53.4128L166.347 52.1903L163.83 50.9677L161.097 49.8171L158.148 48.7383L154.984 47.7315L151.604 46.8686L148.08 46.0775L144.341 45.3583L140.385 44.783L140.529 43.7043L144.484 44.2796L148.296 44.9988L151.892 45.7898L155.272 46.7247L158.436 47.7315L161.456 48.8103L164.261 49.9609L166.85 51.1835L169.223 52.4779L171.453 53.7724L173.466 55.1388L175.264 56.5771L176.846 58.0154L178.285 59.4537L179.507 60.892L180.514 62.4022L181.305 63.9125L181.952 65.3508L182.384 66.7891L182.6 68.2274V69.5938L182.384 70.9601L181.952 72.2546L181.305 73.4772L180.442 74.6278L179.435 75.7066L178.213 76.6415L176.774 77.5044L175.12 78.2236L173.322 78.8708L171.309 79.3742L169.079 79.7338H169.151ZM109.246 73.4053L109.462 72.3985H109.534L111.475 73.0457L113.417 73.621L115.359 74.1963L117.301 74.7717L119.242 75.2751L121.184 75.7785L123.126 76.2819L125.067 76.7134L127.009 77.1449L128.951 77.5044L130.893 77.864L132.834 78.2236L134.776 78.5112L136.646 78.7989L138.516 79.0866L140.385 79.3023L142.255 79.5181L144.125 79.6619L145.995 79.8057L147.864 79.8776L149.734 79.9496L151.604 80.0215H153.402H155.2L156.998 79.9496L158.796 79.8776L160.593 79.7338L162.319 79.59L164.045 79.3742L165.771 79.1585L167.497 78.8708L169.151 78.5832L169.367 79.6619L167.641 79.9496L165.915 80.2372L164.189 80.453L162.463 80.6687L160.665 80.8125L158.868 80.9564L157.07 81.0283L155.272 81.1002H153.474H151.604L149.734 81.0283L147.864 80.9564L145.995 80.8844L144.125 80.7406L142.255 80.5968L140.385 80.381L138.444 80.1653L136.502 79.8776L134.56 79.59L132.618 79.3023L130.677 78.9427L128.735 78.5832L126.793 78.1517L124.852 77.7202L122.91 77.2887L120.968 76.7853L119.026 76.2819L117.085 75.7785L115.143 75.2031L113.201 74.6278L111.26 74.0525L109.318 73.4053H109.39H109.246ZM123.773 43.2009L123.845 44.2796L120.824 44.3515L117.948 44.5673L115.287 44.9268L112.77 45.3583L110.397 45.9337L108.239 46.5809L106.226 47.3L104.356 48.0911L102.702 48.9541L101.192 49.889L99.8251 50.8958L98.6745 51.9745L97.6677 53.0533L96.8047 54.2039L96.1575 55.3545L95.654 56.5052L95.2945 57.6558L95.0787 58.8065V59.9571L95.2226 61.1078L95.5102 62.2584L95.9417 63.4091L96.517 64.4878L97.3081 65.5665L98.243 66.6452L99.3217 67.652L100.616 68.5869L102.055 69.4499L103.637 70.3129L105.435 71.0321L107.376 71.6793L109.462 72.2546L109.246 73.2614L107.089 72.6861L105.075 71.967L103.205 71.1759L101.551 70.3129L100.041 69.378L98.6745 68.3712L97.5238 67.2925L96.517 66.1418L95.654 64.9912L95.0068 63.7686L94.5034 62.4742L94.1438 61.1797L94 59.8852V58.5907L94.2157 57.2963L94.5753 56.0018L95.1506 54.7073L95.8698 53.4848L96.7328 52.2622L97.8115 51.1115L99.0341 50.0328L100.472 48.9541L102.055 47.9473L103.78 47.0124L105.722 46.1494L107.808 45.3583L110.037 44.7111L112.482 44.1358L115.071 43.7043L117.804 43.3447L120.752 43.129L123.845 42.9851L123.773 43.2009ZM140.529 43.7762L140.313 44.8549L139.954 44.783L139.594 44.7111L139.235 44.6392L138.803 44.5673L138.372 44.4953L137.94 44.4234L137.509 44.3515L137.077 44.2796L136.646 44.2077L136.214 44.1358H135.783H135.279H134.776H134.273H133.769H133.266H132.762H132.259H131.755H131.18H130.605H130.03H129.454H128.879H128.304H127.728H127.081H126.434H125.787H125.139H124.492H123.845L123.773 43.057H124.42H125.067H125.715H126.362H127.009H127.656H128.232H128.807H129.382H129.958H130.533H131.108H131.684H132.259H132.762H133.266H133.769H134.273H134.776H135.279H135.783H136.286L136.718 43.129L137.149 43.2009L137.581 43.2728L138.012 43.3447L138.444 43.4166L138.875 43.4885L139.307 43.5605L139.738 43.6324L140.098 43.7043L140.457 43.7762H140.529Z" fill="#000000"/>
</g>
<defs>
<radialGradient id="paint0_radial_107_87" cx="0" cy="0" r="1" gradientUnits="userSpaceOnUse" gradientTransform="translate(140.416 63.3749) scale(2.334)">
<stop stop-color="#000000"/>
<stop offset="0.509804" stop-color="#000000"/>
<stop offset="1" stop-color="#000000"/>
</radialGradient>
<clipPath id="clip0_107_87">
<rect width="95" height="71.7117" fill="white" transform="translate(94 26.9419)"/>
</clipPath>
</defs>
</svg>
