<?xml version="1.0" standalone="no"?>
<!DOCTYPE svg PUBLIC "-//W3C//DTD SVG 20010904//EN"
 "http://www.w3.org/TR/2001/REC-SVG-20010904/DTD/svg10.dtd">
<svg version="1.0" xmlns="http://www.w3.org/2000/svg"
 width="512.000000pt" height="512.000000pt" viewBox="0 0 512.000000 512.000000"
 preserveAspectRatio="xMidYMid meet">

<g transform="translate(0.000000,512.000000) scale(0.100000,-0.100000)"
fill="#ffffff" stroke="none">
<path d="M2430 5104 c-36 -7 -103 -32 -150 -55 l-85 -41 -981 -982 c-900 -900
-983 -985 -998 -1030 -44 -134 6 -256 129 -317 55 -27 72 -31 122 -27 32 2 76
13 98 23 28 12 329 307 990 966 523 521 962 953 978 958 18 7 36 7 55 0 15 -5
455 -437 977 -958 661 -659 962 -954 990 -966 22 -10 66 -21 98 -23 50 -4 67
0 122 27 123 61 173 184 129 317 -15 44 -66 99 -510 544 l-494 496 0 447 0
448 -24 24 c-33 32 -66 37 -254 33 -161 -3 -162 -3 -189 -31 l-28 -27 -3 -196
-3 -196 -237 234 c-222 219 -243 237 -322 277 -138 67 -270 86 -410 55z"/>
<path d="M2530 4254 c-8 -4 -355 -345 -770 -759 l-755 -753 -97 -5 c-115 -6
-183 -32 -241 -92 -60 -62 -82 -117 -82 -210 0 -70 4 -87 29 -133 28 -50 71
-96 113 -121 17 -11 17 -11 0 -22 -116 -69 -171 -212 -132 -344 13 -48 28 -70
79 -121 l63 -63 -38 -27 c-80 -55 -127 -165 -116 -270 9 -85 67 -175 144 -224
14 -9 15 -12 4 -17 -32 -13 -94 -80 -118 -127 -34 -66 -40 -146 -18 -221 14
-49 28 -70 80 -121 l63 -62 -25 -13 c-41 -22 -100 -96 -117 -146 -54 -157 24
-324 177 -382 57 -21 69 -21 637 -21 l580 0 0 676 c0 664 0 677 21 713 11 20
36 48 56 61 l37 25 456 0 456 0 37 -25 c20 -13 45 -41 56 -61 21 -36 21 -49
21 -713 l0 -677 593 3 592 3 46 23 c195 96 233 349 73 491 l-49 44 62 62 c50
50 65 72 78 120 22 75 16 155 -18 221 -24 47 -86 114 -118 127 -11 5 -10 8 4
17 77 49 135 139 144 224 11 105 -36 215 -116 270 l-38 27 63 63 c51 51 66 73
79 121 39 132 -16 275 -132 344 -17 11 -17 11 0 22 42 25 85 71 113 121 25 46
29 63 29 133 0 93 -22 148 -82 210 -58 60 -126 86 -241 92 l-97 5 -755 754
c-772 771 -779 777 -830 758z"/>
</g>
</svg>
