<svg width="272" height="128" viewBox="0 0 272 128" fill="none" xmlns="http://www.w3.org/2000/svg">
<g clip-path="url(#clip0_107_71)">
<g clip-path="url(#clip1_107_71)">
<path fill-rule="evenodd" clip-rule="evenodd" d="M26 -31.0581H246V158.942H26V-31.0581Z" fill="white"/>
<path fill-rule="evenodd" clip-rule="evenodd" d="M85.2036 44.2781C86.2239 47.7439 86.0915 49.6177 85.4341 52.4013C84.5131 55.4688 82.5397 57.798 80.6645 59.2184L87.3413 78.8733H80.7307C78.5267 71.6876 75.7978 63.7349 73.4957 56.5482C74.8448 55.9518 78.6272 54.1046 79.2184 49.7596C79.8108 45.6975 76.8832 42.5453 74.8767 41.3802C73.1339 40.4438 70.5351 39.7331 68.1006 40.1589C63.4303 40.6133 60.2402 43.738 59.5166 47.2027C59.4184 47.6857 59.4184 47.9124 59.3522 48.5659L56.9189 54.4171H58.2668V65.9212H74.1189L75.961 71.5446H51.6893V58.6507L48.3349 58.6221C49.5516 55.4974 52.6435 48.5669 52.6435 48.5669C53.0384 46.0396 53.2027 41.2678 59.1228 37.3477C61.8849 35.3595 66.1934 33.9963 70.7976 34.3088C78.4606 35.1318 83.4939 39.6473 85.2036 44.2781Z" fill="black"/>
<path fill-rule="evenodd" clip-rule="evenodd" d="M91.9454 39.1367C96.7801 48.3392 93.6563 57.0025 90.0702 61.0932L95.5623 78.7323H89.0829L82.736 59.729C86.6496 56.4909 89.116 49.8729 87.1769 44.419C85.466 38.909 80.1714 34.2505 72.6066 32.9721C64.5818 31.5527 56.952 35.1308 53.6957 40.0445C51.6242 42.7709 51.2624 45.384 50.9006 48.5659C50.9006 48.5659 46.8557 57.0025 45.4735 60.069H49.8152V73.0497H76.4552L78.2973 78.8161H43.2376V65.1543L35.7059 65.1267C35.7059 65.1267 43.8619 49.0489 43.83 48.5669C44.2899 42.9425 47.2175 35.9272 53.4663 31.7804C56.6233 29.6217 60.8668 27.5478 66.5232 27.0934C72.6739 26.5542 75.3047 27.5192 79.3827 28.7129C86.2889 31.2402 90.9262 36.978 91.9454 39.1367Z" fill="black"/>
<path fill-rule="evenodd" clip-rule="evenodd" d="M62.8071 48.7374C62.8065 47.995 62.9753 47.2598 63.304 46.5739C63.6327 45.8879 64.1147 45.2646 64.7226 44.7397C65.3304 44.2147 66.0521 43.7984 66.8463 43.5146C67.6406 43.2307 68.4919 43.0849 69.3515 43.0854C72.9365 43.0854 75.864 45.6127 75.864 48.7374C75.8647 49.4761 75.6968 50.2078 75.3698 50.8904C75.0427 51.573 74.563 52.1932 73.9581 52.7156C73.3532 53.2379 72.635 53.6521 71.8445 53.9344C71.0541 54.2167 70.2069 54.3616 69.3515 54.3608C65.7335 54.3608 62.8071 51.8621 62.8071 48.7374ZM51.6562 84.3843H50.1428C50.1428 84.3272 50.1108 84.271 50.1108 84.1852C50.1086 84.1063 50.086 84.0289 50.0446 83.9585C50.0115 83.788 49.8791 83.646 49.6828 83.5041C49.5185 83.3612 49.2228 83.306 48.7948 83.306C48.6625 83.306 48.4992 83.306 48.3349 83.3622C48.1602 83.3941 47.9934 83.4521 47.8418 83.5337C47.5451 83.6756 47.2826 83.9023 47.0189 84.1862C46.7564 84.4987 46.559 84.9531 46.4266 85.4923C46.3935 85.6352 46.3935 85.7485 46.3604 85.8895C46.3604 86.0324 46.3273 86.1458 46.3273 86.2591C46.3273 86.6564 46.4585 86.9698 46.656 87.2537C46.8534 87.509 47.2152 87.6509 47.7083 87.6509C48.1363 87.6509 48.4981 87.5376 48.8599 87.3395C49.1886 87.1403 49.4192 86.8565 49.6166 86.4573H51.13C50.846 87.1177 50.3567 87.6979 49.7159 88.1339C49.0916 88.5598 48.3018 88.7865 47.4138 88.7865C46.5921 88.7865 45.9666 88.5883 45.4735 88.1901C44.9805 87.8215 44.7499 87.2537 44.7499 86.4858C44.7499 86.3439 44.7499 86.1744 44.783 86.0038L44.8812 85.4913C45.1437 84.3843 45.671 83.5603 46.4597 82.9925C47.2483 82.4238 48.1043 82.1685 49.0574 82.1685C49.9122 82.1685 50.5377 82.3114 50.9326 82.6515C51.2944 82.9629 51.5569 83.3326 51.6231 83.7012C51.6562 83.787 51.6562 83.8442 51.6562 83.9003C51.6893 83.9861 51.6893 84.0433 51.6893 84.0995V84.2414C51.6562 84.2986 51.6562 84.3281 51.6562 84.3843ZM57.4451 86.2877C57.2476 87.0832 56.8527 87.7071 56.2284 88.0768C55.636 88.474 54.9786 88.7017 54.255 88.7293H54.1557H54.0895C53.4652 88.7293 52.9059 88.5874 52.4779 88.3035C52.0499 88.0196 51.8194 87.5652 51.8194 86.9393C51.8194 86.8545 51.8525 86.7411 51.8525 86.6278C51.8856 86.5144 51.8856 86.4011 51.9187 86.2867C52.1161 85.4903 52.511 84.8663 53.1354 84.4681C53.6905 84.0896 54.3691 83.871 55.0756 83.8432C55.1087 83.8432 55.1418 83.8146 55.1749 83.8146H55.2731C55.8529 83.8133 56.4179 83.9729 56.8847 84.27C57.3127 84.5539 57.5432 85.0083 57.5432 85.6332C57.5432 85.718 57.5101 85.8323 57.5101 85.9457C57.5101 86.059 57.4782 86.1744 57.4451 86.2877ZM55.999 86.2877C55.999 86.2296 55.999 86.1744 56.0309 86.1172V85.9467V85.8609V85.7761C56.0309 85.5484 55.9647 85.3207 55.8335 85.1502C55.7022 84.9521 55.4386 84.8663 55.0448 84.8663C54.6168 84.8663 54.2562 84.9797 54.0245 85.1788C53.8072 85.3739 53.6393 85.6058 53.5314 85.8599C53.4983 85.9457 53.4652 86.0029 53.4321 86.0866C53.399 86.1438 53.399 86.2286 53.399 86.2857C53.3659 86.3705 53.3328 86.4553 53.3328 86.541C53.3328 86.6268 53.2997 86.7116 53.2997 86.7973C53.2997 87.024 53.3979 87.2517 53.5303 87.4223C53.6615 87.6204 53.924 87.7061 54.3189 87.7061C54.7469 87.7061 55.0756 87.5928 55.3062 87.3937C55.5687 87.167 55.7342 86.9393 55.8323 86.684C55.8654 86.6268 55.8985 86.5706 55.9305 86.4849C55.9647 86.4287 55.9647 86.3439 55.999 86.2877ZM63.5295 85.3779L62.7397 88.616H61.3256L62.0161 85.7761C62.0492 85.7476 62.0492 85.6904 62.0492 85.6332C62.0823 85.6056 62.0823 85.5475 62.0823 85.4903V85.4055C62.0823 85.2626 62.0161 85.1492 61.918 85.0359C61.8198 84.9225 61.6224 84.8654 61.3256 84.8654C61.0289 84.8654 60.7333 84.9511 60.4696 85.1492C60.2071 85.3198 60.0416 85.576 59.9434 85.9457L59.2849 88.615H57.8708L59.0212 83.9279H60.3703L60.206 84.6386H60.2402C60.2733 84.5815 60.3064 84.5253 60.3715 84.4967L60.5689 84.3262C60.7387 84.1802 60.9399 84.0644 61.1613 83.9851C61.3918 83.8718 61.6874 83.8136 62.0492 83.8136C62.5092 83.8136 62.8721 83.927 63.1666 84.1261C63.4633 84.3252 63.5946 84.6091 63.5946 85.0073C63.5946 85.0645 63.5946 85.1206 63.5615 85.1778C63.5626 85.2646 63.5626 85.3207 63.5295 85.3779ZM69.3184 85.3779H67.9374V85.3503V85.3217C67.9287 85.1825 67.8838 85.0467 67.8061 84.9245C67.7068 84.8111 67.4774 84.754 67.1156 84.754C66.82 84.754 66.5895 84.8111 66.4251 84.8673C66.3126 84.9312 66.2217 85.0196 66.1615 85.1236V85.1512C66.1615 85.1798 66.1295 85.2084 66.1295 85.2084V85.2646C66.1295 85.3779 66.2277 85.4637 66.392 85.5208C66.5564 85.578 66.7869 85.6342 67.0175 85.6914C67.1156 85.6914 67.2138 85.719 67.3131 85.719L67.6087 85.8047C67.9705 85.8619 68.3323 85.9753 68.629 86.1458C68.9246 86.2887 69.089 86.5154 69.089 86.8565V86.9984C69.0559 87.0556 69.0559 87.0842 69.0559 87.1413C68.9246 87.5681 68.7272 87.8796 68.4316 88.1063C68.1017 88.333 67.7742 88.5036 67.4443 88.5893C67.2138 88.6465 67.0175 88.6741 66.82 88.7027C66.6226 88.7303 66.4251 88.7303 66.2939 88.7303H66.2608C65.7015 88.7303 65.1753 88.6455 64.7154 88.4464C64.2554 88.2759 64.0249 87.9348 64.0249 87.4518C64.0249 87.3947 64.058 87.3395 64.058 87.2813C64.058 87.2537 64.058 87.1965 64.0911 87.1394L65.5383 87.1118V87.2813C65.5383 87.4518 65.6045 87.5662 65.7357 87.6795C65.9001 87.7643 66.1626 87.8215 66.5575 87.8215C66.8212 87.8215 67.0186 87.7939 67.1499 87.7081C67.3142 87.6509 67.4124 87.5948 67.4797 87.509C67.5117 87.4814 67.5117 87.4518 67.5459 87.4242C67.5459 87.3671 67.579 87.3671 67.579 87.3395V87.3109V87.2823C67.579 87.1404 67.5128 87.0556 67.3154 86.9984C67.1005 86.9298 66.881 86.8729 66.6579 86.8279C66.5598 86.8279 66.4936 86.8003 66.3954 86.8003C66.2973 86.7717 66.2311 86.7717 66.1329 86.7431C65.7787 86.6637 65.4364 86.5493 65.1126 86.4021C64.817 86.2591 64.6526 86.0048 64.6526 85.6628C64.6526 85.6352 64.6526 85.578 64.6857 85.5208C64.6857 85.4923 64.6857 85.4351 64.7188 85.3779C64.7188 85.3207 64.7519 85.2646 64.7519 85.2074C64.785 85.1226 64.8181 85.0654 64.8501 85.0093C65.0156 84.7254 65.2781 84.4415 65.673 84.1852C66.0348 83.9585 66.594 83.8156 67.2845 83.8156H67.4158C67.482 83.8156 67.514 83.8442 67.5813 83.8442C68.0093 83.8442 68.4362 83.9575 68.798 84.128C69.1598 84.271 69.3572 84.611 69.3572 85.093V85.2064C69.3504 85.2646 69.3184 85.3207 69.3184 85.3779ZM73.2321 87.2527H74.6793C74.4898 87.5983 74.2215 87.9074 73.8906 88.1615C73.5608 88.3606 73.2321 88.5312 72.8703 88.616C72.739 88.6445 72.5735 88.6731 72.4103 88.7017C72.2459 88.7293 72.0816 88.7293 71.9503 88.7293C71.3249 88.7293 70.7987 88.6159 70.3707 88.3607C69.977 88.1044 69.7795 87.6795 69.7795 87.0536C69.7795 86.9117 69.7795 86.7983 69.8115 86.6564C69.8115 86.5144 69.8446 86.3449 69.8777 86.202C69.9096 86.06 69.9758 85.9181 70.042 85.719C70.1071 85.5208 70.2395 85.3217 70.4038 85.094C70.6344 84.7825 70.93 84.4987 71.3568 84.2138C71.7848 83.9575 72.3441 83.8156 73.0677 83.8156C73.1339 83.8156 73.199 83.8442 73.2652 83.8442H73.4957C73.8906 83.9013 74.2524 84.0433 74.5811 84.2986C74.911 84.5549 75.0753 84.9521 75.0753 85.5484C75.0753 85.6618 75.0753 85.8047 75.0422 85.9467C75.0422 86.0886 75.0091 86.2296 74.976 86.4011L74.9098 86.5992H71.1936V86.7697C71.1936 86.7983 71.1605 86.8555 71.1605 86.9127C71.1605 86.9403 71.1936 86.9974 71.1936 87.026V87.0832C71.2267 87.2537 71.2918 87.4242 71.4242 87.5662C71.5554 87.6795 71.8191 87.7643 72.1809 87.7643H72.3121C72.3121 87.7643 72.3783 87.7357 72.4114 87.7357C72.5758 87.7081 72.7401 87.6509 72.8714 87.5938C73.0233 87.5085 73.1474 87.3911 73.2321 87.2527ZM73.6589 85.8047V85.719V85.6342C73.6589 85.3503 73.5608 85.1512 73.3964 85.0378C73.2568 84.9162 73.0685 84.8453 72.8703 84.8397H72.8041C72.4754 84.8397 72.1797 84.9245 71.9492 85.095C71.7186 85.2655 71.5543 85.4923 71.455 85.8057L73.6589 85.8047ZM76.817 88.616H75.4029L76.9483 82.3114H78.3624L76.817 88.616ZM83.8545 85.3779L83.0658 88.616H81.6506L82.3411 85.7761C82.3742 85.7476 82.3742 85.6904 82.3742 85.6332C82.4073 85.6056 82.4073 85.5475 82.4073 85.4903V85.4055C82.4073 85.2626 82.3411 85.1492 82.2429 85.0359C82.1448 84.9225 81.9473 84.8654 81.6506 84.8654C81.3338 84.8606 81.0272 84.9624 80.7957 85.1492C80.5332 85.3198 80.3689 85.576 80.2696 85.9457L79.6121 88.615H78.198L79.7434 82.3104H81.1575L80.5983 84.5539H80.6314C80.7638 84.3548 80.9932 84.1842 81.3219 84.0423C81.6175 83.8994 81.9793 83.8146 82.3742 83.8146C82.8353 83.8146 83.196 83.928 83.4927 84.1271C83.7552 84.3262 83.9207 84.6101 83.9207 85.0083C83.9207 85.0654 83.9207 85.1216 83.8876 85.1788C83.8876 85.2646 83.8876 85.3207 83.8545 85.3779ZM90.1695 86.2877C89.9721 87.0832 89.5772 87.7071 88.9529 88.0768C88.3605 88.474 87.7031 88.7017 87.0126 88.7293H86.8163C86.192 88.7293 85.6647 88.5874 85.2047 88.3035C84.7778 88.0196 84.5473 87.5652 84.5473 86.9393C84.5473 86.8545 84.5804 86.7411 84.5804 86.6278C84.6135 86.5144 84.6135 86.4011 84.6466 86.2867C84.844 85.4903 85.239 84.8663 85.8633 84.4681C86.4887 84.0709 87.113 83.8727 87.8366 83.8432C87.8686 83.8432 87.9028 83.8146 87.9348 83.8146H88.001C88.6253 83.8146 89.1857 83.9861 89.6126 84.27C90.0406 84.5539 90.27 85.0083 90.27 85.6332C90.27 85.718 90.27 85.8323 90.238 85.9457C90.2303 86.0616 90.2073 86.1763 90.1695 86.2877ZM88.7223 86.2877C88.7223 86.2296 88.7554 86.1744 88.7554 86.1172V85.9467C88.7885 85.9181 88.7885 85.8885 88.7885 85.8609V85.7761C88.7885 85.5484 88.7223 85.3207 88.558 85.1502C88.4267 84.9521 88.1631 84.8663 87.7693 84.8663C87.3413 84.8663 87.0126 84.9797 86.7489 85.1788C86.5313 85.3736 86.3633 85.6056 86.2559 85.8599C86.2228 85.9457 86.1897 86.0029 86.1577 86.0866C86.1577 86.1438 86.1246 86.2286 86.1246 86.2857C86.0915 86.3705 86.0915 86.4553 86.0584 86.541V86.7973C86.0584 87.024 86.1246 87.2517 86.2559 87.4223C86.3871 87.6204 86.6839 87.7061 87.0445 87.7061C87.4726 87.7061 87.8013 87.5928 88.0638 87.3937C88.2943 87.167 88.4587 86.9393 88.558 86.684C88.5911 86.6268 88.6242 86.5706 88.6561 86.4849C88.6892 86.4287 88.6892 86.3439 88.7223 86.2877ZM99.5434 82.3114H100.957L99.4121 88.616H97.8667L95.9915 84.128L94.8741 88.616H93.46L95.0054 82.3114H96.617L98.4248 86.6859H98.4579L99.5434 82.3114ZM105.957 85.1798L105.364 87.7071C105.332 87.7929 105.298 87.8777 105.298 87.9338V88.1044C105.298 88.2177 105.298 88.3035 105.364 88.3311C105.39 88.3821 105.437 88.4226 105.497 88.4444L105.43 88.615H103.917C103.884 88.5578 103.884 88.5302 103.884 88.5016V88.3883V88.3607V88.2177C103.884 88.1891 103.884 88.133 103.917 88.0758C103.851 88.1034 103.819 88.133 103.786 88.1606C103.72 88.1882 103.688 88.2177 103.654 88.2463C103.457 88.3597 103.226 88.473 102.964 88.5874C102.658 88.6827 102.336 88.7307 102.011 88.7293C101.649 88.7293 101.32 88.6445 101.057 88.5026C100.918 88.4165 100.808 88.3002 100.739 88.1654C100.67 88.0306 100.643 87.8823 100.662 87.7357V87.5662C100.662 87.508 100.662 87.4518 100.694 87.3947C100.793 86.9127 101.024 86.5716 101.384 86.3449C101.744 86.0965 102.177 85.9389 102.634 85.8895L103.95 85.719H104.016C104.049 85.719 104.082 85.6914 104.114 85.6914C104.181 85.6914 104.279 85.6342 104.377 85.6066C104.457 85.5353 104.514 85.4469 104.541 85.3503V85.2931V85.2074C104.541 85.0655 104.508 84.9807 104.377 84.9235C104.279 84.8663 104.146 84.8387 104.015 84.8102H103.72C103.457 84.8102 103.26 84.8673 103.094 84.9531C102.963 85.0664 102.865 85.1512 102.798 85.2646C102.766 85.2931 102.766 85.3503 102.733 85.3779C102.733 85.4065 102.733 85.4351 102.7 85.4637H101.351C101.549 84.8387 101.91 84.4129 102.338 84.1852C102.779 83.9908 103.26 83.8748 103.753 83.8442H103.95C104.016 83.8442 104.081 83.8156 104.148 83.8156C104.246 83.8156 104.345 83.8442 104.477 83.8442C104.609 83.8442 104.707 83.8727 104.838 83.8727C105.135 83.9289 105.397 84.0433 105.661 84.1842C105.891 84.3272 106.023 84.5815 106.023 84.8949C106.023 84.9225 105.99 84.9797 105.99 85.0369C105.988 85.0664 105.988 85.1226 105.957 85.1798ZM104.148 86.9403L104.279 86.3449C104.213 86.4021 104.081 86.4297 103.95 86.4868C103.786 86.5154 103.555 86.5726 103.26 86.6002C102.997 86.6288 102.766 86.7135 102.536 86.7993C102.338 86.8841 102.207 87.0546 102.141 87.3109V87.368C102.108 87.368 102.108 87.3956 102.108 87.3956V87.4518C102.108 87.5948 102.141 87.6795 102.239 87.7357C102.305 87.7939 102.404 87.8501 102.502 87.8501H102.568C102.601 87.8501 102.634 87.8777 102.634 87.8777C102.7 87.8777 102.733 87.8501 102.798 87.8501H102.931C103.193 87.7929 103.457 87.7071 103.688 87.5376C103.95 87.3947 104.081 87.1965 104.148 86.9403ZM110.035 86.9127H111.449C111.416 86.9974 111.382 87.1394 111.284 87.2813C111.199 87.4451 111.088 87.598 110.954 87.7357C110.724 87.992 110.428 88.2187 110.033 88.4178C109.638 88.6159 109.145 88.7293 108.553 88.7293C107.763 88.7293 107.205 88.5588 106.942 88.2177C106.65 87.8953 106.509 87.4901 106.547 87.0822V86.7411C106.58 86.6278 106.58 86.5144 106.613 86.4287C106.81 85.6618 107.172 85.0369 107.698 84.5549C108.224 84.0719 108.948 83.8156 109.836 83.8156C109.934 83.8156 110.066 83.8442 110.165 83.8442C110.263 83.8442 110.362 83.8727 110.493 83.9013C110.822 83.9585 111.118 84.1004 111.414 84.3281C111.677 84.5263 111.809 84.8673 111.809 85.3217V85.6076H110.362V85.579V85.4656C110.362 85.4371 110.329 85.4085 110.329 85.3799C110.296 85.2379 110.231 85.1246 110.132 85.0112C110.032 84.8979 109.869 84.8683 109.638 84.8683H109.605C109.244 84.8683 108.947 84.9817 108.717 85.1808C108.514 85.3799 108.358 85.6112 108.257 85.8619C108.224 85.9191 108.191 85.9753 108.191 86.0324C108.158 86.0896 108.158 86.1458 108.125 86.2029V86.3173C108.092 86.3745 108.059 86.4592 108.059 86.544C108.059 86.6288 108.026 86.7145 108.026 86.8003V86.9422C108.026 87.1413 108.059 87.3119 108.19 87.4824C108.288 87.6529 108.519 87.7377 108.848 87.7377C109.047 87.743 109.243 87.6933 109.407 87.5957C109.56 87.5141 109.694 87.408 109.802 87.2833C109.868 87.2261 109.9 87.1413 109.966 87.0852C110.001 87.026 110.001 86.9688 110.035 86.9127ZM114.639 83.9289L113.521 88.616H112.074L113.225 83.9289H114.639ZM114.77 83.3898H113.356L113.651 82.2542H115.066L114.77 83.3898ZM120.657 86.2877C120.461 87.0832 120.065 87.7071 119.44 88.0768C118.816 88.474 118.157 88.7017 117.467 88.7293H117.271C116.645 88.7293 116.119 88.5874 115.692 88.3035C115.265 88.0196 115.035 87.5652 115.035 86.9393C115.035 86.8545 115.035 86.7411 115.068 86.6278C115.068 86.5144 115.101 86.4011 115.134 86.2867C115.332 85.4903 115.726 84.8663 116.351 84.4681C116.906 84.0896 117.584 83.871 118.291 83.8432C118.323 83.8432 118.357 83.8146 118.389 83.8146H118.488C119.113 83.8146 119.639 83.9861 120.067 84.27C120.527 84.5539 120.725 85.0083 120.725 85.6332V85.9457C120.725 86.059 120.69 86.1744 120.657 86.2877ZM119.178 86.2877C119.211 86.2296 119.211 86.1744 119.211 86.1172C119.244 86.06 119.244 86.0038 119.244 85.9467V85.8609V85.7761C119.244 85.5484 119.178 85.3207 119.047 85.1502C118.915 84.9521 118.619 84.8663 118.225 84.8663C117.797 84.8663 117.468 84.9797 117.238 85.1788C117.007 85.3769 116.843 85.6332 116.711 85.8599C116.711 85.9457 116.678 86.0029 116.645 86.0866C116.613 86.1438 116.613 86.2286 116.579 86.2857C116.579 86.3705 116.547 86.4553 116.547 86.541C116.514 86.6268 116.514 86.7116 116.514 86.7973C116.514 87.024 116.579 87.2517 116.744 87.4223C116.876 87.6204 117.139 87.7061 117.533 87.7061C117.961 87.7061 118.29 87.5928 118.52 87.3937C118.783 87.167 118.948 86.9393 119.047 86.684C119.08 86.6268 119.113 86.5706 119.145 86.4849C119.145 86.4287 119.178 86.3439 119.178 86.2877ZM126.741 85.3779L125.953 88.616H124.539L125.229 85.7761C125.229 85.7476 125.261 85.6904 125.261 85.6332C125.261 85.6056 125.294 85.5475 125.294 85.4903V85.4055C125.294 85.2626 125.228 85.1492 125.13 85.0359C125.032 84.9225 124.834 84.8654 124.538 84.8654C124.209 84.8654 123.945 84.9511 123.683 85.1492C123.42 85.3198 123.255 85.576 123.157 85.9457L122.498 88.615H121.085L122.202 83.9279H123.583L123.419 84.6386C123.485 84.5815 123.517 84.5253 123.583 84.4967C123.631 84.4263 123.699 84.3676 123.781 84.3262C123.912 84.1832 124.11 84.0699 124.373 83.9851C124.603 83.8718 124.899 83.8136 125.26 83.8136C125.721 83.8136 126.083 83.927 126.379 84.1261C126.641 84.3252 126.805 84.6091 126.805 85.0073C126.805 85.0645 126.805 85.1206 126.772 85.1778C126.775 85.2646 126.775 85.3207 126.741 85.3779ZM132.497 85.1798L131.872 87.7071C131.84 87.7929 131.84 87.8777 131.84 87.9338C131.807 87.991 131.807 88.0768 131.807 88.1044C131.807 88.2177 131.84 88.3035 131.872 88.3311C131.905 88.3883 131.971 88.4168 132.004 88.4444L131.971 88.615H130.426V88.5016V88.3883V88.3607V88.2177V88.0758C130.393 88.1034 130.36 88.133 130.294 88.1606C130.261 88.1882 130.228 88.2177 130.163 88.2463C129.957 88.3782 129.737 88.4924 129.506 88.5874C129.243 88.6721 128.913 88.7293 128.519 88.7293C128.183 88.7284 127.854 88.6501 127.566 88.5026C127.303 88.3321 127.171 88.0768 127.171 87.7357V87.5662C127.204 87.508 127.204 87.4518 127.204 87.3947C127.336 86.9127 127.566 86.5716 127.927 86.3449C128.289 86.0886 128.684 85.9476 129.144 85.8895L130.46 85.719H130.558C130.558 85.719 130.591 85.6914 130.624 85.6914C130.722 85.6914 130.822 85.6342 130.887 85.6066C130.937 85.5794 130.979 85.5417 131.008 85.4969C131.037 85.4521 131.052 85.4016 131.052 85.3503C131.084 85.3217 131.084 85.2931 131.084 85.2931V85.2074C131.084 85.0655 131.018 84.9807 130.92 84.9235C130.789 84.8663 130.657 84.8387 130.525 84.8102H130.262C130 84.8102 129.769 84.8673 129.638 84.9531C129.473 85.0664 129.375 85.1512 129.343 85.2646C129.308 85.2958 129.285 85.3353 129.276 85.3779C129.276 85.4065 129.244 85.4351 129.244 85.4637H127.863C128.094 84.8387 128.423 84.4129 128.883 84.1852C129.323 83.9909 129.804 83.8749 130.297 83.8442H130.494C130.56 83.8442 130.625 83.8156 130.692 83.8156C130.791 83.8156 130.889 83.8442 130.987 83.8442C131.119 83.8442 131.251 83.8727 131.349 83.8727C131.646 83.9289 131.941 84.0433 132.172 84.1842C132.403 84.3272 132.534 84.5815 132.534 84.8949V85.0369C132.53 85.0664 132.497 85.1226 132.497 85.1798ZM130.688 86.9403L130.819 86.3449C130.721 86.4021 130.622 86.4297 130.458 86.4868C130.326 86.5154 130.096 86.5726 129.8 86.6002C129.538 86.6288 129.274 86.7135 129.077 86.7993C128.847 86.8841 128.715 87.0546 128.649 87.3109V87.4518C128.649 87.5948 128.682 87.6795 128.747 87.7357C128.846 87.7939 128.944 87.8501 129.044 87.8501H129.11C129.142 87.8501 129.142 87.8777 129.175 87.8777C129.208 87.8777 129.273 87.8501 129.307 87.8501H129.472C129.735 87.7929 129.998 87.7071 130.228 87.5376C130.463 87.3957 130.628 87.1823 130.688 86.9403ZM134.372 88.616H132.958L134.504 82.3114H135.951L134.372 88.616ZM143.516 88.616H142.1L142.266 88.0206H142.233C142.081 88.2003 141.892 88.3544 141.676 88.475C141.479 88.5659 141.268 88.6326 141.049 88.6731C140.951 88.7017 140.853 88.7017 140.753 88.7303H140.49C139.866 88.7303 139.405 88.5598 139.143 88.2483C138.881 87.9072 138.746 87.509 138.746 87.027C138.746 86.8841 138.746 86.7707 138.779 86.6298C138.779 86.4868 138.812 86.3735 138.847 86.2315C139.012 85.4932 139.373 84.8969 139.866 84.4997C140.359 84.13 140.885 83.9033 141.444 83.8461H141.545C141.61 83.8461 141.643 83.8175 141.676 83.8175C142.037 83.8175 142.3 83.8757 142.497 83.9891C142.695 84.1024 142.826 84.2158 142.925 84.3301C142.958 84.3873 142.992 84.4149 142.992 84.4435C143.025 84.5006 143.057 84.5282 143.057 84.5568H143.09L143.649 82.3134H145.062L143.516 88.616ZM140.293 86.3153C140.259 86.4011 140.259 86.4573 140.225 86.542V86.7983C140.225 87.025 140.293 87.2527 140.424 87.4508C140.522 87.6214 140.751 87.7347 141.081 87.7347C141.542 87.7347 141.904 87.5928 142.167 87.3089C142.429 87.0526 142.595 86.7411 142.693 86.4001V86.3143C142.726 86.2867 142.726 86.2572 142.726 86.2286C142.726 86.1724 142.757 86.0866 142.757 86.0029V85.8037C142.757 85.5475 142.692 85.3207 142.56 85.1502C142.429 84.9797 142.2 84.8949 141.836 84.8949C141.377 84.8949 141.047 85.0369 140.783 85.3207C140.555 85.6342 140.391 85.9467 140.293 86.3153ZM148.284 87.2527H149.731C149.542 87.5985 149.274 87.9077 148.943 88.1615C148.615 88.3606 148.285 88.5312 147.958 88.616L147.462 88.7017C147.297 88.7293 147.166 88.7293 147.004 88.7293C146.377 88.7293 145.851 88.6159 145.423 88.3607C145.03 88.1044 144.832 87.6795 144.832 87.0536C144.832 86.9117 144.832 86.7983 144.865 86.6564C144.865 86.5144 144.896 86.3449 144.93 86.202C144.963 86.06 145.03 85.9181 145.095 85.719C145.194 85.5208 145.292 85.3217 145.456 85.094C145.688 84.7825 145.982 84.4987 146.41 84.2138C146.838 83.9575 147.397 83.8156 148.12 83.8156C148.187 83.8156 148.251 83.8442 148.352 83.8442H148.548C148.943 83.9013 149.303 84.0433 149.633 84.2986C149.961 84.5549 150.126 84.9521 150.126 85.5484C150.126 85.6618 150.126 85.8047 150.096 85.9467C150.096 86.0886 150.062 86.2296 150.028 86.4011L149.961 86.5992H146.245V87.0832C146.278 87.2537 146.345 87.4242 146.476 87.5662C146.608 87.6795 146.871 87.7643 147.232 87.7643H147.363C147.396 87.7643 147.428 87.7357 147.461 87.7357C147.627 87.7081 147.791 87.6509 147.922 87.5938C148.083 87.5176 148.21 87.3977 148.284 87.2527ZM148.712 85.8047V85.719V85.6342C148.712 85.3503 148.645 85.1512 148.483 85.0378C148.317 84.9245 148.12 84.8397 147.924 84.8397H147.857C147.53 84.8397 147.233 84.9245 147.004 85.095C146.772 85.2655 146.609 85.4923 146.508 85.8057L148.712 85.8047ZM154.896 82.3114H158.117C159.04 82.3114 159.663 82.5381 159.992 82.9639C160.289 83.3907 160.453 83.8451 160.487 84.3557V84.3843C160.487 84.5549 160.454 84.6958 160.42 84.8663C160.42 85.0093 160.387 85.1788 160.355 85.3207C160.322 85.4913 160.255 85.6332 160.19 85.8037C160.122 85.9743 160.058 86.1734 159.991 86.3439C159.691 86.9273 159.268 87.4572 158.742 87.9062C158.183 88.3607 157.428 88.616 156.506 88.616H153.347L154.896 82.3114ZM155.125 87.508H156.606C157.197 87.5366 157.658 87.3099 158.019 86.9127C158.349 86.4858 158.612 86.0314 158.743 85.5484C158.743 85.5208 158.743 85.4913 158.777 85.4637V85.4065C158.807 85.236 158.842 85.094 158.875 84.9521V84.5825C158.875 84.1556 158.777 83.8728 158.612 83.7012C158.414 83.5593 158.217 83.4459 157.986 83.4174C157.921 83.4174 157.854 83.4174 157.789 83.3898H156.11L155.125 87.508ZM164.071 87.2527H165.552C165.32 87.6214 165.056 87.9338 164.729 88.1615C164.432 88.3606 164.071 88.5312 163.741 88.616C163.578 88.6445 163.414 88.6731 163.283 88.7017C163.117 88.7293 162.953 88.7293 162.821 88.7293C162.164 88.7293 161.638 88.6159 161.243 88.3607C160.815 88.1044 160.619 87.6795 160.619 87.0536C160.619 86.9117 160.65 86.7983 160.65 86.6564C160.683 86.5144 160.717 86.3449 160.75 86.202C160.781 86.06 160.815 85.9181 160.913 85.719C160.981 85.5208 161.112 85.3217 161.243 85.094C161.472 84.7825 161.802 84.4987 162.23 84.2138C162.656 83.9575 163.215 83.8156 163.907 83.8156C163.974 83.8156 164.072 83.8442 164.136 83.8442H164.368C164.763 83.9013 165.124 84.0433 165.453 84.2986C165.781 84.5549 165.946 84.9521 165.946 85.5484C165.946 85.6618 165.913 85.8047 165.913 85.9467C165.88 86.0886 165.848 86.2296 165.815 86.4011L165.748 86.5992H162.065C162.032 86.6564 162.032 86.7126 162.032 86.7697V87.0832C162.071 87.2606 162.161 87.4266 162.294 87.5662C162.425 87.6795 162.689 87.7643 163.05 87.7643H163.15C163.183 87.7643 163.215 87.7357 163.248 87.7357C163.418 87.7021 163.583 87.6546 163.741 87.5938C163.884 87.5072 163.998 87.3895 164.071 87.2527ZM164.499 85.8047V85.719V85.6342C164.499 85.3503 164.432 85.1512 164.268 85.0378C164.104 84.9245 163.94 84.8397 163.741 84.8397H163.676H163.643C163.313 84.8397 163.05 84.9245 162.82 85.095C162.591 85.2655 162.425 85.4923 162.294 85.8057L164.499 85.8047ZM171.469 85.3779H170.09V85.3503V85.3217C170.08 85.1826 170.035 85.0469 169.958 84.9245C169.86 84.8111 169.628 84.754 169.268 84.754C168.971 84.754 168.742 84.8111 168.577 84.8673C168.446 84.9531 168.348 85.0102 168.315 85.1236V85.1512C168.282 85.1798 168.282 85.2084 168.282 85.2084V85.2646C168.282 85.3779 168.382 85.4637 168.544 85.5208C168.71 85.578 168.939 85.6342 169.171 85.6914C169.269 85.6914 169.367 85.719 169.465 85.719L169.762 85.8047C170.125 85.8619 170.452 85.9753 170.783 86.1458C171.078 86.2887 171.242 86.5154 171.242 86.8565V86.9984C171.209 87.0556 171.209 87.0842 171.209 87.1413C171.078 87.5681 170.882 87.8796 170.585 88.1063C170.257 88.333 169.927 88.5036 169.6 88.5893C169.368 88.6465 169.172 88.6741 168.973 88.7027C168.777 88.7303 168.578 88.7303 168.447 88.7303H168.414C167.857 88.7303 167.329 88.6455 166.869 88.4464C166.408 88.2759 166.178 87.9348 166.178 87.4518C166.178 87.3947 166.211 87.3395 166.211 87.2813C166.211 87.2537 166.211 87.1965 166.244 87.1394L167.692 87.1118V87.1965C167.658 87.2241 167.658 87.2537 167.658 87.2813C167.658 87.4518 167.757 87.5662 167.888 87.6795C168.053 87.7643 168.316 87.8215 168.711 87.8215C168.973 87.8215 169.172 87.7939 169.304 87.7081C169.468 87.6509 169.567 87.5948 169.632 87.509C169.665 87.4814 169.665 87.4518 169.699 87.4242C169.699 87.3671 169.73 87.3671 169.73 87.3395V87.3109V87.2823C169.73 87.1404 169.632 87.0556 169.468 86.9984C169.253 86.9297 169.033 86.8727 168.81 86.8279C168.712 86.8279 168.647 86.8003 168.548 86.8003C168.449 86.7717 168.384 86.7717 168.285 86.7431C167.931 86.6636 167.589 86.5491 167.266 86.4021C166.969 86.2591 166.805 86.0048 166.805 85.6628C166.805 85.6352 166.805 85.578 166.838 85.5208V85.3779C166.871 85.3207 166.871 85.2646 166.905 85.2074C166.936 85.1226 166.97 85.0654 167.003 85.0093C167.169 84.7254 167.431 84.4415 167.826 84.1852C168.187 83.9585 168.747 83.8156 169.438 83.8156H169.569C169.634 83.8156 169.667 83.8442 169.732 83.8442C170.16 83.8442 170.555 83.9575 170.949 84.128C171.312 84.271 171.508 84.611 171.508 85.093V85.2064C171.503 85.2646 171.469 85.3207 171.469 85.3779ZM175.384 87.2527H176.831C176.602 87.6214 176.338 87.9338 176.043 88.1615C175.715 88.3606 175.385 88.5312 175.024 88.616C174.892 88.6445 174.727 88.6731 174.562 88.7017C174.397 88.7293 174.235 88.7293 174.104 88.7293C173.477 88.7293 172.951 88.6159 172.525 88.3607C172.128 88.1044 171.899 87.6795 171.899 87.0536C171.899 86.9117 171.932 86.7983 171.932 86.6564C171.965 86.5144 171.999 86.3449 172.03 86.202C172.063 86.06 172.128 85.9181 172.195 85.719C172.263 85.5208 172.392 85.3217 172.556 85.094C172.755 84.7825 173.082 84.4987 173.51 84.2138C173.938 83.9575 174.497 83.8156 175.22 83.8156C175.287 83.8156 175.351 83.8442 175.418 83.8442H175.648C176.043 83.9013 176.403 84.0433 176.733 84.2986C177.063 84.5549 177.226 84.9521 177.226 85.5484C177.226 85.6618 177.226 85.8047 177.196 85.9467C177.196 86.0886 177.162 86.2296 177.128 86.4011L177.063 86.5992H173.345V86.7697C173.345 86.7983 173.314 86.8555 173.314 86.9127C173.314 86.9403 173.345 86.9974 173.345 87.026V87.0832C173.378 87.2537 173.445 87.4242 173.576 87.5662C173.708 87.6795 173.971 87.7643 174.332 87.7643H174.43C174.463 87.7643 174.497 87.7357 174.53 87.7357C174.727 87.7081 174.891 87.6509 175.024 87.5938C175.176 87.509 175.3 87.3915 175.384 87.2527ZM175.812 85.8047V85.719V85.6342C175.812 85.3503 175.714 85.1512 175.55 85.0378C175.385 84.9245 175.22 84.8397 175.024 84.8397H174.957C174.597 84.8397 174.333 84.9245 174.104 85.095C173.872 85.2655 173.709 85.4923 173.577 85.8057L175.812 85.8047ZM183.18 85.3779L182.391 88.616H180.976L181.666 85.7761C181.699 85.7476 181.699 85.6904 181.699 85.6332C181.732 85.6056 181.732 85.5475 181.732 85.4903V85.4055C181.732 85.2626 181.665 85.1492 181.567 85.0359C181.469 84.9225 181.27 84.8654 180.973 84.8654C180.679 84.8654 180.382 84.9511 180.12 85.1492C179.857 85.3198 179.692 85.576 179.593 85.9457L178.936 88.615H177.521L178.674 83.9279H180.02L179.857 84.6386H179.888C179.921 84.5815 179.955 84.5253 180.019 84.4967L180.218 84.3262C180.383 84.1832 180.578 84.0699 180.809 83.9851C181.041 83.8718 181.337 83.8136 181.698 83.8136C182.157 83.8136 182.521 83.927 182.815 84.1261C183.08 84.3252 183.243 84.6091 183.243 85.0073C183.243 85.0645 183.243 85.1206 183.21 85.1778C183.21 85.2646 183.21 85.3207 183.18 85.3779ZM186.204 88.616H184.724L183.935 83.9289H185.514L185.776 87.3947H185.809L187.783 83.9289H189.296L186.204 88.616ZM194.427 86.2877C194.229 87.0832 193.834 87.7071 193.211 88.0768C192.617 88.474 191.96 88.7017 191.269 88.7293H191.073C190.446 88.7293 189.92 88.5874 189.495 88.3035C189.033 88.0196 188.835 87.5652 188.835 86.9393V86.6278C188.868 86.5144 188.902 86.4011 188.902 86.2867C189.099 85.4903 189.527 84.8663 190.119 84.4681C190.689 84.093 191.377 83.8751 192.092 83.8432C192.125 83.8432 192.16 83.8146 192.19 83.8146H192.291C192.915 83.8146 193.441 83.9861 193.869 84.27C194.295 84.5539 194.527 85.0083 194.527 85.6332C194.527 85.718 194.527 85.8323 194.494 85.9457C194.493 86.06 194.459 86.1744 194.427 86.2877ZM192.979 86.2877C192.979 86.2296 193.012 86.1744 193.012 86.1172V85.9467C193.045 85.9181 193.045 85.8885 193.045 85.8609V85.7761C193.045 85.5484 192.978 85.3207 192.816 85.1502C192.685 84.9521 192.421 84.8663 192.027 84.8663C191.599 84.8663 191.269 84.9797 191.04 85.1788C190.777 85.3769 190.612 85.6332 190.514 85.8599C190.481 85.9457 190.446 86.0029 190.446 86.0866C190.411 86.149 190.389 86.2165 190.381 86.2857C190.348 86.3705 190.348 86.4553 190.314 86.541V86.7973C190.314 87.024 190.381 87.2517 190.513 87.4223C190.678 87.6204 190.941 87.7061 191.336 87.7061C191.764 87.7061 192.091 87.5928 192.321 87.3937C192.538 87.1824 192.716 86.9429 192.847 86.684C192.88 86.6268 192.88 86.5706 192.914 86.4849C192.951 86.4236 192.973 86.3565 192.979 86.2877ZM196.334 88.616H194.886L196.433 82.3114H197.88L196.334 88.616ZM200.578 88.616H199.098L198.307 83.9289H199.888L200.15 87.3947H200.181L202.155 83.9289H203.667L200.578 88.616ZM205.937 83.9289L204.786 88.616H203.373L204.524 83.9289H205.937ZM206.069 83.3898H204.656L204.919 82.2542H206.366L206.069 83.3898ZM214.653 85.3779L213.864 88.616H212.451L213.141 85.7761C213.174 85.718 213.174 85.6618 213.208 85.6056V85.4341C213.208 85.236 213.141 85.0654 213.043 84.9797C212.92 84.9001 212.768 84.8601 212.615 84.8663C212.254 84.8663 211.99 84.9521 211.792 85.1502C211.585 85.3388 211.447 85.5762 211.397 85.8323L210.708 88.615H209.292L209.983 85.8028C209.983 85.7752 210.016 85.717 210.016 85.6598C210.016 85.6036 210.049 85.5751 210.049 85.5179V85.4321V85.375C210.056 85.2427 210.01 85.1124 209.918 85.0063C209.817 84.9206 209.655 84.8634 209.358 84.8634C209.029 84.8634 208.799 84.9491 208.601 85.1197C208.421 85.3057 208.307 85.5326 208.273 85.7732L207.548 88.613H206.135L207.286 83.926H208.635L208.469 84.6367H208.502C208.536 84.5795 208.57 84.5519 208.634 84.4947C208.667 84.4376 208.732 84.409 208.765 84.3518C208.93 84.2099 209.126 84.0965 209.358 83.9831C209.588 83.8698 209.885 83.8116 210.212 83.8116C210.607 83.8116 210.903 83.8974 211.101 84.0107C211.265 84.1241 211.429 84.3232 211.56 84.5785C211.593 84.5213 211.627 84.4937 211.691 84.4366C211.759 84.3794 211.857 84.3232 211.923 84.266C212.054 84.1517 212.251 84.0393 212.449 83.9536C212.646 83.8688 212.908 83.8107 213.172 83.8107C213.633 83.8107 213.995 83.924 214.29 84.1231C214.586 84.3222 214.718 84.6061 214.718 85.0043V85.1749C214.686 85.2646 214.686 85.3207 214.653 85.3779ZM218.699 87.2527H220.146C219.917 87.6214 219.653 87.9338 219.358 88.1615C219.028 88.3606 218.7 88.5312 218.339 88.616C218.205 88.6445 218.042 88.6731 217.877 88.7017C217.712 88.7293 217.548 88.7293 217.416 88.7293C216.759 88.7293 216.266 88.6159 215.838 88.3607C215.443 88.1044 215.214 87.6795 215.214 87.0536C215.214 86.9117 215.247 86.7983 215.247 86.6564C215.277 86.5144 215.312 86.3449 215.345 86.202C215.378 86.06 215.443 85.9181 215.51 85.719C215.575 85.5208 215.707 85.3217 215.871 85.094C216.07 84.7825 216.397 84.4987 216.825 84.2138C217.253 83.9575 217.81 83.8156 218.535 83.8156C218.602 83.8156 218.666 83.8442 218.733 83.8442H218.963C219.358 83.9013 219.718 84.0433 220.048 84.2986C220.376 84.5549 220.541 84.9521 220.541 85.5484C220.541 85.6618 220.541 85.8047 220.508 85.9467C220.508 86.0886 220.475 86.2296 220.443 86.4011L220.376 86.5992H216.66V86.7697C216.627 86.7983 216.627 86.8555 216.627 86.9127C216.627 86.9403 216.627 86.9974 216.66 87.026V87.0832C216.66 87.2537 216.758 87.4242 216.889 87.5662C217.02 87.6795 217.284 87.7643 217.647 87.7643H217.745C217.778 87.7643 217.81 87.7357 217.843 87.7357C218.042 87.7081 218.173 87.6509 218.339 87.5938C218.49 87.5085 218.615 87.3911 218.699 87.2527ZM219.094 85.8047C219.127 85.7771 219.127 85.7476 219.127 85.719V85.6342C219.127 85.3503 219.027 85.1512 218.865 85.0378C218.699 84.9245 218.535 84.8397 218.339 84.8397H218.238C217.911 84.8397 217.647 84.9245 217.415 85.095C217.186 85.2655 217.02 85.4923 216.889 85.8057L219.094 85.8047ZM226.492 85.3779L225.704 88.616H224.291L224.981 85.7761C225.014 85.7476 225.014 85.6904 225.014 85.6332C225.045 85.6056 225.045 85.5475 225.045 85.4903V85.4055C225.041 85.2695 224.983 85.1389 224.88 85.0359C224.781 84.9225 224.585 84.8654 224.288 84.8654C223.958 84.8654 223.695 84.9511 223.432 85.1492C223.17 85.3198 223.007 85.576 222.906 85.9457L222.249 88.615H220.836L221.953 83.9279H223.335L223.17 84.6386H223.203C223.236 84.5815 223.27 84.5253 223.334 84.4967C223.402 84.4395 223.432 84.3833 223.533 84.3262C223.664 84.1832 223.86 84.0699 224.124 83.9851C224.353 83.8718 224.65 83.8136 225.013 83.8136C225.472 83.8136 225.834 83.927 226.13 84.1261C226.393 84.3252 226.558 84.6091 226.558 85.0073C226.558 85.0645 226.558 85.1206 226.525 85.1778C226.525 85.2646 226.525 85.3207 226.492 85.3779ZM229.783 83.9289H230.636L230.44 84.8102H229.553L228.927 87.3671C228.927 87.3947 228.927 87.4242 228.894 87.4518V87.5376C228.894 87.6224 228.927 87.6805 228.994 87.7081C229.059 87.7357 229.223 87.7357 229.422 87.7357H229.717L229.487 88.6455H229.16C229.059 88.6731 228.928 88.6731 228.83 88.6731H228.631C228.138 88.6731 227.811 88.6159 227.646 88.475C227.56 88.4193 227.491 88.3461 227.445 88.2619C227.399 88.1776 227.378 88.0849 227.384 87.992V87.8501C227.417 87.7929 227.417 87.7071 227.449 87.6509L228.139 84.8102H227.417L227.613 83.9289H228.338L228.665 82.6791H230.081L229.783 83.9289ZM236.196 86.2877C235.997 87.0832 235.602 87.7071 234.979 88.0768C234.386 88.474 233.728 88.7017 233.006 88.7293H232.905H232.84C232.216 88.7293 231.657 88.5874 231.229 88.3035C230.801 88.0196 230.571 87.5652 230.571 86.9393C230.571 86.8545 230.604 86.7411 230.604 86.6278C230.635 86.5144 230.635 86.4011 230.67 86.2867C230.868 85.4903 231.263 84.8663 231.886 84.4681C232.442 84.0897 233.121 83.8712 233.828 83.8432C233.858 83.8432 233.893 83.8146 233.926 83.8146H234.024C234.604 83.8133 235.169 83.9729 235.636 84.27C236.064 84.5539 236.293 85.0083 236.293 85.6332C236.293 85.718 236.26 85.8323 236.26 85.9457C236.26 86.059 236.229 86.1744 236.196 86.2877ZM234.749 86.2877C234.749 86.2296 234.749 86.1744 234.78 86.1172V85.9467V85.8609V85.7761C234.78 85.5484 234.714 85.3207 234.583 85.1502C234.452 84.9521 234.188 84.8663 233.795 84.8663C233.367 84.8663 233.006 84.9797 232.773 85.1788C232.556 85.3739 232.388 85.6058 232.28 85.8599C232.247 85.9457 232.215 86.0029 232.182 86.0866C232.149 86.1438 232.149 86.2286 232.149 86.2857C232.116 86.3705 232.084 86.4553 232.084 86.541C232.084 86.6268 232.051 86.7116 232.051 86.7973C232.051 87.024 232.149 87.2517 232.28 87.4223C232.411 87.6204 232.675 87.7061 233.069 87.7061C233.497 87.7061 233.826 87.5928 234.09 87.3937C234.308 87.1883 234.476 86.9469 234.583 86.684C234.616 86.6268 234.648 86.5706 234.681 86.4849C234.716 86.4287 234.716 86.3439 234.749 86.2877ZM51.6562 94.8081H50.1428C50.1428 94.751 50.1108 94.6948 50.1108 94.61C50.1108 94.5518 50.0777 94.4671 50.0446 94.3823C50.0115 94.2118 49.8791 94.0708 49.6828 93.9279C49.5185 93.786 49.2228 93.7288 48.7948 93.7288C48.6625 93.7288 48.4992 93.7574 48.3349 93.7869C48.1601 93.8181 47.9932 93.8758 47.8418 93.9575C47.5451 94.0994 47.2826 94.3261 47.0189 94.6386C46.7553 94.9511 46.559 95.3769 46.4266 95.9446C46.3935 96.058 46.3935 96.2009 46.3604 96.3143C46.3604 96.4562 46.3273 96.5696 46.3273 96.6839C46.3273 97.0802 46.4585 97.4222 46.656 97.6775C46.8534 97.9614 47.2152 98.0747 47.7083 98.0747C48.1363 98.0747 48.4981 97.99 48.8599 97.7909C49.1886 97.5642 49.4192 97.2793 49.6166 96.9106L51.13 96.8821C50.8547 97.5463 50.3638 98.128 49.7159 98.5577C49.0916 99.0121 48.3018 99.2113 47.4138 99.2113C46.5921 99.2113 45.9666 99.0121 45.4735 98.6435C44.9805 98.2453 44.7499 97.6775 44.7499 96.9106C44.7499 96.7677 44.7499 96.5982 44.783 96.4552C44.8161 96.2847 44.8492 96.0866 44.8812 95.9161C45.1437 94.8081 45.671 93.9841 46.4597 93.4163C47.2483 92.8771 48.1043 92.5923 49.0574 92.5923C49.9122 92.5923 50.5377 92.7628 50.9326 93.0753C51.2944 93.4163 51.5569 93.7564 51.6231 94.1546C51.6562 94.2118 51.6562 94.268 51.6562 94.3537C51.6832 94.417 51.6945 94.4845 51.6893 94.5518V94.6948C51.6562 94.7224 51.6562 94.7795 51.6562 94.8081ZM54.255 94.3823L53.1365 99.0407H51.6893L52.8409 94.3823H54.255ZM54.3874 93.8145H52.9733L53.2689 92.679H54.683L54.3874 93.8145ZM58.0043 97.6775H59.4515C59.2594 98.0217 58.9915 98.3304 58.6629 98.5863C58.3634 98.7978 58.0157 98.9526 57.6425 99.0407C57.4978 99.0968 57.3411 99.126 57.1825 99.1265C57.0315 99.1575 56.8776 99.1767 56.7226 99.1837C56.064 99.1837 55.571 99.0407 55.1441 98.7864C54.7492 98.5597 54.5198 98.1053 54.5198 97.4804C54.5198 97.367 54.5518 97.2241 54.5518 97.0821C54.5849 96.9402 54.618 96.7983 54.6511 96.6277C54.6842 96.5144 54.7492 96.3438 54.8154 96.1457C54.8816 95.9466 55.0129 95.7485 55.1772 95.5208C55.3747 95.2083 55.7034 94.9244 56.1302 94.6682C56.5582 94.4129 57.1175 94.2709 57.808 94.2709H58.0386C58.1367 94.2709 58.204 94.2709 58.2691 94.2995C58.664 94.3567 59.0258 94.4976 59.3545 94.7253C59.6832 94.9816 59.8476 95.4074 59.8476 95.9762C59.8476 96.1181 59.8476 96.2315 59.8145 96.3734C59.8145 96.5154 59.7814 96.6859 59.7163 96.8278L59.6832 97.0545H55.967V97.1965C55.9339 97.2546 55.9339 97.3098 55.9339 97.368C55.9339 97.3956 55.9339 97.4252 55.967 97.4528V97.5375C55.967 97.709 56.0652 97.85 56.1976 97.9929C56.3288 98.1349 56.5925 98.1911 56.9543 98.1911H57.1506C57.348 98.1635 57.4793 98.1063 57.6437 98.0205C57.7954 97.9343 57.9195 97.8163 58.0043 97.6775ZM58.3992 96.2571C58.4312 96.2285 58.4312 96.1999 58.4312 96.1438V96.058C58.4312 95.7741 58.333 95.576 58.1687 95.4616C58.0171 95.356 57.8353 95.2876 57.6425 95.2635H57.5432C57.2145 95.2635 56.9509 95.3493 56.7214 95.5198C56.492 95.6903 56.3265 95.9456 56.1953 96.2581L58.3992 96.2571ZM65.7997 95.8303L65.011 99.0397H63.5957L64.2862 96.1999C64.3193 96.1714 64.3193 96.1428 64.3193 96.0866C64.3524 96.0294 64.3524 95.9732 64.3524 95.9161V95.8875V95.8303C64.3416 95.6957 64.2844 95.567 64.1881 95.4607C64.0899 95.3483 63.8925 95.2901 63.5957 95.2901C63.267 95.2901 63.0034 95.4045 62.7397 95.575C62.4761 95.7455 62.3117 96.0294 62.2136 96.3705L61.5562 99.0397H60.142L61.2606 94.3813H62.6416L62.4772 95.0624C62.5434 95.0348 62.5754 94.9777 62.6416 94.9205C62.6895 94.8501 62.7575 94.7914 62.839 94.75C62.9703 94.6366 63.1677 94.5233 63.4314 94.4089C63.6619 94.3232 63.9575 94.266 64.3193 94.266C64.7793 94.266 65.1411 94.3517 65.4367 94.5499C65.6992 94.749 65.8647 95.0329 65.8647 95.4311C65.8647 95.4883 65.8647 95.5444 65.8316 95.6302C65.8316 95.6893 65.8316 95.7465 65.7997 95.8303ZM69.0879 94.3823H69.9439L69.7464 95.2635H68.8573L68.233 97.7909C68.233 97.8195 68.233 97.8766 68.1999 97.9042V97.99C68.1999 98.0471 68.233 98.1033 68.2981 98.1319C68.4352 98.1745 68.5805 98.1939 68.7261 98.1891C68.7923 98.1891 68.8242 98.1891 68.8904 98.1615H69.0228L68.7923 99.0703C68.6941 99.0989 68.5948 99.0989 68.4635 99.0989H67.9374C67.4432 99.0989 67.1145 99.0407 66.9501 98.9274C66.7858 98.814 66.6876 98.6445 66.6876 98.4454V98.2748C66.7207 98.2177 66.7207 98.1615 66.7538 98.1043L67.4443 95.2635H66.7207L66.9182 94.3823H67.6418L67.9716 93.1048H69.3857L69.0879 94.3823ZM72.311 94.3823L71.1605 99.0407H69.7464L70.8969 94.3823H72.311ZM72.2128 93.7574H71.1605L72.4434 92.4789H74.0219L72.2128 93.7574ZM74.1862 99.0397H72.771L73.6932 95.2625H72.9034L73.1339 94.3813H73.9226L73.9888 94.0127C74.12 93.5297 74.3506 93.1886 74.6793 92.9895C75.008 92.7914 75.436 92.678 75.929 92.678H76.389C76.4872 92.678 76.5865 92.678 76.6527 92.7056L76.389 93.6716H75.9941C75.7967 93.6716 75.6323 93.7278 75.5661 93.785C75.4797 93.874 75.4229 93.9817 75.4017 94.0965V94.1536C75.4017 94.1536 75.4017 94.1822 75.3687 94.2108L75.3356 94.3813H76.2566L76.0261 95.2625H75.105L74.1862 99.0397ZM78.5267 94.3823L77.3763 99.0407H75.9621L77.1138 94.3823H78.5267ZM78.6591 93.8145H77.245L77.5075 92.679H78.9547L78.6591 93.8145ZM82.3753 97.3365H83.8225C83.7895 97.4498 83.7244 97.5632 83.6251 97.7061C83.5531 97.8838 83.4415 98.0476 83.2964 98.1881C83.0349 98.4574 82.7237 98.6875 82.3753 98.8692C81.9804 99.0683 81.4874 99.1817 80.895 99.1817C80.1063 99.1817 79.5471 99.0112 79.2834 98.6425C79.0257 98.3156 78.8881 97.9291 78.8885 97.5336V97.1925C78.9205 97.0792 78.9547 96.9658 78.9547 96.8515C79.1522 96.0856 79.514 95.4883 80.0402 95.0053C80.5663 94.4937 81.2899 94.267 82.211 94.267H82.5077C82.6059 94.2956 82.7371 94.2956 82.8364 94.3241C83.1651 94.4099 83.4607 94.5509 83.7575 94.751C84.02 94.9777 84.1855 95.2901 84.1524 95.7455V96.058H82.7052V96.0304V96.0018V95.917C82.7052 95.8599 82.7052 95.8313 82.6721 95.8027C82.6726 95.7392 82.6583 95.6763 82.63 95.6178C82.6018 95.5592 82.5602 95.5061 82.5077 95.4616C82.4084 95.3493 82.2441 95.2911 82.0135 95.2911H81.9473C81.5855 95.2911 81.2899 95.4055 81.0925 95.6036C80.8683 95.7941 80.699 96.0274 80.5983 96.2847C80.5663 96.3419 80.5663 96.3981 80.5321 96.4838C80.499 96.541 80.499 96.5972 80.4659 96.6544V96.7391C80.4328 96.7963 80.4328 96.882 80.3997 96.9658C80.3997 97.0516 80.3677 97.1373 80.3677 97.2221V97.365C80.3677 97.5632 80.4328 97.7623 80.5321 97.9328C80.6302 98.0747 80.8619 98.1595 81.1895 98.1595C81.42 98.1595 81.6175 98.1309 81.7818 98.0166C81.9462 97.9318 82.0443 97.8185 82.1436 97.7327C82.2098 97.6479 82.2749 97.5908 82.3091 97.506C82.3411 97.4488 82.3742 97.3926 82.3742 97.3641L82.3753 97.3365ZM90.1695 96.7115C89.9721 97.5346 89.5772 98.1309 88.9529 98.5291C88.3979 98.908 87.7192 99.1269 87.0126 99.1551C86.9806 99.1551 86.9464 99.1827 86.9144 99.1827H86.8163C86.2366 99.1844 85.6716 99.0251 85.2047 98.7283C84.7778 98.4444 84.5473 97.99 84.5473 97.3936C84.5473 97.2803 84.5804 97.1945 84.5804 97.0812C84.6135 96.9678 84.6135 96.8259 84.6466 96.7125C84.844 95.917 85.239 95.3207 85.8633 94.9235C86.4887 94.5262 87.113 94.2985 87.8366 94.2699H88.001C88.6253 94.2699 89.1857 94.4129 89.6126 94.6967C90.0406 95.0082 90.27 95.4626 90.27 96.06C90.27 96.1733 90.27 96.2591 90.238 96.3724C90.2301 96.4873 90.2071 96.6011 90.1695 96.7115ZM88.7223 96.7115C88.7223 96.6543 88.7554 96.6258 88.7554 96.5686V96.3981C88.7885 96.3705 88.7885 96.3409 88.7885 96.3133V96.2275C88.7885 95.9722 88.7223 95.7731 88.558 95.575C88.4267 95.4045 88.1631 95.2901 87.7693 95.2901C87.3413 95.2901 87.0126 95.4045 86.7489 95.6026C86.5184 95.8293 86.354 96.057 86.2559 96.3133C86.2228 96.3705 86.1897 96.4552 86.1577 96.5114C86.1577 96.5972 86.1246 96.6543 86.1246 96.7105C86.0915 96.7953 86.0915 96.8811 86.0584 96.9658V97.2507C86.0584 97.4774 86.1246 97.6765 86.2559 97.8756C86.3871 98.0462 86.6839 98.1309 87.0445 98.1309C87.4726 98.1309 87.8013 98.0462 88.0638 97.8194C88.2943 97.6203 88.4587 97.3926 88.558 97.1383C88.5911 97.0526 88.6242 96.9954 88.6561 96.9116C88.6892 96.8535 88.6892 96.7963 88.7223 96.7115ZM96.9445 97.6775H98.3917C98.1996 98.0295 97.9188 98.34 97.57 98.5863C97.2744 98.813 96.9445 98.956 96.5839 99.0407C96.4391 99.0966 96.2825 99.1258 96.1239 99.1265C95.9584 99.1551 95.7952 99.1837 95.6628 99.1837C95.0054 99.1837 94.4781 99.0407 94.0843 98.7864C93.6575 98.5597 93.46 98.1053 93.46 97.4804C93.46 97.367 93.4931 97.2241 93.4931 97.0821C93.5262 96.9402 93.5593 96.7983 93.5924 96.6277C93.6244 96.5144 93.6586 96.3438 93.7568 96.1457C93.823 95.9466 93.9542 95.7485 94.0855 95.5208C94.3455 95.1826 94.6811 94.8927 95.0727 94.6682C95.5007 94.4129 96.06 94.2709 96.7505 94.2709H96.9811C97.0472 94.2709 97.1454 94.2709 97.2116 94.2995C97.6065 94.3567 97.9683 94.4976 98.297 94.7253C98.6257 94.9816 98.7912 95.4074 98.7912 95.9762C98.7912 96.1181 98.7581 96.2315 98.7581 96.3734C98.725 96.5154 98.725 96.6859 98.66 96.8278L98.6269 97.0545H94.9107C94.9107 97.0821 94.8776 97.1403 94.8776 97.1965V97.5375C94.9107 97.709 95.0088 97.85 95.1401 97.9929C95.2713 98.1349 95.535 98.1911 95.8968 98.1911H96.0931C96.2586 98.1635 96.4218 98.1063 96.5873 98.0205C96.7372 97.9333 96.8599 97.8155 96.9445 97.6775ZM97.3394 96.2571V96.1438V96.058C97.3394 95.7741 97.2732 95.576 97.1089 95.4616C96.9572 95.3561 96.7755 95.2877 96.5827 95.2635H96.5165H96.4834C96.1547 95.2635 95.8911 95.3493 95.6617 95.5198C95.4323 95.6903 95.2668 95.9456 95.1355 96.2581L97.3394 96.2571ZM105.101 99.0397H103.555L104.838 93.8707H102.634L102.931 92.7352H108.851L108.588 93.8707H106.385L105.101 99.0397ZM110.988 97.6775H112.468C112.275 98.0293 111.995 98.3397 111.646 98.5863C111.316 98.813 110.988 98.956 110.659 99.0407C110.503 99.097 110.335 99.1261 110.166 99.1265C110.001 99.1551 109.87 99.1837 109.705 99.1837C109.08 99.1837 108.554 99.0407 108.159 98.7864C107.731 98.5597 107.535 98.1053 107.535 97.4804C107.535 97.367 107.535 97.2241 107.567 97.0821C107.567 96.9402 107.6 96.7983 107.666 96.6277C107.666 96.5144 107.732 96.3438 107.798 96.1457C107.896 95.9466 107.995 95.7485 108.159 95.5208C108.419 95.1826 108.755 94.8927 109.147 94.6682C109.541 94.4129 110.133 94.2709 110.823 94.2709H111.054C111.12 94.2709 111.185 94.2709 111.284 94.2995C111.646 94.3567 112.008 94.4976 112.337 94.7253C112.665 94.9816 112.83 95.4074 112.83 95.9762V96.3734C112.797 96.5154 112.763 96.6859 112.732 96.8278L112.665 97.0545H108.949V97.5375C108.975 97.7105 109.067 97.8709 109.212 97.9929C109.344 98.1349 109.573 98.1911 109.968 98.1911H110.166C110.33 98.1635 110.495 98.1063 110.659 98.0205C110.802 97.9335 110.915 97.8151 110.988 97.6775ZM111.416 96.2571V96.1438V96.058C111.416 95.7741 111.351 95.576 111.185 95.4616C111.021 95.3554 110.829 95.2872 110.626 95.2635H110.56C110.231 95.2635 109.935 95.3493 109.704 95.5198C109.469 95.7254 109.299 95.9796 109.21 96.2581L111.416 96.2571ZM116.743 97.3365H118.191C118.159 97.4498 118.092 97.5632 118.026 97.7061C117.929 97.8729 117.818 98.0339 117.696 98.1881C117.435 98.4574 117.124 98.6875 116.775 98.8692C116.38 99.0683 115.887 99.1817 115.262 99.1817C114.473 99.1817 113.947 99.0112 113.683 98.6425C113.402 98.3243 113.251 97.9341 113.255 97.5336C113.255 97.4212 113.288 97.3069 113.288 97.1925C113.288 97.0782 113.32 96.9658 113.354 96.8515C113.551 96.0856 113.88 95.4883 114.406 95.0053C114.932 94.4937 115.656 94.267 116.576 94.267H116.905C117.004 94.2956 117.103 94.2956 117.201 94.3241C117.563 94.4099 117.858 94.5509 118.122 94.751C118.419 94.9777 118.55 95.2901 118.55 95.7455V95.8875C118.55 95.9446 118.55 96.0008 118.518 96.058H117.071V96.0304V96.0018V95.917V95.8027C117.046 95.6745 116.977 95.5557 116.873 95.4616C116.775 95.3493 116.611 95.2911 116.379 95.2911H116.347H116.314C115.952 95.2911 115.689 95.4055 115.458 95.6036C115.255 95.8027 115.099 96.034 114.998 96.2847C114.965 96.3419 114.932 96.3981 114.9 96.4838C114.9 96.541 114.867 96.5972 114.867 96.6544C114.867 96.6544 114.867 96.6829 114.834 96.6829V96.7391C114.834 96.7963 114.801 96.882 114.801 96.9658C114.768 97.0516 114.768 97.1373 114.768 97.2221C114.768 97.2507 114.735 97.2793 114.735 97.3069V97.365C114.735 97.5632 114.801 97.7623 114.932 97.9328C115.03 98.0747 115.261 98.1595 115.589 98.1595C115.82 98.1595 115.984 98.1309 116.149 98.0166C116.313 97.9318 116.444 97.8185 116.544 97.7327C116.6 97.6633 116.645 97.5869 116.675 97.506C116.708 97.4488 116.741 97.3926 116.741 97.3641V97.3365H116.743ZM124.439 95.8303L123.651 99.0397H122.237L122.927 96.1999C122.96 96.1714 122.96 96.1428 122.96 96.0866C122.992 96.0294 122.992 95.9732 122.992 95.9161V95.8875V95.8303C122.982 95.6956 122.925 95.5667 122.828 95.4607C122.729 95.3483 122.531 95.2901 122.235 95.2901C121.94 95.2901 121.643 95.4045 121.381 95.575C121.118 95.7455 120.953 96.0294 120.854 96.3705L120.197 99.0397H118.783L119.933 94.3813H121.282L121.118 95.0624H121.151C121.184 95.0348 121.217 94.9777 121.282 94.9205L121.48 94.75C121.667 94.6236 121.865 94.5095 122.072 94.4089C122.303 94.3232 122.598 94.266 122.96 94.266C123.42 94.266 123.782 94.3517 124.078 94.5499C124.374 94.749 124.506 95.0329 124.506 95.4311C124.506 95.4883 124.506 95.5444 124.472 95.6302C124.472 95.6893 124.472 95.7465 124.439 95.8303ZM130.754 96.7115C130.557 97.5346 130.162 98.1309 129.571 98.5291C128.945 98.9264 128.288 99.1255 127.597 99.1551C127.564 99.1551 127.531 99.1827 127.499 99.1827H127.401C126.831 99.1892 126.274 99.0291 125.823 98.7283C125.363 98.4444 125.165 97.99 125.165 97.3936V97.0812C125.203 96.9607 125.225 96.8371 125.231 96.7125C125.429 95.917 125.856 95.3207 126.448 94.9235C127.072 94.5262 127.731 94.2985 128.422 94.2699H128.618C129.243 94.2699 129.769 94.4129 130.196 94.6967C130.624 95.0082 130.854 95.4626 130.854 96.06C130.854 96.1733 130.854 96.2591 130.821 96.3724C130.814 96.4873 130.792 96.6011 130.754 96.7115ZM129.307 96.7115C129.307 96.6543 129.34 96.6258 129.34 96.5686V96.3981C129.372 96.3705 129.372 96.3409 129.372 96.3133V96.2275C129.372 95.9722 129.307 95.7731 129.142 95.575C129.01 95.4045 128.747 95.2901 128.353 95.2901C127.925 95.2901 127.596 95.4045 127.367 95.6026C127.104 95.8293 126.939 96.057 126.841 96.3133C126.804 96.3749 126.781 96.4422 126.775 96.5114C126.741 96.5972 126.708 96.6543 126.708 96.7105C126.675 96.7953 126.675 96.8811 126.643 96.9658V97.2507C126.643 97.4774 126.708 97.6765 126.841 97.8756C127.005 98.0462 127.268 98.1309 127.663 98.1309C128.091 98.1309 128.419 98.0462 128.65 97.8194C128.88 97.6203 129.045 97.3926 129.176 97.1383C129.209 97.0526 129.209 96.9954 129.242 96.9116C129.274 96.8535 129.274 96.7963 129.307 96.7115ZM132.629 99.0397H131.214L132.793 92.7352H134.207L132.629 99.0397ZM139.8 96.7115C139.601 97.5346 139.206 98.1309 138.583 98.5291C137.956 98.9264 137.299 99.1255 136.609 99.1551C136.576 99.1551 136.542 99.1827 136.51 99.1827H136.411C135.787 99.1827 135.26 99.0122 134.832 98.7283C134.404 98.4444 134.175 97.99 134.175 97.3936C134.175 97.2803 134.175 97.1945 134.208 97.0812C134.208 96.9678 134.241 96.8259 134.274 96.7125C134.472 95.917 134.867 95.3207 135.491 94.9235C136.083 94.5262 136.74 94.2985 137.431 94.2699H137.63C138.254 94.2699 138.78 94.4129 139.208 94.6967C139.669 95.0082 139.866 95.4626 139.866 96.06V96.3724C139.866 96.4858 139.83 96.5982 139.8 96.7115ZM138.319 96.7115C138.35 96.6543 138.35 96.6258 138.35 96.5686C138.383 96.5114 138.383 96.4552 138.383 96.3981V96.3133V96.2275C138.383 95.9722 138.318 95.7731 138.187 95.575C138.056 95.4045 137.792 95.2901 137.364 95.2901C136.936 95.2901 136.607 95.4045 136.377 95.6026C136.146 95.8293 135.982 96.057 135.851 96.3133C135.844 96.3825 135.822 96.4499 135.784 96.5114C135.752 96.5972 135.752 96.6543 135.719 96.7105C135.719 96.7953 135.686 96.8811 135.686 96.9658C135.654 97.0516 135.654 97.1373 135.654 97.2507C135.654 97.4774 135.72 97.6765 135.884 97.8756C136.015 98.0462 136.279 98.1309 136.672 98.1309C137.1 98.1309 137.429 98.0462 137.661 97.8194C137.923 97.6203 138.086 97.3926 138.187 97.1383C138.218 97.0526 138.252 96.9954 138.285 96.9116C138.286 96.8535 138.319 96.7963 138.319 96.7115ZM138.188 93.7574H137.166L138.417 92.4789H139.996L138.188 93.7574ZM146.311 94.3823L145.225 98.813C145.192 98.9264 145.158 99.0398 145.127 99.1827C145.094 99.296 145.029 99.439 144.962 99.5799C144.796 99.921 144.469 100.233 144.041 100.517C143.613 100.801 142.922 100.944 141.968 100.944C141.442 100.944 140.983 100.858 140.555 100.659C140.16 100.49 139.931 100.177 139.931 99.7504V99.6371C139.931 99.6095 139.962 99.5799 139.962 99.5523H141.508C141.508 99.6657 141.541 99.779 141.639 99.8638C141.704 99.9771 141.967 100.007 142.362 100.007C142.757 100.007 143.052 99.9495 143.285 99.78C143.515 99.6095 143.68 99.3256 143.778 98.956L143.909 98.3882L143.876 98.3596C143.745 98.5587 143.516 98.7292 143.285 98.8712C143.023 99.0141 142.692 99.0703 142.264 99.0703C141.738 99.0703 141.31 98.9274 140.949 98.6731C140.619 98.3892 140.456 97.9919 140.456 97.4232V97.0812C140.487 96.9392 140.521 96.7973 140.554 96.6849C140.719 95.918 141.08 95.3503 141.573 94.952C142.069 94.5538 142.595 94.3261 143.152 94.2699H143.383C143.744 94.2699 144.008 94.3271 144.206 94.4405C144.403 94.5262 144.534 94.6672 144.632 94.7815C144.665 94.8387 144.699 94.8949 144.699 94.953C144.732 95.0092 144.732 95.0378 144.764 95.095L144.797 95.0664L144.963 94.3853H146.311V94.3823ZM142.002 96.7391C141.969 96.7677 141.969 96.8249 141.969 96.8525C141.938 96.8811 141.938 96.9382 141.938 96.9658V97.1925C141.938 97.4202 142.003 97.6194 142.135 97.7889C142.266 97.9584 142.465 98.0452 142.792 98.0452C143.22 98.0452 143.581 97.9318 143.814 97.6755C144.043 97.4202 144.209 97.164 144.272 96.8801C144.306 96.8515 144.306 96.8229 144.306 96.7943C144.339 96.7371 144.339 96.7095 144.339 96.6819C144.369 96.6238 144.369 96.539 144.369 96.4828V96.2561C144.369 95.9998 144.304 95.7731 144.173 95.6026C144.008 95.4045 143.778 95.3187 143.448 95.3187C143.383 95.3187 143.317 95.3187 143.252 95.3473C143.171 95.3481 143.092 95.3678 143.023 95.4045C142.824 95.4607 142.625 95.6026 142.429 95.8303C142.232 96.0304 142.069 96.3419 142.002 96.7391ZM149.04 94.3823L147.889 99.0407H146.442L147.593 94.3823H149.04ZM149.171 93.8145H147.724L148.021 92.679H149.434L149.171 93.8145ZM152.855 97.3365H154.303C154.269 97.4498 154.204 97.5632 154.137 97.7061C154.04 97.8728 153.931 98.0339 153.809 98.1881C153.578 98.4158 153.283 98.6711 152.888 98.8692C152.491 99.0683 151.999 99.1817 151.375 99.1817C150.586 99.1817 150.06 99.0112 149.797 98.6425C149.515 98.3245 149.364 97.9341 149.369 97.5336C149.369 97.4212 149.402 97.3069 149.402 97.1925C149.402 97.0782 149.432 96.9658 149.467 96.8515C149.665 96.0856 149.993 95.4883 150.519 95.0053C151.045 94.4937 151.77 94.267 152.69 94.267H153.02C153.118 94.2956 153.216 94.2956 153.314 94.3241C153.677 94.4099 153.972 94.5509 154.235 94.751C154.532 94.9777 154.663 95.2901 154.663 95.7455V95.8875C154.663 95.9446 154.663 96.0008 154.632 96.058H153.183V96.0304V96.0018V95.917V95.8027C153.159 95.6745 153.091 95.5555 152.987 95.4616C152.888 95.3493 152.724 95.2911 152.491 95.2911H152.46H152.427C152.067 95.2911 151.803 95.4055 151.571 95.6036C151.357 95.7956 151.2 96.0292 151.112 96.2847C151.079 96.3419 151.045 96.3981 151.014 96.4838C151.014 96.541 150.981 96.5972 150.981 96.6544L150.948 96.6829V96.7391C150.948 96.7963 150.915 96.882 150.915 96.9658C150.884 97.0516 150.884 97.1373 150.884 97.2221C150.884 97.2507 150.851 97.2793 150.851 97.3069V97.365C150.851 97.5632 150.916 97.7623 151.047 97.9328C151.148 98.0747 151.377 98.1595 151.705 98.1595C151.937 98.1595 152.102 98.1309 152.264 98.0166C152.43 97.9318 152.561 97.8185 152.659 97.7327C152.717 97.664 152.761 97.5874 152.79 97.506C152.823 97.4488 152.858 97.3926 152.858 97.3641V97.3365H152.855ZM160.683 96.7115C160.486 97.5346 160.058 98.1309 159.466 98.5291C158.896 98.9045 158.208 99.1227 157.493 99.1551C157.459 99.1551 157.428 99.1827 157.394 99.1827H157.296C156.67 99.1827 156.144 99.0122 155.716 98.7283C155.29 98.4444 155.058 97.99 155.058 97.3936C155.058 97.2803 155.058 97.1945 155.091 97.0812C155.091 96.9678 155.124 96.8259 155.159 96.7125C155.355 95.917 155.75 95.3207 156.342 94.9235C156.966 94.5262 157.624 94.2985 158.315 94.2699H158.514C159.138 94.2699 159.665 94.4129 160.093 94.6967C160.551 95.0082 160.75 95.4626 160.75 96.06V96.3724C160.716 96.4848 160.716 96.5982 160.683 96.7115ZM159.202 96.7115C159.235 96.6543 159.235 96.6258 159.235 96.5686C159.268 96.5114 159.268 96.4552 159.268 96.3981V96.3133V96.2275C159.268 95.9722 159.201 95.7731 159.07 95.575C158.939 95.4045 158.642 95.2901 158.247 95.2901C157.821 95.2901 157.491 95.4045 157.262 95.6026C157.033 95.8293 156.834 96.057 156.736 96.3133C156.703 96.3705 156.703 96.4552 156.669 96.5114C156.635 96.5972 156.635 96.6543 156.603 96.7105C156.603 96.7953 156.57 96.8811 156.57 96.9658C156.537 97.0516 156.537 97.1373 156.537 97.2507C156.537 97.4774 156.605 97.6765 156.769 97.8756C156.898 98.0462 157.164 98.1309 157.558 98.1309C157.983 98.1309 158.313 98.0462 158.543 97.8194C158.774 97.6203 158.971 97.3926 159.069 97.1383C159.102 97.0526 159.136 96.9954 159.169 96.9116C159.171 96.8535 159.202 96.7963 159.202 96.7115ZM100.168 57.315C100.168 56.2928 100.234 55.1277 100.43 53.8492C100.628 52.5718 100.924 51.2647 101.384 49.9863C102.47 47.0321 104.476 44.3343 107.403 41.8345C110.329 39.3634 114.802 38.0849 120.821 37.9716C121.512 37.9716 122.269 38.0001 123.057 38.0287C123.88 38.0859 124.67 38.1421 125.492 38.2554C127.827 38.5403 129.998 39.1928 131.937 40.1864C133.91 41.2086 134.897 42.8557 134.897 45.1287C134.897 45.4698 134.864 45.8384 134.831 46.2081C134.765 46.5777 134.7 46.9474 134.569 47.3446L124.439 47.316C124.472 47.1741 124.506 47.0321 124.506 46.8902C124.539 46.7473 124.539 46.6339 124.539 46.5206C124.539 45.5556 124.21 44.8734 123.586 44.419C122.961 43.9646 122.27 43.6522 121.546 43.5102C121.158 43.4261 120.762 43.3694 120.363 43.3407C120.001 43.3121 119.672 43.3121 119.375 43.3121C119.113 43.3121 118.849 43.3121 118.552 43.3693C118.29 43.3979 117.993 43.454 117.731 43.5112C116.35 43.8808 115.001 44.7897 113.718 46.2101C112.435 47.659 111.416 49.8177 110.692 52.6861C110.626 52.9138 110.561 53.1691 110.528 53.3968C110.495 53.6245 110.429 53.8798 110.396 54.1065C110.332 54.5992 110.267 55.0918 110.199 55.5841C110.166 56.0671 110.133 56.5215 110.133 56.9759C110.133 58.4811 110.495 59.7595 111.185 60.8389C111.876 61.8896 113.158 62.4288 115.066 62.4288H115.56C115.757 62.4288 115.92 62.4012 116.118 62.3716C116.438 62.3704 116.758 62.342 117.072 62.2869C117.368 62.2011 117.729 62.1163 118.091 61.9744C118.979 61.6333 119.802 61.1227 120.591 60.413C121.347 59.7023 121.807 58.9079 121.907 57.9981L131.674 57.9695C131.707 58.0543 131.741 58.1124 131.741 58.1972C131.741 58.2544 131.774 58.3105 131.774 58.3953C131.774 58.8783 131.576 59.5318 131.148 60.3845C130.753 61.2361 130.128 62.1173 129.241 63.0537C127.958 64.3894 126.083 65.5821 123.683 66.6614C121.282 67.7407 118.191 68.3085 114.375 68.3085H113.586C108.423 68.3085 104.97 67.3721 103.226 65.5535C101.484 63.7358 100.496 61.6905 100.233 59.4747C100.2 59.1336 100.2 58.7649 100.167 58.4239L100.168 57.315ZM140.785 38.8814H154.171L159.96 59.5023L165.386 38.8814H174.102L166.866 67.654H153.811L147.627 45.7547L142.562 67.654H133.878L140.785 38.8814ZM179.562 38.8814H195.117C195.512 38.909 195.906 38.9385 196.334 38.9385C196.728 38.9671 197.122 38.9947 197.517 38.9947C199.815 39.1192 202.057 39.6613 204.096 40.5856C206.102 41.523 207.089 43.2559 207.089 45.8118C207.089 50.0159 205.543 53.0548 202.451 54.901C199.328 56.7472 195.676 57.6846 191.501 57.6846L184.627 57.656L182.094 67.655H172.655L179.562 38.8814ZM191.171 52.004C192.553 52.0326 193.737 51.663 194.789 50.8961C195.808 50.1578 196.466 49.3347 196.728 48.4249C196.796 48.2544 196.829 48.1125 196.86 47.9419C196.9 47.7832 196.923 47.6215 196.927 47.4589C196.927 46.7482 196.597 46.1529 195.94 45.6127C195.282 45.1011 194.165 44.8458 192.585 44.8458L187.882 44.8182L186.074 52.004H191.171ZM207.089 60.1558C207.12 59.588 207.188 59.0193 207.255 58.3943C207.353 57.798 207.484 57.173 207.65 56.5205C208.274 54.1627 209.556 51.9468 211.497 49.9301C213.436 47.9134 216.43 46.8626 220.474 46.7206C221.691 46.7206 222.777 47.0045 223.731 47.5723C224.652 48.1401 225.441 48.765 226.035 49.4185C226.166 49.5605 226.264 49.6738 226.362 49.7882C226.463 49.9301 226.561 50.0434 226.625 50.1864L227.382 47.6295H236.065L229.158 75.4943H220.474L223.009 64.8428C222.382 65.4677 221.823 66.0069 221.297 66.4041C220.74 66.8309 220.211 67.1434 219.685 67.4273C219.001 67.7374 218.272 67.9665 217.517 68.1084C216.792 68.2218 215.97 68.3065 215.049 68.3065C212.254 68.3065 210.346 67.7388 209.263 66.6594C208.208 65.5515 207.551 64.3302 207.321 62.9956C207.219 62.5168 207.153 62.0328 207.123 61.5466C207.092 61.0636 207.092 60.6092 207.092 60.1834V60.1558H207.089ZM216.461 57.9685C216.396 58.1676 216.363 58.3943 216.298 58.5934C216.265 58.8201 216.23 59.0193 216.197 59.1898C216.167 59.4165 216.132 59.6156 216.132 59.8147C216.099 60.0138 216.099 60.2129 216.099 60.4396C216.099 61.2913 216.298 62.0592 216.726 62.6831C217.152 63.3366 217.909 63.6481 218.995 63.6481C220.229 63.6589 221.423 63.2744 222.348 62.5688C223.271 61.8581 224.091 60.3253 224.816 57.9951C224.947 57.6265 225.078 57.1997 225.145 56.7176C225.211 56.2061 225.277 55.7241 225.277 55.2125C225.274 54.3168 225.038 53.4331 224.586 52.627C224.125 51.8315 223.204 51.4343 221.889 51.4343C220.706 51.4343 219.718 51.8601 218.996 52.6556C218.239 53.4508 217.649 54.3542 217.253 55.3248C217.055 55.8078 216.858 56.2908 216.758 56.7452C216.638 57.158 216.539 57.575 216.461 57.9951V57.9685Z" fill="black"/>
</g>
</g>
<defs>
<clipPath id="clip0_107_71">
<rect width="272" height="127.469" fill="white" transform="translate(0 0.462646)"/>
</clipPath>
<clipPath id="clip1_107_71">
<rect width="220" height="190" fill="white" transform="translate(26 -31.0581)"/>
</clipPath>
</defs>
</svg>
