<svg width="272" height="128" viewBox="0 0 272 128" fill="none" xmlns="http://www.w3.org/2000/svg">
<g clip-path="url(#clip0_107_85)">
<g clip-path="url(#clip1_107_85)">
<mask id="mask0_107_85" style="mask-type:luminance" maskUnits="userSpaceOnUse" x="42" y="-8" width="230" height="163">
<path d="M42 -7.53736H272V154.992H42V-7.53736Z" fill="white"/>
</mask>
<g mask="url(#mask0_107_85)">
<path fill-rule="evenodd" clip-rule="evenodd" d="M237.954 70.4581H250.667C251.313 70.4581 251.936 70.3694 252.542 70.1964C253.644 69.8738 254.5 69.3568 255.118 68.6501C255.947 67.7711 256.364 66.2466 256.376 64.0881V51.5033C256.42 50.0458 256.726 48.9496 257.305 48.2096H246.984C247.563 48.9496 247.869 50.0458 247.913 51.5033V64.1826C247.913 65.1504 247.818 65.7961 247.635 66.1242C247.301 66.5804 246.656 66.803 245.716 66.7918H240.987C239.268 66.8142 238.038 66.5637 237.287 66.0406L237.954 70.4581ZM221.887 57.3061H226.616C227.34 57.3061 227.829 57.167 228.08 56.8832C228.263 56.5997 228.357 56.0932 228.357 55.3644V54.2573C228.357 53.1999 228.263 52.5435 228.08 52.2818C227.829 51.9983 227.267 51.865 226.388 51.8759H221.887V57.3061ZM224.496 60.9724H221.887V67.1647C221.932 68.6113 222.238 69.7069 222.816 70.4581H212.496C213.075 69.6848 213.381 68.5889 213.425 67.1647V51.5033C213.381 50.0794 213.075 48.9829 212.496 48.2096H230.8C232.235 48.2096 233.343 48.3322 234.11 48.5827C235.807 49.2167 236.675 50.6298 236.72 52.8219V57.6175C236.72 58.6246 236.592 59.3589 236.33 59.8153C235.863 60.6107 235.106 61.0057 234.06 61.0057C233.899 61.0057 233.693 60.9945 233.443 60.9724L236.492 67.4261C237.026 68.5889 237.593 69.6015 238.205 70.4581H228.424L224.496 60.9724ZM199.656 51.8759V57.2725H206.471C207.828 57.2725 208.88 57.1058 209.631 56.7663V61.5231C209.186 61.156 208.346 60.9612 207.105 60.9391H199.656V66.7918H207.901C208.652 66.7918 209.709 66.5358 211.066 66.0239L210.332 70.4581H190.264C190.843 69.6848 191.149 68.5889 191.193 67.1647V51.5033C191.149 50.0794 190.843 48.9829 190.264 48.2096H209.859L210.51 52.3824C209.709 52.0988 209.002 51.9429 208.39 51.9095C208.012 51.8871 207.411 51.8759 206.582 51.8759H199.656ZM173.59 58.8027H177.863C178.848 58.8139 179.488 58.6191 179.783 58.2184C179.966 57.9234 180.061 57.2561 180.061 56.2099V54.4688C180.061 53.5007 179.966 52.8219 179.783 52.4326C179.61 52.1264 179.338 51.9541 178.97 51.9095C178.903 51.8871 178.681 51.8759 178.303 51.8759H173.59V58.8027ZM173.59 62.469V67.148C173.635 68.6056 173.947 69.7069 174.536 70.4581H164.299C164.878 69.6848 165.184 68.5832 165.228 67.148V51.5033C165.184 50.0794 164.878 48.9829 164.299 48.2096H182.503C183.939 48.2096 185.04 48.3322 185.797 48.5827C187.494 49.2167 188.361 50.6243 188.406 52.8219V57.8734C188.373 59.4258 187.905 60.5941 187.004 61.3786C186.42 61.8905 185.619 62.2186 184.606 62.3688C184.206 62.4354 183.505 62.469 182.503 62.469H173.59ZM149.923 60.8388H143.959L147.069 53.9457L149.923 60.8388ZM144.299 48.2096C144.671 48.5879 144.966 49.0274 145.194 49.5281L137.339 66.269C136.549 67.9658 135.664 69.3622 134.685 70.4581H140.927C140.643 69.8629 140.504 69.3843 140.504 69.0227C140.504 68.5777 140.632 68.0603 140.894 67.4761L142.279 64.4273H151.425L152.449 66.8085C152.822 67.643 153.005 68.3717 153.005 68.9894C153.005 69.5346 152.822 70.0244 152.449 70.4581H163.648C162.92 69.6627 162.341 68.7894 161.918 67.8323L154.113 48.2096H144.299ZM125.689 51.8759V57.2391H133.088C134.089 57.2503 135.041 57.0668 135.942 56.683V61.5731C135.302 61.2671 134.741 61.0839 134.262 61.0227C133.773 60.9445 133.138 60.9058 132.354 60.9058H125.689V67.148C125.733 68.6168 126.039 69.7181 126.618 70.4581H116.298C116.876 69.6848 117.182 68.5832 117.226 67.148V51.5033C117.182 50.0794 116.876 48.9829 116.298 48.2096H135.781L136.465 52.416C135.759 52.1431 135.119 51.9874 134.54 51.9429C134.062 51.9095 133.155 51.8871 131.819 51.8759H125.689Z" fill="#231F20"/>
<path fill-rule="evenodd" clip-rule="evenodd" d="M75.0316 63.3134L77.9252 59.4151C84.2504 59.4151 92.4471 54.8233 97.1894 48.4387L101.119 48.4486C94.9514 56.7521 83.3569 63.3134 75.0316 63.3134Z" fill="#231F20"/>
<path fill-rule="evenodd" clip-rule="evenodd" d="M97.3447 33.2804L94.4575 37.1653C88.2852 37.1653 79.5809 42.2212 74.9555 48.4484L70.9953 48.4426C77.3809 39.8458 88.7156 33.2804 97.3447 33.2804Z" fill="#231F20"/>
<path fill-rule="evenodd" clip-rule="evenodd" d="M100.281 29.3218C110.54 29.3218 112.652 38.1828 105.036 48.4465L101.137 48.4484C107.395 40.0222 105.847 33.2591 97.3566 33.2591L100.281 29.3218Z" fill="#231F20"/>
<path fill-rule="evenodd" clip-rule="evenodd" d="M72.1189 67.2428C61.9587 67.2428 59.2823 58.7954 66.9583 48.4505H70.9779C64.7223 56.8726 66.4667 63.4066 74.9663 63.4066L72.1189 67.2428Z" fill="#231F20"/>
<path fill-rule="evenodd" clip-rule="evenodd" d="M103.115 25.5089L100.279 29.3274C89.9505 29.4482 74.2807 38.2567 66.9562 48.4639L63.0397 48.46C72.4648 35.7704 90.9079 25.5089 103.115 25.5089Z" fill="#231F20"/>
<path fill-rule="evenodd" clip-rule="evenodd" d="M69.3023 71.1432L72.1131 67.2427C82.3809 67.1242 97.7204 58.6576 105.048 48.4464H108.956C99.7524 60.8369 81.6431 71.1432 69.3023 71.1432Z" fill="#231F20"/>
<path fill-rule="evenodd" clip-rule="evenodd" d="M112.86 48.4425L108.939 48.4445C118.024 36.2132 115.558 25.4895 103.122 25.4895L106.081 21.5077C120.734 21.5077 123.643 33.9252 112.86 48.4425Z" fill="#231F20"/>
<path fill-rule="evenodd" clip-rule="evenodd" d="M63.4351 78.9263L66.3033 75.0646C80.9006 75.0646 101.604 63.6026 112.864 48.4425L116.843 48.4444C103.972 65.7723 80.6873 78.9263 63.4351 78.9263Z" fill="#231F20"/>
<path fill-rule="evenodd" clip-rule="evenodd" d="M74.954 48.4348L78.9467 48.431C75.1924 53.2189 75.7797 55.34 80.8523 55.5905L77.9202 59.4188C69.7953 59.4188 70.7664 54.0695 74.954 48.4348Z" fill="#231F20"/>
<path fill-rule="evenodd" clip-rule="evenodd" d="M97.2252 48.4484L93.1855 48.4465C96.2514 44.3187 95.851 41.1334 91.5118 41.1334L94.4535 37.165C99.9746 37.2524 102.663 40.9895 97.2252 48.4484Z" fill="#231F20"/>
<path fill-rule="evenodd" clip-rule="evenodd" d="M108.93 17.6773L106.091 21.5095C90.9049 21.4106 70.0219 33.6979 59.063 48.4523H55.1771C67.8211 31.4293 92.015 17.6773 108.93 17.6773Z" fill="#231F20"/>
<path fill-rule="evenodd" clip-rule="evenodd" d="M59.085 48.4386L63.0827 48.431C53.7887 60.9436 56.6651 71.1333 69.2214 71.1333L66.2868 75.0842C51.5308 75.0842 48.2474 63.0297 59.085 48.4386Z" fill="#231F20"/>
<path fill-rule="evenodd" clip-rule="evenodd" d="M205.763 86.0716H206.23C206.414 86.0684 206.54 86.0244 206.608 85.9378C206.664 85.861 206.692 85.7204 206.692 85.5182V83.9547C206.692 83.8025 206.685 83.7075 206.671 83.6676C206.638 83.5875 206.591 83.5321 206.532 83.5009C206.472 83.4709 206.381 83.4556 206.259 83.4556H205.692C205.533 83.4556 205.423 83.4928 205.362 83.5679C205.293 83.652 205.258 83.7741 205.258 83.9347V85.622C205.261 85.7938 205.304 85.9138 205.388 85.9804C205.466 86.0386 205.59 86.0684 205.763 86.0716ZM208.751 81.1796V85.8097C208.753 86.1511 208.765 86.379 208.784 86.4929C208.797 86.6095 208.843 86.7343 208.921 86.8682H206.971L206.88 86.4885C206.785 86.645 206.682 86.7444 206.571 86.7884C206.435 86.8411 206.247 86.8682 206.008 86.8682H204.546C204.12 86.8654 203.827 86.8015 203.666 86.6762C203.459 86.5213 203.325 86.3303 203.267 86.1058C203.223 85.9334 203.2 85.7785 203.2 85.642V83.8227C203.194 83.4914 203.285 83.218 203.47 83.0002C203.688 82.7642 203.965 82.6506 204.304 82.6591H205.992C206.331 82.6618 206.564 82.7924 206.692 83.0513V82.2379C206.689 81.8934 206.678 81.6659 206.659 81.555C206.645 81.4411 206.6 81.3159 206.521 81.1796H208.751ZM196.79 83.9263V85.5764C196.79 85.7674 196.83 85.9007 196.911 85.976C196.986 86.0375 197.111 86.0684 197.287 86.0716H197.898C198.09 86.0684 198.222 86.0233 198.29 85.9334C198.348 85.8512 198.378 85.7234 198.378 85.551V83.9844C198.375 83.7984 198.344 83.6703 198.282 83.6007C198.193 83.5067 198.036 83.4581 197.812 83.4556H197.287C196.949 83.4556 196.784 83.6119 196.79 83.9263ZM196.157 82.6591H198.874C199.26 82.6591 199.548 82.6886 199.74 82.747C200.221 82.9377 200.454 83.3515 200.436 83.9888V85.6676C200.444 86.5125 199.972 86.9122 199.019 86.8682H196.345C195.922 86.8682 195.631 86.8455 195.469 86.8015C195.348 86.7688 195.231 86.7043 195.118 86.6095C195.008 86.5153 194.922 86.4074 194.861 86.285C194.775 86.1102 194.731 85.8862 194.731 85.6177V83.8268C194.729 83.4015 194.897 83.074 195.235 82.8462C195.4 82.7416 195.589 82.6801 195.807 82.6629C195.868 82.6602 195.985 82.6591 196.157 82.6591ZM190.455 81.1796V82.9134C190.555 82.7416 190.727 82.6558 190.969 82.6591H192.593C192.878 82.6591 193.101 82.6886 193.265 82.747C193.737 82.9377 193.972 83.3332 193.969 83.9306V85.8097C193.972 86.1511 193.983 86.379 194.002 86.4929C194.016 86.6095 194.061 86.7343 194.14 86.8682H191.74C191.818 86.7343 191.864 86.6095 191.878 86.4929C191.896 86.3759 191.908 86.1481 191.91 85.8097V83.9547C191.933 83.6302 191.775 83.4638 191.44 83.4556H190.876C190.716 83.4556 190.602 83.4979 190.535 83.5848C190.482 83.6575 190.455 83.7684 190.455 83.9178V85.8097C190.458 86.1571 190.47 86.3847 190.488 86.4929C190.502 86.6062 190.548 86.7319 190.626 86.8682H188.226C188.304 86.7343 188.35 86.6095 188.364 86.4929C188.382 86.379 188.394 86.1511 188.397 85.8097V82.2379C188.394 81.8967 188.382 81.6689 188.364 81.555C188.35 81.4383 188.304 81.3129 188.226 81.1796H190.455ZM187.542 81.1796V85.8097C187.545 86.1511 187.556 86.379 187.575 86.4929C187.589 86.6095 187.634 86.7343 187.712 86.8682H185.313C185.391 86.7343 185.436 86.6095 185.451 86.4929C185.469 86.379 185.48 86.1511 185.484 85.8097V82.2379C185.48 81.8967 185.469 81.6689 185.451 81.555C185.436 81.4383 185.391 81.3129 185.313 81.1796H187.542ZM184.587 82.6591V85.8097C184.59 86.1511 184.601 86.379 184.62 86.4929C184.634 86.6095 184.679 86.7343 184.758 86.8682H182.358C182.436 86.7343 182.482 86.6095 182.496 86.4929C182.515 86.379 182.526 86.1511 182.529 85.8097V83.7173C182.526 83.3788 182.515 83.151 182.496 83.0344C182.482 82.9178 182.436 82.7924 182.358 82.6591H184.587ZM184.587 82.2417H182.529V81.1794H184.587V82.2417ZM179.203 82.1166V83.4881H181.094C181.351 83.4914 181.594 83.4441 181.824 83.3458V84.5963C181.661 84.5182 181.517 84.4715 181.395 84.4554C181.27 84.4357 181.107 84.4259 180.907 84.4259H179.203V86.0219C179.214 86.3973 179.292 86.6792 179.44 86.8682H176.801C176.949 86.6704 177.028 86.3888 177.039 86.0219V82.0215C177.028 81.6574 176.949 81.3769 176.801 81.1796H181.783L181.958 82.2545C181.777 82.1851 181.614 82.1455 181.466 82.1341C181.344 82.1253 181.112 82.1196 180.77 82.1166H179.203ZM173.909 82.6591L174.11 83.7173C173.958 83.6034 173.822 83.5337 173.706 83.505C173.563 83.4725 173.353 83.4556 173.071 83.4556H171.322C171.152 83.4581 171.056 83.4652 171.034 83.4769C170.979 83.504 170.95 83.5594 170.95 83.6433C170.95 83.743 170.996 83.8052 171.088 83.8296C171.127 83.838 171.199 83.8424 171.305 83.8424H172.922C173.77 83.8012 174.187 84.1909 174.173 85.0134V85.6133C174.173 86.0588 174.023 86.3915 173.726 86.6133C173.615 86.6945 173.513 86.7502 173.419 86.783C173.323 86.8141 173.191 86.8384 173.022 86.851C172.849 86.8624 172.724 86.8682 172.647 86.8682H169.045L168.858 85.7881C169.065 85.8963 169.232 85.9703 169.354 86.0088C169.506 86.0501 169.737 86.0716 170.045 86.0716H171.846C171.971 86.0716 172.06 86.0615 172.11 86.043C172.185 86.0088 172.222 85.9405 172.222 85.8384C172.222 85.7329 172.189 85.6646 172.123 85.6346C172.086 85.6207 172.009 85.6133 171.892 85.6133H170.067C169.811 85.6133 169.611 85.5805 169.471 85.5141C169.148 85.336 168.983 85.0003 168.974 84.5095V83.8424C168.974 83.5154 169.071 83.248 169.266 83.0426C169.371 82.9306 169.488 82.8478 169.616 82.7924C169.744 82.7369 169.91 82.6973 170.117 82.6757C170.236 82.6643 170.425 82.6591 170.683 82.6591H173.909ZM166.145 84.8266H165.153C164.956 84.8296 164.822 84.8752 164.754 84.9648C164.698 85.0416 164.67 85.174 164.67 85.3603V85.5423C164.67 85.7256 164.698 85.8569 164.754 85.9334C164.822 86.0233 164.956 86.0684 165.153 86.0716H165.657C165.857 86.0684 165.991 86.0233 166.057 85.9334C166.115 85.8569 166.145 85.7256 166.145 85.5423V84.8266ZM162.944 82.6591H166.778C167.072 82.6558 167.303 82.6831 167.47 82.7388C167.594 82.7825 167.715 82.8593 167.832 82.9677C167.949 83.0756 168.039 83.1936 168.099 83.3218C168.169 83.4682 168.203 83.649 168.203 83.864V85.8143C168.206 86.1525 168.217 86.379 168.236 86.4929C168.25 86.6095 168.296 86.7343 168.374 86.8682H166.329C166.267 86.7543 166.226 86.6051 166.203 86.4213C166.165 86.5781 166.067 86.6988 165.911 86.784C165.845 86.8269 165.69 86.854 165.445 86.8682H163.908C163.66 86.8682 163.465 86.8523 163.324 86.8228C163.082 86.7641 162.903 86.6434 162.786 86.4612C162.67 86.2793 162.611 86.0304 162.611 85.713V85.0017C162.614 84.6406 162.739 84.3729 162.987 84.2008C163.112 84.1156 163.253 84.0628 163.411 84.0473C163.515 84.0358 163.604 84.0303 163.682 84.0303H165.642C165.818 84.0273 165.933 84.0172 165.987 84.0003C166.087 83.9648 166.137 83.8738 166.137 83.7258C166.137 83.6149 166.102 83.5408 166.032 83.5009C165.974 83.4709 165.859 83.4556 165.687 83.4556H163.687C163.342 83.4496 163.048 83.5165 162.803 83.6561L162.944 82.6591ZM159.895 85.5791V83.9506C159.895 83.7869 159.886 83.6831 159.869 83.6389C159.836 83.5692 159.789 83.5212 159.73 83.4952C159.67 83.4682 159.574 83.4556 159.445 83.4556H158.845C158.711 83.4556 158.627 83.4638 158.59 83.4813C158.512 83.5111 158.462 83.5793 158.441 83.6845C158.429 83.7228 158.424 83.8156 158.424 83.959V85.5791C158.424 85.9138 158.569 86.0774 158.857 86.0716H159.453C159.641 86.0684 159.764 86.0318 159.819 85.9591C159.869 85.8895 159.895 85.7627 159.895 85.5791ZM160.115 82.6591H162.124C162.045 82.7924 162 82.9178 161.986 83.0344C161.967 83.151 161.956 83.3772 161.953 83.7143V86.86C161.953 87.1626 161.938 87.3899 161.907 87.5443C161.858 87.8073 161.718 88.0348 161.491 88.2222C161.357 88.3318 161.19 88.4044 160.99 88.4446C160.782 88.4744 160.491 88.491 160.115 88.4943H156.736L156.586 87.4727C156.686 87.5524 156.799 87.6093 156.924 87.6434C157.093 87.6792 157.355 87.6975 157.711 87.6975H159.249C159.532 87.6945 159.712 87.6593 159.791 87.5896C159.855 87.5341 159.889 87.4473 159.895 87.3304V87.1555V86.5554C159.831 86.6745 159.741 86.7586 159.624 86.8059C159.507 86.8439 159.33 86.8654 159.091 86.8682H157.857C157.557 86.8682 157.341 86.8553 157.212 86.8313C156.877 86.7671 156.637 86.5707 156.49 86.2424C156.406 86.0615 156.365 85.8638 156.365 85.6458V83.8722C156.357 83.4357 156.504 83.1057 156.806 82.8795C157.021 82.7298 157.29 82.6558 157.616 82.6591H159.328C159.556 82.6618 159.719 82.6902 159.819 82.7427C159.892 82.7839 159.969 82.8623 160.048 82.9759L160.115 82.6591ZM153.538 84.8266H152.547C152.349 84.8296 152.216 84.8752 152.147 84.9648C152.092 85.0416 152.063 85.174 152.063 85.3603V85.5423C152.063 85.7256 152.092 85.8569 152.147 85.9334C152.216 86.0233 152.349 86.0684 152.547 86.0716H153.051C153.251 86.0684 153.385 86.0233 153.45 85.9334C153.509 85.8569 153.538 85.7256 153.538 85.5423V84.8266ZM150.338 82.6591H154.172C154.466 82.6558 154.697 82.6831 154.863 82.7388C154.988 82.7825 155.109 82.8593 155.225 82.9677C155.342 83.0756 155.432 83.1936 155.493 83.3218C155.563 83.4682 155.597 83.649 155.597 83.864V85.8143C155.6 86.1525 155.611 86.379 155.629 86.4929C155.644 86.6095 155.69 86.7343 155.768 86.8682H153.722C153.661 86.7543 153.619 86.6051 153.597 86.4213C153.558 86.5781 153.46 86.6988 153.305 86.784C153.238 86.8269 153.083 86.854 152.839 86.8682H151.301C151.053 86.8682 150.858 86.8523 150.718 86.8228C150.476 86.7641 150.296 86.6434 150.18 86.4612C150.063 86.2793 150.005 86.0304 150.005 85.713V85.0017C150.008 84.6406 150.133 84.3729 150.38 84.2008C150.506 84.1156 150.646 84.0628 150.804 84.0473C150.908 84.0358 150.998 84.0303 151.076 84.0303H153.035C153.211 84.0273 153.326 84.0172 153.38 84.0003C153.48 83.9648 153.53 83.8738 153.53 83.7258C153.53 83.6149 153.496 83.5408 153.426 83.5009C153.368 83.4709 153.252 83.4556 153.08 83.4556H151.08C150.736 83.4496 150.442 83.5165 150.197 83.6561L150.338 82.6591ZM145.733 81.1796V82.9134C145.833 82.7416 146.005 82.6558 146.246 82.6591H147.871C148.155 82.6591 148.379 82.6886 148.542 82.747C149.015 82.9377 149.249 83.3332 149.247 83.9306V85.8097C149.249 86.1511 149.261 86.379 149.279 86.4929C149.294 86.6095 149.339 86.7343 149.417 86.8682H147.017C147.096 86.7343 147.141 86.6095 147.156 86.4929C147.174 86.3759 147.185 86.1481 147.188 85.8097V83.9547C147.211 83.6302 147.053 83.4638 146.717 83.4556H146.154C145.993 83.4556 145.879 83.4979 145.812 83.5848C145.76 83.6575 145.733 83.7684 145.733 83.9178V85.8097C145.736 86.1571 145.747 86.3847 145.766 86.4929C145.78 86.6062 145.825 86.7319 145.903 86.8682H143.504C143.582 86.7343 143.627 86.6095 143.642 86.4929C143.66 86.379 143.671 86.1511 143.675 85.8097V82.2379C143.671 81.8967 143.66 81.6689 143.642 81.555C143.627 81.4383 143.582 81.3129 143.504 81.1796H145.733ZM142.78 81.1796L142.979 82.3501C142.846 82.2562 142.709 82.1922 142.566 82.1581C142.429 82.1308 142.211 82.1166 141.916 82.1166H140.724C140.533 82.1166 140.408 82.1281 140.35 82.1496C140.205 82.1952 140.121 82.3214 140.095 82.529C140.092 82.5577 140.091 82.6602 140.091 82.838V85.2505C140.091 85.5237 140.154 85.7144 140.279 85.8228C140.351 85.878 140.442 85.9108 140.553 85.922C140.62 85.928 140.714 85.9307 140.837 85.9307H141.962C142.393 85.9334 142.755 85.8736 143.05 85.7512L142.875 86.8682H139.383C138.91 86.8624 138.542 86.7087 138.277 86.4057C138.175 86.2924 138.099 86.1826 138.052 86.0757C138.006 85.9703 137.972 85.837 137.953 85.6761C137.936 85.5423 137.927 85.3972 137.927 85.2396V82.8082C137.927 82.484 137.956 82.2395 138.011 82.0756C138.055 81.939 138.135 81.8038 138.249 81.6716C138.363 81.5378 138.489 81.434 138.627 81.3586C138.842 81.2392 139.094 81.1796 139.383 81.1796H142.78ZM134.947 82.6591L135.148 83.7173C134.995 83.6034 134.86 83.5337 134.743 83.505C134.601 83.4725 134.391 83.4556 134.109 83.4556H132.359C132.19 83.4581 132.093 83.4652 132.072 83.4769C132.016 83.504 131.988 83.5594 131.988 83.6433C131.988 83.743 132.033 83.8052 132.126 83.8296C132.165 83.838 132.237 83.8424 132.342 83.8424H133.96C134.808 83.8012 135.224 84.1909 135.21 85.0134V85.6133C135.21 86.0588 135.061 86.3915 134.763 86.6133C134.652 86.6945 134.55 86.7502 134.456 86.783C134.361 86.8141 134.229 86.8384 134.059 86.851C133.887 86.8624 133.762 86.8682 133.685 86.8682H130.083L129.896 85.7881C130.103 85.8963 130.269 85.9703 130.392 86.0088C130.544 86.0501 130.774 86.0716 131.083 86.0716H132.884C133.009 86.0716 133.097 86.0615 133.148 86.043C133.223 86.0088 133.26 85.9405 133.26 85.8384C133.26 85.7329 133.227 85.6646 133.16 85.6346C133.123 85.6207 133.046 85.6133 132.93 85.6133H131.105C130.849 85.6133 130.65 85.5805 130.509 85.5141C130.186 85.336 130.021 85.0003 130.012 84.5095V83.8424C130.012 83.5154 130.109 83.248 130.304 83.0426C130.409 82.9306 130.526 82.8478 130.654 82.7924C130.782 82.7369 130.948 82.6973 131.154 82.6757C131.274 82.6643 131.463 82.6591 131.721 82.6591H134.947ZM125.729 83.9263V85.5764C125.729 85.7674 125.769 85.9007 125.85 85.976C125.925 86.0375 126.05 86.0684 126.226 86.0716H126.837C127.029 86.0684 127.16 86.0233 127.228 85.9334C127.286 85.8512 127.316 85.7234 127.316 85.551V83.9844C127.314 83.7984 127.282 83.6703 127.221 83.6007C127.132 83.5067 126.975 83.4581 126.751 83.4556H126.226C125.888 83.4556 125.723 83.6119 125.729 83.9263ZM125.096 82.6591H127.813C128.198 82.6591 128.487 82.6886 128.679 82.747C129.16 82.9377 129.392 83.3515 129.375 83.9888V85.6676C129.383 86.5125 128.911 86.9122 127.958 86.8682H125.284C124.861 86.8682 124.57 86.8455 124.407 86.8015C124.287 86.7688 124.17 86.7043 124.057 86.6095C123.947 86.5153 123.861 86.4074 123.8 86.285C123.713 86.1102 123.671 85.8862 123.671 85.6177V83.8268C123.668 83.4015 123.835 83.074 124.174 82.8462C124.339 82.7416 124.528 82.6801 124.746 82.6629C124.807 82.6602 124.924 82.6591 125.096 82.6591ZM122.923 81.1796V85.8097C122.927 86.1511 122.938 86.379 122.956 86.4929C122.971 86.6095 123.016 86.7343 123.094 86.8682H120.695C120.772 86.7343 120.818 86.6095 120.832 86.4929C120.851 86.379 120.862 86.1511 120.865 85.8097V82.2379C120.862 81.8967 120.851 81.6689 120.832 81.555C120.818 81.4383 120.772 81.3129 120.695 81.1796H122.923ZM118.192 82.6591L118.246 83.3515C118.301 83.1682 118.357 83.0415 118.414 82.9718C118.586 82.7514 118.891 82.6476 119.326 82.6591H120.364V84.0514C120.275 83.9675 120.182 83.909 120.085 83.8765C119.949 83.8323 119.754 83.8099 119.501 83.8099H119.08C118.858 83.8099 118.684 83.8681 118.559 83.9844C118.442 84.0929 118.384 84.245 118.384 84.4384V85.8143C118.387 86.1525 118.398 86.379 118.417 86.4929C118.431 86.6095 118.477 86.7343 118.555 86.8682H116.155C116.233 86.7343 116.279 86.6095 116.293 86.4929C116.311 86.379 116.323 86.1525 116.326 85.8143V83.7187C116.323 83.3758 116.311 83.1483 116.293 83.0344C116.279 82.9178 116.233 82.7924 116.155 82.6591H118.192ZM113.354 84.8266H112.362C112.165 84.8296 112.031 84.8752 111.963 84.9648C111.907 85.0416 111.879 85.174 111.879 85.3603V85.5423C111.879 85.7256 111.907 85.8569 111.963 85.9334C112.031 86.0233 112.165 86.0684 112.362 86.0716H112.866C113.067 86.0684 113.2 86.0233 113.266 85.9334C113.324 85.8569 113.354 85.7256 113.354 85.5423V84.8266ZM110.153 82.6591H113.987C114.281 82.6558 114.512 82.6831 114.678 82.7388C114.804 82.7825 114.924 82.8593 115.041 82.9677C115.158 83.0756 115.248 83.1936 115.308 83.3218C115.378 83.4682 115.413 83.649 115.413 83.864V85.8143C115.415 86.1525 115.427 86.379 115.445 86.4929C115.459 86.6095 115.505 86.7343 115.583 86.8682H113.538C113.476 86.7543 113.435 86.6051 113.412 86.4213C113.374 86.5781 113.276 86.6988 113.12 86.784C113.054 86.8269 112.899 86.854 112.654 86.8682H111.116C110.869 86.8682 110.674 86.8523 110.533 86.8228C110.291 86.7641 110.112 86.6434 109.995 86.4612C109.879 86.2793 109.82 86.0304 109.82 85.713V85.0017C109.823 84.6406 109.948 84.3729 110.196 84.2008C110.321 84.1156 110.462 84.0628 110.62 84.0473C110.723 84.0358 110.813 84.0303 110.891 84.0303H112.85C113.027 84.0273 113.142 84.0172 113.196 84.0003C113.296 83.9648 113.345 83.8738 113.345 83.7258C113.345 83.6149 113.311 83.5408 113.242 83.5009C113.183 83.4709 113.068 83.4556 112.896 83.4556H110.896C110.552 83.4496 110.257 83.5165 110.012 83.6561L110.153 82.6591ZM109.038 81.1796L109.237 82.3501C109.105 82.2562 108.967 82.1922 108.824 82.1581C108.687 82.1308 108.469 82.1166 108.174 82.1166H106.982C106.792 82.1166 106.667 82.1281 106.608 82.1496C106.463 82.1952 106.379 82.3214 106.353 82.529C106.351 82.5577 106.349 82.6602 106.349 82.838V85.2505C106.349 85.5237 106.412 85.7144 106.537 85.8228C106.61 85.878 106.701 85.9108 106.812 85.922C106.878 85.928 106.972 85.9307 107.095 85.9307H108.22C108.651 85.9334 109.014 85.8736 109.308 85.7512L109.133 86.8682H105.641C105.168 86.8624 104.8 86.7087 104.536 86.4057C104.433 86.2924 104.358 86.1826 104.311 86.0757C104.264 85.9703 104.23 85.837 104.211 85.6761C104.194 85.5423 104.186 85.3972 104.186 85.2396V82.8082C104.186 82.484 104.214 82.2395 104.27 82.0756C104.314 81.939 104.393 81.8038 104.507 81.6716C104.621 81.5378 104.748 81.434 104.886 81.3586C105.1 81.2392 105.352 81.1796 105.641 81.1796H109.038ZM97.726 83.9263V85.5764C97.726 85.7674 97.7656 85.9007 97.8467 85.976C97.9221 86.0375 98.0475 86.0684 98.2226 86.0716H98.8342C99.0262 86.0684 99.1574 86.0233 99.2254 85.9334C99.2833 85.8512 99.3133 85.7234 99.3133 85.551V83.9844C99.3109 83.7984 99.2795 83.6703 99.2183 83.6007C99.1287 83.5067 98.9719 83.4581 98.7474 83.4556H98.2226C97.8853 83.4556 97.7203 83.6119 97.726 83.9263ZM97.0928 82.6591H99.8099C100.195 82.6591 100.484 82.6886 100.676 82.747C101.157 82.9377 101.389 83.3515 101.372 83.9888V85.6676C101.38 86.5125 100.908 86.9122 99.955 86.8682H97.2805C96.8582 86.8682 96.5664 86.8455 96.4039 86.8015C96.2835 86.7688 96.1668 86.7043 96.0543 86.6095C95.9434 86.5153 95.8579 86.4074 95.797 86.285C95.7101 86.1102 95.6675 85.8862 95.6675 85.6177V83.8268C95.6642 83.4015 95.8325 83.074 96.1709 82.8462C96.3362 82.7416 96.5252 82.6801 96.7432 82.6629C96.8041 82.6602 96.9207 82.6591 97.0928 82.6591ZM93.0998 80.8923H94.084V81.5591C94.084 81.7612 94.0556 81.915 94.0001 82.0174C93.9149 82.1838 93.7371 82.2679 93.4666 82.2679C93.2306 82.2679 92.7455 82.1581 92.0115 81.939C91.8222 81.8836 91.6903 81.8549 91.616 81.8549C91.5264 81.8549 91.4554 81.895 91.4029 81.9759C91.3671 82.0316 91.3488 82.1097 91.3488 82.2092C91.3488 82.2207 91.3499 82.2362 91.3499 82.2592H90.3655V81.6418C90.3655 81.4025 90.4026 81.2261 90.478 81.1127C90.5777 80.9603 90.7498 80.8833 90.9915 80.8833C91.1666 80.8833 91.5064 80.9559 92.0126 81.0999C92.4822 81.2332 92.7641 81.3001 92.858 81.3001C93.0143 81.3001 93.0954 81.1635 93.0998 80.8923ZM92.8493 84.8266H91.858C91.6602 84.8296 91.5264 84.8752 91.4581 84.9648C91.4029 85.0416 91.3742 85.174 91.3742 85.3603V85.5423C91.3742 85.7256 91.4029 85.8569 91.4581 85.9334C91.5264 86.0233 91.6602 86.0684 91.858 86.0716H92.3614C92.5619 86.0684 92.6958 86.0233 92.7611 85.9334C92.8195 85.8569 92.8493 85.7256 92.8493 85.5423V84.8266ZM89.6487 82.6591H93.4825C93.777 82.6558 94.0072 82.6831 94.1738 82.7388C94.299 82.7825 94.42 82.8593 94.5366 82.9677C94.6532 83.0756 94.7428 83.1936 94.804 83.3218C94.8737 83.4682 94.9081 83.649 94.9081 83.864V85.8143C94.9106 86.1525 94.922 86.379 94.9403 86.4929C94.9545 86.6095 95.0004 86.7343 95.0786 86.8682H93.0329C92.9717 86.7543 92.9304 86.6051 92.9078 86.4213C92.8692 86.5781 92.7712 86.6988 92.616 86.784C92.5494 86.8269 92.3942 86.854 92.1497 86.8682H90.6119C90.3644 86.8682 90.1693 86.8523 90.0284 86.8228C89.7866 86.7641 89.6074 86.6434 89.4908 86.4612C89.3744 86.2793 89.3157 86.0304 89.3157 85.713V85.0017C89.3187 84.6406 89.4438 84.3729 89.6916 84.2008C89.8164 84.1156 89.9574 84.0628 90.1153 84.0473C90.2191 84.0358 90.3086 84.0303 90.387 84.0303H92.3459C92.5221 84.0273 92.6373 84.0172 92.6914 84.0003C92.7911 83.9648 92.8408 83.8738 92.8408 83.7258C92.8408 83.6149 92.8064 83.5408 92.737 83.5009C92.6786 83.4709 92.5636 83.4556 92.3912 83.4556H90.3911C90.0472 83.4496 89.7528 83.5165 89.5077 83.6561L89.6487 82.6591ZM86.7737 86.8682V87.214H86.9941C87.2998 87.214 87.5093 87.255 87.6243 87.3391C87.7623 87.4473 87.8319 87.6194 87.8319 87.8551V88.1187C87.8319 88.2796 87.8153 88.4031 87.7822 88.4872C87.7481 88.5724 87.691 88.6336 87.6115 88.6732C87.4976 88.7317 87.2386 88.7645 86.8365 88.7732H85.8562L85.7439 88.0562C85.8605 88.1086 85.9755 88.1397 86.0894 88.1512C86.182 88.16 86.3014 88.164 86.4478 88.164H86.6568C86.7994 88.161 86.8958 88.1539 86.9488 88.1427C87.0354 88.1272 87.078 88.0649 87.078 87.9554C87.078 87.8442 87.0381 87.7773 86.957 87.7559C86.9015 87.7387 86.7994 87.7303 86.6486 87.7303H86.2317V86.8682H85.6141C85.5502 86.8654 85.3541 86.8485 85.0268 86.8182C84.8774 86.7871 84.7307 86.7188 84.5887 86.6122C84.4477 86.5054 84.3412 86.3814 84.2688 86.2424C84.1847 86.0845 84.1432 85.9023 84.1432 85.6958V83.7924C84.2046 83.0229 84.6739 82.6446 85.5519 82.6591H88.6913L88.862 83.6717C88.7369 83.5862 88.6159 83.5307 88.4992 83.505C88.3599 83.4725 88.2031 83.4556 88.0283 83.4556H86.7863C86.5746 83.4556 86.4282 83.4837 86.344 83.5422C86.2487 83.6203 86.2017 83.7555 86.2017 83.9476V85.6264C86.2017 85.807 86.2558 85.9307 86.364 86.0004C86.4421 86.0473 86.5888 86.0716 86.8035 86.0716H87.9742C88.199 86.0716 88.381 86.0487 88.5192 86.0047C88.609 85.9774 88.7227 85.9206 88.862 85.834L88.6913 86.8682H86.7737ZM81.3294 84.8266H80.3381C80.1403 84.8296 80.0067 84.8752 79.9384 84.9648C79.883 85.0416 79.8543 85.174 79.8543 85.3603V85.5423C79.8543 85.7256 79.883 85.8569 79.9384 85.9334C80.0067 86.0233 80.1403 86.0684 80.3381 86.0716H80.8415C81.042 86.0684 81.1758 86.0233 81.2414 85.9334C81.2996 85.8569 81.3294 85.7256 81.3294 85.5423V84.8266ZM78.1288 82.6591H81.9625C82.257 82.6558 82.4876 82.6831 82.6539 82.7388C82.779 82.7825 82.9 82.8593 83.0169 82.9677C83.1333 83.0756 83.2229 83.1936 83.2841 83.3218C83.3537 83.4682 83.3882 83.649 83.3882 83.864V85.8143C83.3906 86.1525 83.4024 86.379 83.4207 86.4929C83.4349 86.6095 83.4805 86.7343 83.5589 86.8682H81.5132C81.452 86.7543 81.4108 86.6051 81.3878 86.4213C81.3496 86.5781 81.2512 86.6988 81.0961 86.784C81.0294 86.8269 80.8743 86.854 80.6298 86.8682H79.0919C78.8444 86.8682 78.6494 86.8523 78.5087 86.8228C78.2667 86.7641 78.0875 86.6434 77.9709 86.4612C77.8545 86.2793 77.7958 86.0304 77.7958 85.713V85.0017C77.7991 84.6406 77.9239 84.3729 78.1716 84.2008C78.2965 84.1156 78.4374 84.0628 78.5953 84.0473C78.6994 84.0358 78.789 84.0303 78.8671 84.0303H80.8262C81.0027 84.0273 81.1174 84.0172 81.1717 84.0003C81.2712 83.9648 81.3212 83.8738 81.3212 83.7258C81.3212 83.6149 81.287 83.5408 81.2174 83.5009C81.1586 83.4709 81.0436 83.4556 80.8715 83.4556H78.8712C78.5273 83.4496 78.2328 83.5165 77.9881 83.6561L78.1288 82.6591ZM74.0748 86.0716H74.5411C74.7246 86.0684 74.8514 86.0244 74.9197 85.9378C74.9751 85.861 75.0035 85.7204 75.0035 85.5182V83.9547C75.0035 83.8025 74.9964 83.7075 74.9822 83.6676C74.9495 83.5875 74.9025 83.5321 74.8427 83.5009C74.7831 83.4709 74.6921 83.4556 74.5698 83.4556H74.0035C73.8443 83.4556 73.7344 83.4928 73.6735 83.5679C73.6039 83.652 73.5695 83.7741 73.5695 83.9347V85.622C73.5725 85.7938 73.6153 85.9138 73.6989 85.9804C73.7771 86.0386 73.9011 86.0684 74.0748 86.0716ZM77.0618 81.1796V85.8097C77.0648 86.1511 77.0763 86.379 77.0946 86.4929C77.1088 86.6095 77.1547 86.7343 77.2325 86.8682H75.2824L75.1912 86.4885C75.0959 86.645 74.9934 86.7444 74.8825 86.7884C74.746 86.8411 74.5583 86.8682 74.3193 86.8682H72.8568C72.4318 86.8654 72.1384 86.8015 71.9778 86.6762C71.7702 86.5213 71.6363 86.3303 71.5781 86.1058C71.5339 85.9334 71.5115 85.7785 71.5115 85.642V83.8227C71.5055 83.4914 71.5967 83.218 71.7814 83.0002C71.9991 82.7642 72.2766 82.6506 72.615 82.6591H74.3037C74.6424 82.6618 74.8757 82.7924 75.0035 83.0513V82.2379C75.0005 81.8934 74.9891 81.6659 74.9708 81.555C74.9566 81.4411 74.9112 81.3159 74.8328 81.1796H77.0618ZM67.0429 82.6591L67.1297 83.08C67.2079 82.9306 67.2944 82.8238 67.3928 82.7626C67.5064 82.6929 67.667 82.6591 67.8765 82.6591H69.4185C69.713 82.6591 69.9449 82.7017 70.1143 82.7883C70.5521 83.0385 70.7658 83.4597 70.7516 84.0514V85.8097C70.7543 86.1511 70.7658 86.379 70.7841 86.4929C70.7985 86.6095 70.8439 86.7343 70.9223 86.8682H68.5223C68.6004 86.7343 68.646 86.6095 68.6602 86.4929C68.6788 86.3732 68.69 86.1457 68.693 85.8097V83.9806C68.69 83.7782 68.666 83.6433 68.6217 83.5763C68.5665 83.4952 68.4439 83.4556 68.2551 83.4556H67.622C67.4966 83.4556 67.404 83.4854 67.3428 83.5436C67.289 83.596 67.2619 83.7045 67.2592 83.8681V85.8097C67.2619 86.1457 67.2731 86.3732 67.2917 86.4929C67.3089 86.6095 67.3543 86.7343 67.4299 86.8682H65.03C65.1081 86.7343 65.1537 86.6095 65.1679 86.4929C65.1865 86.379 65.198 86.1511 65.2007 85.8097V83.7143C65.198 83.3772 65.1865 83.151 65.1679 83.0344C65.1537 82.9178 65.1081 82.7924 65.03 82.6591H67.0429ZM64.2629 82.6591V85.8083C64.2659 86.1511 64.2774 86.379 64.2957 86.4929C64.3099 86.6095 64.3555 86.7343 64.4336 86.8682H62.4877L62.4052 86.4757C62.3511 86.6062 62.2915 86.6975 62.2216 86.7474C62.1077 86.8283 61.9116 86.8682 61.6327 86.8682H60.0451C59.7763 86.8682 59.5629 86.8455 59.4078 86.8015C59.2529 86.7576 59.1191 86.6819 59.0082 86.5767C58.8331 86.4074 58.7336 86.1711 58.7123 85.8679C58.7036 85.784 58.6992 85.6335 58.6992 85.4128V83.7173C58.6965 83.3758 58.685 83.1483 58.6667 83.0344C58.6525 82.9178 58.6069 82.7924 58.5285 82.6591H60.758V85.5125C60.7408 85.9023 60.8902 86.0886 61.2044 86.0716H61.6996C61.9116 86.0716 62.0512 86.0359 62.1164 85.9635C62.1749 85.8911 62.2047 85.7556 62.2047 85.5595V83.7173C62.2017 83.3728 62.1902 83.1453 62.1719 83.0344C62.1577 82.9205 62.1123 82.7954 62.034 82.6591H64.2629ZM55.4516 82.1166V83.4881H57.3435C57.5998 83.4914 57.8429 83.4441 58.0734 83.3458V84.5963C57.9098 84.5182 57.7664 84.4715 57.6437 84.4554C57.5186 84.4357 57.3566 84.4259 57.1559 84.4259H55.4516V86.0219C55.4631 86.3973 55.5415 86.6792 55.6893 86.8682H53.0503C53.1983 86.6704 53.2767 86.3888 53.2879 86.0219V82.0215C53.2767 81.6574 53.1983 81.3769 53.0503 81.1796H58.0322L58.2073 82.2545C58.0264 82.1851 57.8628 82.1455 57.715 82.1341C57.5924 82.1253 57.3607 82.1196 57.0193 82.1166H55.4516Z" fill="#231F20"/>
<path fill-rule="evenodd" clip-rule="evenodd" d="M176.565 93.5284V95.1785C176.565 95.3694 176.605 95.503 176.685 95.5784C176.761 95.6396 176.886 95.671 177.061 95.6737H177.673C177.865 95.671 177.996 95.6254 178.064 95.5355C178.122 95.4533 178.152 95.3252 178.152 95.1531V93.5868C178.15 93.4005 178.118 93.2724 178.057 93.203C177.967 93.1088 177.811 93.0604 177.586 93.0577H177.061C176.724 93.0577 176.559 93.2142 176.565 93.5284ZM175.932 92.2609H178.649C179.034 92.2609 179.323 92.2907 179.515 92.3491C179.996 92.5398 180.228 92.9536 180.211 93.5909V95.2697C180.219 96.1146 179.747 96.5143 178.794 96.4706H176.12C175.697 96.4706 175.405 96.4476 175.243 96.4034C175.122 96.3708 175.006 96.3067 174.893 96.2113C174.782 96.1176 174.697 96.0097 174.635 95.8874C174.549 95.7123 174.506 95.4888 174.506 95.2198V93.4292C174.503 93.0036 174.671 92.6761 175.01 92.4488C175.175 92.3434 175.364 92.2822 175.582 92.265C175.643 92.2623 175.76 92.2609 175.932 92.2609ZM170.781 95.6737H171.247C171.431 95.671 171.557 95.6268 171.626 95.5402C171.681 95.4631 171.71 95.3222 171.71 95.1201V93.5568C171.71 93.4049 171.702 93.3093 171.688 93.2697C171.656 93.1899 171.609 93.1345 171.549 93.1028C171.489 93.073 171.398 93.0577 171.276 93.0577H170.709C170.55 93.0577 170.441 93.0946 170.379 93.17C170.31 93.2538 170.276 93.3759 170.276 93.5371V95.2241C170.278 95.3962 170.321 95.5156 170.405 95.5828C170.483 95.6407 170.607 95.671 170.781 95.6737ZM173.768 90.7817V95.4121C173.771 95.7535 173.782 95.981 173.801 96.095C173.815 96.2113 173.861 96.3364 173.939 96.4706H171.988L171.897 96.0906C171.802 96.2468 171.7 96.3465 171.589 96.3908C171.452 96.4435 171.264 96.4706 171.025 96.4706H169.563C169.138 96.4675 168.844 96.4034 168.684 96.2782C168.476 96.1234 168.342 95.9324 168.284 95.7079C168.24 95.5355 168.217 95.3806 168.217 95.2438V93.4248C168.212 93.0932 168.303 92.8201 168.487 92.6023C168.705 92.3663 168.982 92.2524 169.321 92.2609H171.01C171.348 92.2639 171.582 92.3947 171.71 92.6537V91.8397C171.707 91.4958 171.695 91.268 171.677 91.1571C171.663 91.0432 171.617 90.918 171.539 90.7817H173.768ZM160.347 93.5284V95.1785C160.347 95.3694 160.387 95.503 160.468 95.5784C160.544 95.6396 160.669 95.671 160.843 95.6737H161.456C161.647 95.671 161.778 95.6254 161.846 95.5355C161.905 95.4533 161.935 95.3252 161.935 95.1531V93.5868C161.932 93.4005 161.9 93.2724 161.84 93.203C161.75 93.1088 161.593 93.0604 161.368 93.0577H160.843C160.507 93.0577 160.341 93.2142 160.347 93.5284ZM159.714 92.2609H162.431C162.816 92.2609 163.105 92.2907 163.297 92.3491C163.778 92.5398 164.01 92.9536 163.993 93.5909V95.2697C164.001 96.1146 163.529 96.5143 162.576 96.4706H159.902C159.479 96.4706 159.188 96.4476 159.025 96.4034C158.905 96.3708 158.788 96.3067 158.676 96.2113C158.565 96.1176 158.479 96.0097 158.418 95.8874C158.331 95.7123 158.289 95.4888 158.289 95.2198V93.4292C158.286 93.0036 158.454 92.6761 158.792 92.4488C158.957 92.3434 159.146 92.2822 159.364 92.265C159.425 92.2623 159.542 92.2609 159.714 92.2609ZM154.563 95.6737H155.029C155.213 95.671 155.34 95.6268 155.408 95.5402C155.463 95.4631 155.492 95.3222 155.492 95.1201V93.5568C155.492 93.4049 155.485 93.3093 155.471 93.2697C155.438 93.1899 155.391 93.1345 155.331 93.1028C155.271 93.073 155.181 93.0577 155.058 93.0577H154.492C154.333 93.0577 154.223 93.0946 154.162 93.17C154.092 93.2538 154.058 93.3759 154.058 93.5371V95.2241C154.061 95.3962 154.104 95.5156 154.187 95.5828C154.266 95.6407 154.389 95.671 154.563 95.6737ZM157.55 90.7817V95.4121C157.553 95.7535 157.565 95.981 157.583 96.095C157.597 96.2113 157.643 96.3364 157.721 96.4706H155.771L155.68 96.0906C155.585 96.2468 155.482 96.3465 155.371 96.3908C155.235 96.4435 155.047 96.4706 154.808 96.4706H153.345C152.92 96.4675 152.627 96.4034 152.466 96.2782C152.259 96.1234 152.125 95.9324 152.066 95.7079C152.022 95.5355 152 95.3806 152 95.2438V93.4248C151.994 93.0932 152.085 92.8201 152.27 92.6023C152.487 92.3663 152.765 92.2524 153.103 92.2609H154.792C155.131 92.2639 155.364 92.3947 155.492 92.6537V91.8397C155.489 91.4958 155.477 91.268 155.459 91.1571C155.445 91.0432 155.4 90.918 155.321 90.7817H157.55ZM149.177 94.429H148.186C147.988 94.432 147.855 94.4776 147.786 94.5669C147.731 94.6437 147.702 94.7761 147.702 94.9624V95.1444C147.702 95.3279 147.731 95.4588 147.786 95.5355C147.855 95.6254 147.988 95.671 148.186 95.6737H148.689C148.89 95.671 149.024 95.6254 149.089 95.5355C149.147 95.4588 149.177 95.3279 149.177 95.1444V94.429ZM145.977 92.2609H149.81C150.105 92.2582 150.335 92.2852 150.502 92.3407C150.627 92.3846 150.748 92.4617 150.864 92.5696C150.981 92.678 151.071 92.7957 151.132 92.9239C151.201 93.0703 151.236 93.2508 151.236 93.4658V95.4164C151.239 95.7549 151.25 95.981 151.268 96.095C151.283 96.2113 151.328 96.3364 151.406 96.4706H149.361C149.3 96.3566 149.258 96.2072 149.236 96.0237C149.197 96.1802 149.099 96.3009 148.944 96.3864C148.877 96.429 148.722 96.4561 148.477 96.4706H146.94C146.692 96.4706 146.497 96.4547 146.356 96.4249C146.114 96.3667 145.935 96.2455 145.819 96.0633C145.702 95.8813 145.644 95.6325 145.644 95.3154V94.6041C145.646 94.2427 145.772 93.9752 146.019 93.8032C146.144 93.7177 146.285 93.6649 146.443 93.6494C146.547 93.6379 146.637 93.6324 146.715 93.6324H148.674C148.85 93.6294 148.965 93.6196 149.019 93.6024C149.119 93.5671 149.169 93.4759 149.169 93.3279C149.169 93.217 149.134 93.1429 149.065 93.1028C149.007 93.073 148.891 93.0577 148.719 93.0577H146.719C146.375 93.052 146.08 93.1189 145.836 93.2585L145.977 92.2609ZM144.976 92.2609V93.0577H143.234V95.0108C143.237 95.1856 143.242 95.3053 143.251 95.3694C143.272 95.5145 143.351 95.6038 143.484 95.6407C143.567 95.6625 143.686 95.6737 143.842 95.6737H144.402C144.764 95.671 145.042 95.5953 145.231 95.4489L145.072 96.4706H142.892C142.464 96.4675 142.164 96.4449 141.992 96.4034C141.744 96.3506 141.539 96.21 141.376 95.9821C141.259 95.8243 141.194 95.5754 141.18 95.237L141.175 94.7863V93.0577H140.538V92.2609H141.175V91.3944L143.234 91.3062V92.2609H144.976ZM139.938 92.2609L140.138 93.3194C139.986 93.2052 139.851 93.1358 139.734 93.1077C139.592 93.0749 139.382 93.0577 139.1 93.0577H137.35C137.181 93.0604 137.084 93.0675 137.063 93.0787C137.008 93.106 136.979 93.1615 136.979 93.2454C136.979 93.3451 137.024 93.4076 137.117 93.4317C137.155 93.4401 137.228 93.4445 137.333 93.4445H138.95C139.798 93.4032 140.215 93.7933 140.201 94.6155V95.2159C140.201 95.6612 140.052 95.9936 139.754 96.2157C139.643 96.2968 139.541 96.3525 139.447 96.3851C139.352 96.4162 139.219 96.4405 139.05 96.4531C138.878 96.4648 138.753 96.4706 138.676 96.4706H135.074L134.886 95.3905C135.094 95.4986 135.26 95.5727 135.383 95.6109C135.535 95.6522 135.765 95.6737 136.074 95.6737H137.875C138 95.6737 138.088 95.6636 138.138 95.6453C138.214 95.6109 138.251 95.5426 138.251 95.4405C138.251 95.3348 138.218 95.2667 138.151 95.237C138.114 95.2228 138.037 95.2159 137.921 95.2159H136.095C135.839 95.2159 135.64 95.1832 135.5 95.1162C135.177 94.9379 135.012 94.6027 135.003 94.1115V93.4445C135.003 93.1172 135.1 92.8501 135.295 92.6452C135.4 92.5327 135.517 92.4502 135.644 92.3947C135.773 92.339 135.939 92.2997 136.145 92.2781C136.265 92.2666 136.454 92.2609 136.711 92.2609H139.938ZM131.674 91.7189V93.0989H133.417C133.764 93.0989 134.033 93.0563 134.225 92.9695V94.1856C134.111 94.0919 133.896 94.0419 133.579 94.0364H131.674V95.5331H133.782C133.974 95.5331 134.244 95.4675 134.592 95.3367L134.404 96.4706H129.273C129.421 96.2728 129.499 95.9925 129.51 95.6284V91.6236C129.499 91.2595 129.421 90.9792 129.273 90.7817H134.283L134.449 91.8487C134.244 91.776 134.064 91.7362 133.907 91.7274C133.811 91.722 133.657 91.7189 133.445 91.7189H131.674ZM121.441 93.5284V95.1785C121.441 95.3694 121.481 95.503 121.562 95.5784C121.638 95.6396 121.762 95.671 121.938 95.6737H122.549C122.741 95.671 122.872 95.6254 122.94 95.5355C122.999 95.4533 123.029 95.3252 123.029 95.1531V93.5868C123.026 93.4005 122.994 93.2724 122.934 93.203C122.844 93.1088 122.687 93.0604 122.463 93.0577H121.938C121.601 93.0577 121.436 93.2142 121.441 93.5284ZM120.808 92.2609H123.525C123.911 92.2609 124.199 92.2907 124.391 92.3491C124.872 92.5398 125.104 92.9536 125.087 93.5909V95.2697C125.096 96.1146 124.624 96.5143 123.67 96.4706H120.996C120.573 96.4706 120.282 96.4476 120.119 96.4034C119.998 96.3708 119.882 96.3067 119.77 96.2113C119.659 96.1176 119.573 96.0097 119.512 95.8874C119.425 95.7123 119.383 95.4888 119.383 95.2198V93.4292C119.379 93.0036 119.548 92.6761 119.886 92.4488C120.051 92.3434 120.24 92.2822 120.458 92.265C120.519 92.2623 120.636 92.2609 120.808 92.2609ZM115.657 95.6737H116.123C116.307 95.671 116.434 95.6268 116.502 95.5402C116.557 95.4631 116.586 95.3222 116.586 95.1201V93.5568C116.586 93.4049 116.579 93.3093 116.565 93.2697C116.532 93.1899 116.485 93.1345 116.425 93.1028C116.366 93.073 116.275 93.0577 116.152 93.0577H115.586C115.427 93.0577 115.317 93.0946 115.256 93.17C115.186 93.2538 115.152 93.3759 115.152 93.5371V95.2241C115.155 95.3962 115.198 95.5156 115.281 95.5828C115.36 95.6407 115.483 95.671 115.657 95.6737ZM118.644 90.7817V95.4121C118.647 95.7535 118.659 95.981 118.677 96.095C118.691 96.2113 118.737 96.3364 118.815 96.4706H116.865L116.774 96.0906C116.679 96.2468 116.576 96.3465 116.465 96.3908C116.329 96.4435 116.141 96.4706 115.902 96.4706H114.439C114.014 96.4675 113.721 96.4034 113.56 96.2782C113.352 96.1234 113.219 95.9324 113.16 95.7079C113.116 95.5355 113.094 95.3806 113.094 95.2438V93.4248C113.088 93.0932 113.179 92.8201 113.364 92.6023C113.581 92.3663 113.859 92.2524 114.197 92.2609H115.886C116.225 92.2639 116.458 92.3947 116.586 92.6537V91.8397C116.583 91.4958 116.572 91.268 116.553 91.1571C116.539 91.0432 116.494 90.918 116.415 90.7817H118.644ZM106.677 94.429H105.686C105.488 94.432 105.355 94.4776 105.286 94.5669C105.231 94.6437 105.202 94.7761 105.202 94.9624V95.1444C105.202 95.3279 105.231 95.4588 105.286 95.5355C105.355 95.6254 105.488 95.671 105.686 95.6737H106.189C106.39 95.671 106.524 95.6254 106.589 95.5355C106.648 95.4588 106.677 95.3279 106.677 95.1444V94.429ZM103.477 92.2609H107.31C107.605 92.2582 107.835 92.2852 108.002 92.3407C108.127 92.3846 108.248 92.4617 108.364 92.5696C108.481 92.678 108.571 92.7957 108.632 92.9239C108.702 93.0703 108.736 93.2508 108.736 93.4658V95.4164C108.739 95.7549 108.75 95.981 108.768 96.095C108.783 96.2113 108.828 96.3364 108.907 96.4706H106.861C106.799 96.3566 106.758 96.2072 106.736 96.0237C106.697 96.1802 106.599 96.3009 106.444 96.3864C106.377 96.429 106.222 96.4561 105.978 96.4706H104.44C104.192 96.4706 103.997 96.4547 103.856 96.4249C103.615 96.3667 103.435 96.2455 103.319 96.0633C103.202 95.8813 103.143 95.6325 103.143 95.3154V94.6041C103.147 94.2427 103.272 93.9752 103.52 93.8032C103.644 93.7177 103.785 93.6649 103.943 93.6494C104.047 93.6379 104.137 93.6324 104.215 93.6324H106.174C106.35 93.6294 106.465 93.6196 106.519 93.6024C106.619 93.5671 106.669 93.4759 106.669 93.3279C106.669 93.217 106.635 93.1429 106.565 93.1028C106.507 93.073 106.391 93.0577 106.219 93.0577H104.219C103.875 93.052 103.58 93.1189 103.336 93.2585L103.477 92.2609ZM102.356 92.2609L102.556 93.3194C102.404 93.2052 102.269 93.1358 102.152 93.1077C102.01 93.0749 101.799 93.0577 101.518 93.0577H99.7677C99.5986 93.0604 99.5017 93.0675 99.4806 93.0787C99.4252 93.106 99.3965 93.1615 99.3965 93.2454C99.3965 93.3451 99.4421 93.4076 99.5344 93.4317C99.5732 93.4401 99.6456 93.4445 99.7508 93.4445H101.368C102.216 93.4032 102.633 93.7933 102.618 94.6155V95.2159C102.618 95.6612 102.469 95.9936 102.172 96.2157C102.061 96.2968 101.959 96.3525 101.865 96.3851C101.769 96.4162 101.637 96.4405 101.468 96.4531C101.296 96.4648 101.17 96.4706 101.093 96.4706H97.4915L97.3041 95.3905C97.512 95.4986 97.678 95.5727 97.8004 95.6109C97.9528 95.6522 98.1831 95.6737 98.4921 95.6737H100.292C100.418 95.6737 100.506 95.6636 100.556 95.6453C100.631 95.6109 100.668 95.5426 100.668 95.4405C100.668 95.3348 100.636 95.2667 100.569 95.237C100.532 95.2228 100.455 95.2159 100.338 95.2159H98.5131C98.2571 95.2159 98.058 95.1832 97.9171 95.1162C97.5939 94.9379 97.4292 94.6027 97.4207 94.1115V93.4445C97.4207 93.1172 97.5174 92.8501 97.7122 92.6452C97.8176 92.5327 97.9343 92.4502 98.0624 92.3947C98.1905 92.339 98.3568 92.2997 98.5631 92.2781C98.6825 92.2666 98.8715 92.2609 99.1291 92.2609H102.356ZM96.6212 92.2609V95.4121C96.6239 95.7535 96.6354 95.981 96.6537 96.095C96.6679 96.2113 96.7135 96.3364 96.7919 96.4706H94.3919C94.4701 96.3364 94.5157 96.2113 94.5302 96.095C94.5485 95.981 94.5599 95.7535 94.5627 95.4121V93.3194C94.5599 92.9807 94.5485 92.7531 94.5302 92.6365C94.5157 92.5199 94.4701 92.3947 94.3919 92.2609H96.6212ZM96.6212 91.8443H94.5627V90.7817H96.6212V91.8443ZM93.6249 92.2609V95.4107C93.6279 95.7535 93.6394 95.981 93.6577 96.095C93.6722 96.2113 93.7175 96.3364 93.7956 96.4706H91.8499L91.7672 96.0777C91.7133 96.2086 91.6535 96.2996 91.5839 96.3493C91.47 96.4304 91.2736 96.4706 90.9947 96.4706H89.4071C89.1383 96.4706 88.9249 96.4476 88.7698 96.4034C88.6149 96.3594 88.4811 96.284 88.3702 96.1785C88.1951 96.0097 88.0956 95.7734 88.074 95.47C88.0656 95.3864 88.0612 95.2356 88.0612 95.0149V93.3194C88.0585 92.9779 88.0473 92.7504 88.0287 92.6365C88.0145 92.5199 87.9691 92.3947 87.8905 92.2609H90.12V95.1149C90.1028 95.5044 90.2522 95.6907 90.5663 95.6737H91.0616C91.2736 95.6737 91.4131 95.6385 91.4784 95.5656C91.5369 95.4929 91.5667 95.358 91.5667 95.1616V93.3194C91.5637 92.9752 91.5522 92.7477 91.5339 92.6365C91.5197 92.5226 91.4746 92.3975 91.3959 92.2609H93.6249ZM85.1053 95.2782V93.4535C85.1084 93.1844 84.9532 93.052 84.6388 93.0577H84.1253C83.9562 93.0604 83.8379 93.0932 83.771 93.1571C83.7043 93.2243 83.6699 93.3451 83.6672 93.5199V95.2113C83.6699 95.3864 83.7043 95.5071 83.771 95.574C83.8379 95.6385 83.9562 95.671 84.1253 95.6737H84.6388C84.9532 95.6795 85.1084 95.5473 85.1053 95.2782ZM85.1053 97.9497V96.1747C85.0086 96.3667 84.7923 96.4648 84.4593 96.4706H82.9507C82.4639 96.4845 82.1069 96.3566 81.875 96.0862C81.7507 95.9313 81.6712 95.742 81.6387 95.5202C81.619 95.3894 81.6086 95.2951 81.6086 95.237V93.6622C81.6086 93.4202 81.633 93.2197 81.6813 93.0621C81.7297 92.9023 81.8121 92.7632 81.9261 92.6409C82.014 92.5398 82.1039 92.4671 82.1948 92.4218C82.2847 92.3762 82.4038 92.339 82.5549 92.3109C82.7442 92.2781 82.9048 92.2609 83.0386 92.2609H84.3842C84.8237 92.2696 85.0939 92.4021 85.1963 92.6575L85.2676 92.2609H87.3346C87.2565 92.3947 87.2109 92.5199 87.1967 92.6365C87.1781 92.7531 87.1666 92.9793 87.1639 93.3167V96.8918C87.1666 97.2332 87.1781 97.4605 87.1967 97.5744C87.2109 97.6908 87.2565 97.8161 87.3346 97.9497H85.1053ZM80.8208 92.2609L81.0213 93.3194C80.8689 93.2052 80.734 93.1358 80.6173 93.1077C80.475 93.0749 80.2644 93.0577 79.9825 93.0577H78.2332C78.0636 93.0604 77.9669 93.0675 77.9456 93.0787C77.8904 93.106 77.8617 93.1615 77.8617 93.2454C77.8617 93.3451 77.9071 93.4076 77.9997 93.4317C78.0379 93.4401 78.1106 93.4445 78.216 93.4445H79.8331C80.681 93.4032 81.0981 93.7933 81.0839 94.6155V95.2159C81.0839 95.6612 80.9342 95.9936 80.637 96.2157C80.5264 96.2968 80.4239 96.3525 80.33 96.3851C80.2346 96.4162 80.1019 96.4405 79.9331 96.4531C79.761 96.4648 79.6356 96.4706 79.5586 96.4706H75.9567L75.769 95.3905C75.9766 95.4986 76.1433 95.5727 76.2656 95.6109C76.4178 95.6522 76.6481 95.6737 76.9567 95.6737H78.7577C78.8828 95.6737 78.9713 95.6636 79.021 95.6453C79.0964 95.6109 79.1333 95.5426 79.1333 95.4405C79.1333 95.3348 79.1008 95.2667 79.0341 95.237C78.997 95.2228 78.9202 95.2159 78.8036 95.2159H76.978C76.7224 95.2159 76.523 95.1832 76.3823 95.1162C76.0591 94.9379 75.8942 94.6027 75.8857 94.1115V93.4445C75.8857 93.1172 75.9826 92.8501 76.1771 92.6452C76.2826 92.5327 76.3992 92.4502 76.5273 92.3947C76.6557 92.339 76.8218 92.2997 77.028 92.2781C77.1474 92.2666 77.3367 92.2609 77.594 92.2609H80.8208ZM73.2229 93.978V93.524C73.2229 93.3434 73.2014 93.2197 73.1604 93.1528C73.1249 93.1006 73.0746 93.0703 73.0134 93.0621C72.9894 93.0588 72.9326 93.0577 72.8432 93.0577H72.1756C72.0519 93.0577 71.9738 93.0632 71.9424 93.0749C71.8743 93.0989 71.8271 93.1585 71.8061 93.2538C71.7918 93.3153 71.7845 93.4076 71.7845 93.533V93.978H73.2229ZM75.2569 94.7748H71.7845V95.1201C71.7845 95.2867 71.8003 95.3992 71.8301 95.4577C71.8798 95.5683 71.9781 95.6369 72.1221 95.6612C72.1614 95.6694 72.2595 95.6737 72.4176 95.6737H74.2855C74.7024 95.665 75.0026 95.6011 75.1858 95.4814L75.0364 96.4706H71.2881C70.9666 96.4706 70.7219 96.449 70.5555 96.4077C70.3892 96.3667 70.2425 96.2884 70.1174 96.1747C69.8685 95.9469 69.7377 95.5713 69.7262 95.0493V93.6865C69.7147 92.7034 70.1958 92.2281 71.1669 92.2609H73.7561C74.126 92.2609 74.4024 92.2907 74.5857 92.3519C74.7278 92.4062 74.8545 92.4958 74.9668 92.6237C75.0793 92.7518 75.155 92.8913 75.1899 93.0446C75.2342 93.217 75.2569 93.4259 75.2569 93.6737V94.7748ZM65.3677 93.4901H66.46C66.7119 93.4928 66.8753 93.4431 66.9506 93.3407C66.9976 93.2653 67.0219 93.0946 67.0219 92.8274V92.3819C67.0219 92.1341 66.9976 91.961 66.9506 91.861C66.9067 91.7829 66.837 91.7389 66.743 91.7274C66.7261 91.722 66.6693 91.7189 66.5723 91.7189H65.3677V93.4901ZM65.3677 94.4276V95.6243C65.3789 95.9966 65.4587 96.2782 65.6092 96.4706H62.9918C63.1398 96.2728 63.2179 95.9912 63.2291 95.6243V91.6236C63.2179 91.2595 63.1398 90.9792 62.9918 90.7817H67.6464C68.0135 90.7817 68.2954 90.8129 68.4885 90.8768C68.9226 91.0391 69.1447 91.3991 69.1556 91.961V93.2525C69.1474 93.6494 69.0277 93.9479 68.7972 94.1487C68.6478 94.2795 68.4432 94.3634 68.1842 94.4019C68.0818 94.4189 67.9023 94.4276 67.6464 94.4276H65.3677ZM54.6806 90.4944H56.0721L56.6722 91.8569H55.5427L54.6806 90.4944ZM56.6138 94.429H55.6225C55.4247 94.432 55.2909 94.4776 55.2226 94.5669C55.1674 94.6437 55.1387 94.7761 55.1387 94.9624V95.1444C55.1387 95.3279 55.1674 95.4588 55.2226 95.5355C55.2909 95.6254 55.4247 95.671 55.6225 95.6737H56.1259C56.3267 95.671 56.4602 95.6254 56.5258 95.5355C56.584 95.4588 56.6138 95.3279 56.6138 95.1444V94.429ZM53.4131 92.2609H57.2469C57.5414 92.2582 57.772 92.2852 57.9383 92.3407C58.0637 92.3846 58.1844 92.4617 58.3011 92.5696C58.4177 92.678 58.5073 92.7957 58.5685 92.9239C58.6381 93.0703 58.6726 93.2508 58.6726 93.4658V95.4164C58.6753 95.7549 58.6865 95.981 58.7051 96.095C58.7193 96.2113 58.7649 96.3364 58.8433 96.4706H56.7973C56.7361 96.3566 56.6949 96.2072 56.6722 96.0237C56.6337 96.1802 56.5356 96.3009 56.3805 96.3864C56.3138 96.429 56.1587 96.4561 55.9139 96.4706H54.3763C54.1288 96.4706 53.9338 96.4547 53.7931 96.4249C53.5511 96.3667 53.3719 96.2455 53.2553 96.0633C53.1386 95.8813 53.0802 95.6325 53.0802 95.3154V94.6041C53.0832 94.2427 53.2083 93.9752 53.4558 93.8032C53.5809 93.7177 53.7218 93.6649 53.88 93.6494C53.9838 93.6379 54.0734 93.6324 54.1512 93.6324H56.1103C56.2871 93.6294 56.4018 93.6196 56.4559 93.6024C56.5556 93.5671 56.6053 93.4759 56.6053 93.3279C56.6053 93.217 56.5711 93.1429 56.5015 93.1028C56.4433 93.073 56.328 93.0577 56.1559 93.0577H54.1556C53.8117 93.052 53.5172 93.1189 53.2725 93.2585L53.4131 92.2609ZM253.971 83.9265V85.5767C253.971 85.7674 254.011 85.9007 254.091 85.9763C254.167 86.0375 254.292 86.0684 254.467 86.0717H255.079C255.271 86.0684 255.402 86.0233 255.47 85.9334C255.528 85.8515 255.558 85.7234 255.558 85.551V83.9847C255.556 83.7984 255.524 83.6703 255.463 83.6007C255.373 83.5067 255.217 83.4581 254.992 83.4556H254.467C254.13 83.4556 253.965 83.6119 253.971 83.9265ZM253.338 82.6591H256.055C256.44 82.6591 256.729 82.6886 256.921 82.747C257.402 82.9377 257.634 83.3515 257.617 83.9888V85.6677C257.625 86.5125 257.153 86.9122 256.2 86.8682H253.525C253.103 86.8682 252.811 86.8455 252.649 86.8015C252.528 86.7688 252.412 86.7046 252.299 86.6095C252.188 86.5153 252.103 86.4074 252.042 86.285C251.955 86.1102 251.912 85.8862 251.912 85.6177V83.8268C251.909 83.4015 252.077 83.0743 252.416 82.8465C252.581 82.7416 252.77 82.6801 252.988 82.6632C253.049 82.6602 253.166 82.6591 253.338 82.6591ZM249.293 82.6591L249.347 83.3515C249.403 83.1682 249.458 83.0415 249.515 82.9718C249.687 82.7514 249.992 82.6476 250.427 82.6591H251.466V84.0514C251.376 83.9675 251.284 83.9091 251.187 83.8765C251.05 83.8323 250.855 83.8099 250.602 83.8099H250.181C249.959 83.8099 249.786 83.8681 249.66 83.9847C249.544 84.0929 249.485 84.2453 249.485 84.4387V85.8143C249.488 86.1525 249.5 86.379 249.518 86.4929C249.532 86.6095 249.578 86.7343 249.656 86.8682H247.256C247.334 86.7343 247.38 86.6095 247.394 86.4929C247.413 86.379 247.424 86.1525 247.427 85.8143V83.7187C247.424 83.3758 247.413 83.1483 247.394 83.0344C247.38 82.9178 247.334 82.7924 247.256 82.6591H249.293ZM244.455 84.8269H243.464C243.266 84.8296 243.132 84.8752 243.064 84.9648C243.009 85.0416 242.98 85.1741 242.98 85.3603V85.5425C242.98 85.7258 243.009 85.857 243.064 85.9334C243.132 86.0233 243.266 86.0684 243.464 86.0717H243.967C244.168 86.0684 244.302 86.0233 244.367 85.9334C244.425 85.857 244.455 85.7258 244.455 85.5425V84.8269ZM241.254 82.6591H245.088C245.383 82.6558 245.613 82.6831 245.78 82.7388C245.905 82.7825 246.026 82.8593 246.142 82.9677C246.259 83.0756 246.349 83.1937 246.41 83.3218C246.479 83.4682 246.514 83.649 246.514 83.864V85.8143C246.516 86.1525 246.528 86.379 246.546 86.4929C246.561 86.6095 246.606 86.7343 246.684 86.8682H244.639C244.577 86.7543 244.536 86.6051 244.514 86.4213C244.475 86.5781 244.377 86.6988 244.222 86.7843C244.155 86.8269 244 86.854 243.755 86.8682H242.218C241.97 86.8682 241.775 86.8526 241.635 86.8228C241.392 86.7641 241.213 86.6434 241.097 86.4612C240.98 86.2793 240.922 86.0304 240.922 85.7133V85.0017C240.925 84.6406 241.049 84.3729 241.297 84.2011C241.422 84.1156 241.563 84.0631 241.721 84.0473C241.825 84.0358 241.915 84.0303 241.992 84.0303H243.951C244.128 84.0273 244.243 84.0175 244.297 84.0003C244.397 83.9648 244.447 83.8738 244.447 83.7258C244.447 83.6149 244.413 83.5408 244.343 83.501C244.284 83.4712 244.169 83.4556 243.997 83.4556H241.997C241.653 83.4499 241.358 83.5168 241.114 83.6561L241.254 82.6591ZM237.313 86.0717H237.779C237.963 86.0684 238.089 86.0244 238.158 85.9378C238.212 85.8611 238.239 85.7204 238.242 85.5182V83.9547C238.242 83.8028 238.235 83.7075 238.22 83.6676C238.188 83.5875 238.141 83.5321 238.081 83.501C238.021 83.4712 237.929 83.4556 237.804 83.4556H237.237C237.078 83.4556 236.968 83.4928 236.907 83.5679C236.838 83.6547 236.803 83.7758 236.803 83.9347V85.622C236.806 85.7941 236.85 85.9138 236.937 85.9804C237.012 86.0386 237.136 86.0684 237.313 86.0717ZM234.745 88.3476V83.7143C234.742 83.3772 234.731 83.151 234.712 83.0344C234.698 82.9178 234.652 82.7924 234.574 82.6591H236.54L236.637 83.0426C236.684 82.9593 236.724 82.8995 236.758 82.8637C236.863 82.7298 237.114 82.6618 237.508 82.6591H238.972C239.383 82.6618 239.67 82.7255 239.834 82.8508C240.041 83.006 240.173 83.1967 240.229 83.4212C240.276 83.608 240.3 83.7615 240.3 83.8809V85.7045C240.3 86.0419 240.209 86.3148 240.025 86.5267C239.811 86.763 239.534 86.8764 239.192 86.8682H237.503C237.165 86.8655 236.931 86.7343 236.803 86.4757V87.2894C236.806 87.6221 236.818 87.8499 236.836 87.972C236.853 88.0887 236.899 88.214 236.974 88.3476H234.745ZM226.843 82.6591L226.897 83.0756C226.938 82.9093 226.995 82.8022 227.068 82.7541C227.159 82.6902 227.291 82.6591 227.463 82.6591H229.609C229.876 82.6618 230.062 82.6872 230.167 82.7342C230.271 82.7839 230.349 82.8981 230.405 83.0756C230.45 82.915 230.507 82.8082 230.577 82.7541C230.657 82.693 230.793 82.6618 230.985 82.6591H232.633C232.901 82.6591 233.115 82.6872 233.274 82.7429C233.429 82.8011 233.564 82.8962 233.68 83.03C233.795 83.1642 233.87 83.3117 233.903 83.4753C233.941 83.6504 233.963 83.8864 233.965 84.1808V85.8097C233.965 86.191 233.968 86.4188 233.974 86.4929C233.989 86.6021 234.034 86.7261 234.112 86.8682H231.736C231.815 86.7319 231.86 86.6062 231.874 86.4929C231.893 86.3814 231.904 86.1541 231.907 85.8097V83.9932C231.907 83.8268 231.897 83.72 231.877 83.6717C231.839 83.575 231.778 83.5111 231.693 83.4813C231.647 83.4638 231.568 83.4556 231.46 83.4556H230.948C230.775 83.4556 230.658 83.4783 230.597 83.5223C230.524 83.5807 230.487 83.7217 230.484 83.9476V85.8097C230.487 86.1511 230.497 86.379 230.514 86.4929C230.53 86.6062 230.577 86.7319 230.651 86.8682H228.251C228.329 86.7343 228.376 86.6095 228.393 86.4929C228.412 86.376 228.423 86.1481 228.426 85.8097V83.9847C228.426 83.8099 228.403 83.6832 228.359 83.6048C228.31 83.5078 228.2 83.4581 228.03 83.4556H227.4C227.245 83.4556 227.139 83.4895 227.08 83.5594C227.027 83.6233 227.001 83.7473 227.001 83.9306V85.8097C227.003 86.1427 227.015 86.3705 227.033 86.4929C227.05 86.6095 227.097 86.7343 227.175 86.8682H224.771C224.85 86.7343 224.895 86.6095 224.909 86.4929C224.928 86.379 224.939 86.1511 224.942 85.8097V83.7143C224.939 83.3772 224.928 83.151 224.909 83.0344C224.895 82.9178 224.85 82.7924 224.771 82.6591H226.843ZM221.079 84.4087L220.349 82.6457L219.553 84.4087H221.079ZM219.64 81.1796H222.15L224.146 86.1968C224.253 86.4415 224.402 86.6647 224.588 86.8682H221.725C221.82 86.7576 221.867 86.6319 221.867 86.4929C221.867 86.335 221.82 86.1481 221.725 85.9348L221.463 85.3265H219.124L218.769 86.1058C218.703 86.2552 218.67 86.3872 218.67 86.5011C218.67 86.5937 218.705 86.716 218.778 86.8682H217.182C217.432 86.5879 217.659 86.2309 217.861 85.7971L219.869 81.5165C219.811 81.3886 219.735 81.2761 219.64 81.1796ZM212.997 84.3756V83.9222C212.997 83.7416 212.976 83.6176 212.934 83.5507C212.899 83.498 212.849 83.4682 212.788 83.46C212.764 83.457 212.707 83.4556 212.617 83.4556H211.95C211.826 83.4556 211.748 83.4613 211.717 83.4725C211.649 83.4969 211.602 83.5561 211.58 83.652C211.566 83.7127 211.559 83.8053 211.559 83.9306V84.3756H212.997ZM215.031 85.1724H211.559V85.5182C211.559 85.6846 211.574 85.7971 211.604 85.8553C211.654 85.9659 211.752 86.0345 211.896 86.0588C211.936 86.0673 212.034 86.0717 212.192 86.0717H214.059C214.477 86.0632 214.777 85.999 214.96 85.8794L214.811 86.8682H211.062C210.741 86.8682 210.496 86.8469 210.329 86.8059C210.163 86.7641 210.017 86.686 209.892 86.5724C209.643 86.3445 209.512 85.9689 209.5 85.4472V84.0841C209.489 83.1013 209.97 82.626 210.941 82.6591H213.53C213.9 82.6591 214.176 82.6886 214.36 82.7498C214.502 82.8039 214.629 82.8934 214.741 83.0218C214.853 83.1499 214.929 83.2893 214.964 83.4428C215.009 83.6149 215.031 83.8241 215.031 84.0716V85.1724Z" fill="#231F20"/>
<path fill-rule="evenodd" clip-rule="evenodd" d="M253.969 93.5283V95.1785C253.969 95.3694 254.009 95.503 254.09 95.5784C254.166 95.6396 254.291 95.671 254.466 95.6737H255.078C255.269 95.671 255.4 95.6254 255.468 95.5355C255.527 95.4533 255.557 95.3252 255.557 95.1531V93.5868C255.554 93.4005 255.523 93.2724 255.461 93.203C255.372 93.1088 255.215 93.0604 254.991 93.0577H254.466C254.129 93.0577 253.963 93.2142 253.969 93.5283ZM253.336 92.2609H256.053C256.438 92.2609 256.728 92.2906 256.919 92.3491C257.401 92.5398 257.632 92.9536 257.616 93.5909V95.2697C257.624 96.1146 257.151 96.5142 256.198 96.4705H253.524C253.101 96.4705 252.81 96.4476 252.647 96.4033C252.527 96.3708 252.41 96.3066 252.298 96.2113C252.187 96.1176 252.101 96.0097 252.04 95.8873C251.953 95.7122 251.911 95.4888 251.911 95.2197V93.4292C251.908 93.0036 252.076 92.6761 252.414 92.4488C252.579 92.3434 252.768 92.2822 252.986 92.265C253.047 92.2622 253.164 92.2609 253.336 92.2609ZM249.292 92.2609L249.346 92.9536C249.401 92.7703 249.457 92.6436 249.514 92.5742C249.686 92.3535 249.99 92.2497 250.425 92.2609H251.464V93.6537C251.374 93.5698 251.282 93.5111 251.185 93.4789C251.049 93.4344 250.854 93.4117 250.6 93.4117H250.179C249.957 93.4117 249.784 93.4701 249.659 93.5868C249.542 93.6947 249.484 93.8471 249.484 94.0408V95.4164C249.487 95.7548 249.498 95.981 249.516 96.0949C249.531 96.2113 249.576 96.3364 249.654 96.4705H247.255C247.333 96.3364 247.378 96.2113 247.393 96.0949C247.411 95.981 247.423 95.7548 247.425 95.4164V93.3207C247.423 92.9779 247.411 92.7504 247.393 92.6365C247.378 92.5198 247.333 92.3947 247.255 92.2609H249.292ZM246.483 92.2609V95.412C246.486 95.7535 246.497 95.981 246.516 96.0949C246.53 96.2113 246.576 96.3364 246.654 96.4705H244.254C244.333 96.3364 244.378 96.2113 244.392 96.0949C244.411 95.981 244.422 95.7535 244.425 95.412V93.3194C244.422 92.9806 244.411 92.7531 244.392 92.6365C244.378 92.5198 244.333 92.3947 244.254 92.2609H246.483ZM246.483 91.8443H244.425V90.7817H246.483V91.8443ZM241.62 93.9779V93.524C241.62 93.3434 241.599 93.2197 241.557 93.1527C241.522 93.1006 241.472 93.0702 241.411 93.062C241.387 93.0588 241.33 93.0577 241.24 93.0577H240.573C240.449 93.0577 240.371 93.0631 240.34 93.0749C240.271 93.0989 240.224 93.1585 240.203 93.2538C240.189 93.3153 240.181 93.4076 240.181 93.533V93.9779H241.62ZM243.654 94.7748H240.181V95.12C240.181 95.2867 240.197 95.3992 240.227 95.4576C240.277 95.5683 240.375 95.6368 240.519 95.6612C240.558 95.6693 240.657 95.6737 240.815 95.6737H242.682C243.1 95.665 243.399 95.6011 243.583 95.4814L243.434 96.4705H239.685C239.364 96.4705 239.119 96.4489 238.952 96.4077C238.786 96.3667 238.639 96.2883 238.515 96.1747C238.265 95.9469 238.135 95.5713 238.123 95.0493V93.6865C238.112 92.7034 238.593 92.2281 239.564 92.2609H242.153C242.523 92.2609 242.799 92.2906 242.983 92.3518C243.125 92.4062 243.252 92.4958 243.364 92.6236C243.476 92.7517 243.552 92.8913 243.587 93.0446C243.631 93.2169 243.654 93.4259 243.654 93.6736V94.7748ZM233.647 92.2609L233.735 92.6818C233.813 92.5327 233.899 92.4261 233.998 92.3649C234.111 92.2947 234.272 92.2609 234.481 92.2609H236.024C236.318 92.2609 236.549 92.304 236.719 92.3906C237.157 92.6408 237.371 93.062 237.357 93.6537V95.412C237.359 95.7535 237.371 95.981 237.389 96.0949C237.403 96.2113 237.449 96.3364 237.527 96.4705H235.127C235.206 96.3364 235.251 96.2113 235.265 96.0949C235.284 95.9753 235.295 95.7477 235.298 95.412V93.5824C235.295 93.3808 235.271 93.2453 235.227 93.1787C235.172 93.0973 235.049 93.0577 234.86 93.0577H234.227C234.102 93.0577 234.009 93.0877 233.948 93.1459C233.894 93.1986 233.867 93.3065 233.864 93.4701V95.412C233.867 95.7477 233.878 95.9753 233.897 96.0949C233.914 96.2113 233.959 96.3364 234.034 96.4705H231.635C231.713 96.3364 231.758 96.2113 231.773 96.0949C231.791 95.981 231.803 95.7535 231.805 95.412V93.3166C231.803 92.9793 231.791 92.7531 231.773 92.6365C231.758 92.5198 231.713 92.3947 231.635 92.2609H233.647ZM228.834 94.4289H227.843C227.644 94.4319 227.511 94.4776 227.443 94.5669C227.387 94.6436 227.359 94.7761 227.359 94.9624V95.1443C227.359 95.3279 227.387 95.4587 227.443 95.5355C227.511 95.6254 227.644 95.671 227.843 95.6737H228.346C228.546 95.671 228.68 95.6254 228.746 95.5355C228.804 95.4587 228.834 95.3279 228.834 95.1443V94.4289ZM225.633 92.2609H229.467C229.761 92.2581 229.992 92.2852 230.158 92.3406C230.283 92.3846 230.404 92.4616 230.521 92.5695C230.637 92.678 230.727 92.7957 230.789 92.9238C230.858 93.0702 230.892 93.2508 230.892 93.4658V95.4164C230.895 95.7548 230.906 95.981 230.925 96.0949C230.939 96.2113 230.985 96.3364 231.063 96.4705H229.017C228.956 96.3566 228.915 96.2072 228.892 96.0236C228.854 96.1802 228.755 96.3009 228.601 96.3864C228.534 96.429 228.378 96.456 228.134 96.4705H226.596C226.349 96.4705 226.154 96.4547 226.013 96.4249C225.771 96.3667 225.592 96.2454 225.475 96.0632C225.359 95.8813 225.3 95.6325 225.3 95.3153V94.604C225.303 94.2426 225.428 93.9752 225.676 93.8031C225.801 93.7176 225.942 93.6649 226.1 93.6493C226.204 93.6379 226.293 93.6324 226.371 93.6324H228.33C228.507 93.6294 228.622 93.6196 228.676 93.6024C228.776 93.5671 228.825 93.4759 228.825 93.3278C228.825 93.2169 228.791 93.1429 228.721 93.1027C228.663 93.073 228.548 93.0577 228.376 93.0577H226.376C226.031 93.0519 225.737 93.1189 225.492 93.2584L225.633 92.2609ZM219.877 96.4705L219.706 95.3407C219.899 95.4746 220.213 95.5385 220.653 95.533H221.862C222.102 95.5355 222.267 95.479 222.353 95.3623C222.4 95.2782 222.424 95.1132 222.424 94.8657V91.6236C222.412 91.251 222.334 90.971 222.186 90.7817H224.825C224.677 90.971 224.599 91.251 224.587 91.6236V94.8417C224.585 95.3932 224.478 95.7833 224.266 96.0078C224.108 96.1886 223.889 96.3211 223.607 96.4033C223.452 96.4476 223.293 96.4705 223.128 96.4705H219.877ZM214.012 93.9779V93.524C214.012 93.3434 213.99 93.2197 213.949 93.1527C213.913 93.1006 213.864 93.0702 213.802 93.062C213.778 93.0588 213.721 93.0577 213.632 93.0577H212.965C212.841 93.0577 212.762 93.0631 212.731 93.0749C212.663 93.0989 212.616 93.1585 212.595 93.2538C212.58 93.3153 212.573 93.4076 212.573 93.533V93.9779H214.012ZM216.046 94.7748H212.573V95.12C212.573 95.2867 212.589 95.3992 212.619 95.4576C212.669 95.5683 212.767 95.6368 212.911 95.6612C212.95 95.6693 213.048 95.6737 213.206 95.6737H215.074C215.491 95.665 215.791 95.6011 215.975 95.4814L215.825 96.4705H212.077C211.756 96.4705 211.511 96.4489 211.344 96.4077C211.178 96.3667 211.031 96.2883 210.906 96.1747C210.657 95.9469 210.526 95.5713 210.515 95.0493V93.6865C210.504 92.7034 210.985 92.2281 211.956 92.2609H214.545C214.915 92.2609 215.191 92.2906 215.375 92.3518C215.517 92.4062 215.643 92.4958 215.756 92.6236C215.868 92.7517 215.944 92.8913 215.979 93.0446C216.023 93.2169 216.046 93.4259 216.046 93.6736V94.7748ZM206.778 95.6737H207.244C207.428 95.671 207.555 95.6267 207.623 95.5401C207.678 95.4631 207.707 95.3222 207.707 95.12V93.5567C207.707 93.4049 207.7 93.3093 207.686 93.2696C207.653 93.1899 207.606 93.1344 207.546 93.1027C207.486 93.073 207.395 93.0577 207.273 93.0577H206.707C206.548 93.0577 206.438 93.0946 206.377 93.1699C206.307 93.2538 206.273 93.3759 206.273 93.5371V95.2241C206.276 95.3962 206.318 95.5156 206.402 95.5828C206.48 95.6407 206.604 95.671 206.778 95.6737ZM209.765 90.7817V95.412C209.768 95.7535 209.78 95.981 209.798 96.0949C209.812 96.2113 209.858 96.3364 209.936 96.4705H207.985L207.895 96.0906C207.799 96.2468 207.697 96.3465 207.586 96.3908C207.449 96.4435 207.262 96.4705 207.023 96.4705H205.56C205.135 96.4675 204.842 96.4033 204.681 96.2782C204.473 96.1233 204.34 95.9324 204.282 95.7079C204.237 95.5355 204.215 95.3806 204.215 95.2438V93.4248C204.209 93.0932 204.3 92.82 204.485 92.6023C204.703 92.3663 204.98 92.2524 205.318 92.2609H207.007C207.346 92.2639 207.579 92.3947 207.707 92.6537V91.8397C207.704 91.4958 207.693 91.2679 207.674 91.157C207.66 91.0431 207.615 90.918 207.536 90.7817H209.765ZM196.345 93.5283V95.1785C196.345 95.3694 196.384 95.503 196.465 95.5784C196.541 95.6396 196.666 95.671 196.841 95.6737H197.453C197.645 95.671 197.776 95.6254 197.844 95.5355C197.902 95.4533 197.932 95.3252 197.932 95.1531V93.5868C197.929 93.4005 197.898 93.2724 197.837 93.203C197.747 93.1088 197.59 93.0604 197.366 93.0577H196.841C196.504 93.0577 196.339 93.2142 196.345 93.5283ZM195.711 92.2609H198.428C198.814 92.2609 199.103 92.2906 199.295 92.3491C199.776 92.5398 200.008 92.9536 199.99 93.5909V95.2697C199.999 96.1146 199.527 96.5142 198.573 96.4705H195.899C195.477 96.4705 195.185 96.4476 195.023 96.4033C194.902 96.3708 194.785 96.3066 194.673 96.2113C194.562 96.1176 194.476 96.0097 194.415 95.8873C194.329 95.7122 194.286 95.4888 194.286 95.2197V93.4292C194.283 93.0036 194.451 92.6761 194.79 92.4488C194.954 92.3434 195.143 92.2822 195.361 92.265C195.423 92.2622 195.539 92.2609 195.711 92.2609ZM193.498 92.2609V95.412C193.501 95.7535 193.512 95.981 193.53 96.0949C193.545 96.2113 193.591 96.3364 193.668 96.4705H191.269C191.347 96.3364 191.392 96.2113 191.407 96.0949C191.425 95.981 191.437 95.7535 191.439 95.412V93.3194C191.437 92.9806 191.425 92.7531 191.407 92.6365C191.392 92.5198 191.347 92.3947 191.269 92.2609H193.498ZM193.498 91.8443H191.439V90.7817H193.498V91.8443ZM186.798 93.1077H188.007C188.192 93.1077 188.317 93.0719 188.381 92.9989C188.428 92.9266 188.452 92.7971 188.452 92.6111V92.3275C188.452 92.0574 188.428 91.8896 188.381 91.823C188.317 91.7503 188.173 91.7159 187.948 91.7189H186.798V93.1077ZM187.465 94.0449H186.798V95.6284C186.809 95.998 186.888 96.2782 187.035 96.4705H184.396C184.544 96.2728 184.622 95.9925 184.634 95.6284V91.6236C184.622 91.2595 184.544 90.9792 184.396 90.7817H189.077C189.444 90.7817 189.727 90.8129 189.923 90.8768C190.357 91.039 190.579 91.4004 190.59 91.9609V93.1869C190.59 93.4445 190.557 93.6324 190.49 93.749C190.371 93.9525 190.178 94.0533 189.91 94.0533C189.869 94.0533 189.816 94.0506 189.752 94.0449L190.532 95.695C190.668 95.9925 190.814 96.2512 190.97 96.4705H188.469L187.465 94.0449Z" fill="#231F20"/>
</g>
</g>
</g>
<defs>
<clipPath id="clip0_107_85">
<rect width="272" height="127.469" fill="white" transform="translate(0 0.462646)"/>
</clipPath>
<clipPath id="clip1_107_85">
<rect width="230" height="162.53" fill="white" transform="translate(42 -7.53735)"/>
</clipPath>
</defs>
</svg>
