<svg width="272" height="129" viewBox="0 0 272 129" fill="none" xmlns="http://www.w3.org/2000/svg">
<g clip-path="url(#clip0_107_97)">
<g clip-path="url(#clip1_107_97)">
<path fill-rule="evenodd" clip-rule="evenodd" d="M80 16.0664H192V128.066H80V16.0664Z" fill="white"/>
<path fill-rule="evenodd" clip-rule="evenodd" d="M95.253 23.2789H176.746V33.8685H153.266V69.321L120.287 33.8685H95.253V23.2789ZM118.275 93.722V58.0371L152.068 93.7226H176.747V104.312H95.253V93.7226H118.275V93.722ZM96.9973 120.638L99.5586 108.4H102.072L99.5191 120.638H96.9973ZM111.639 120.638H109.292L105.987 112.416L104.269 120.638H101.923L104.476 108.4H106.829L110.143 116.59L111.855 108.4H114.192L111.639 120.638ZM121.237 120.638H118.85L118.408 110.413L116.463 120.638H114.192L116.748 108.4H120.335L120.711 116.974L124.885 108.4H128.517L125.953 120.638H123.656L126.069 110.486L121.237 120.638ZM128.44 120.638L130.995 108.4H140.068L139.644 110.446H133.09L132.506 113.224H138.84L138.415 115.269H132.079L131.312 118.591H138.431L137.999 120.637L128.44 120.638ZM145.168 120.638H142.646L144.783 110.447H141.196L141.62 108.401H151.262L150.838 110.447H147.296L145.168 120.638ZM152.854 120.638H150.336L152.897 108.4H158.33C159.265 108.4 159.995 108.498 160.513 108.689C161.034 108.883 161.457 109.234 161.776 109.745C162.095 110.256 162.253 110.876 162.253 111.606C162.253 112.645 161.944 113.506 161.32 114.181C160.697 114.856 159.753 115.275 158.491 115.439C158.813 115.726 159.117 116.107 159.399 116.58C159.963 117.538 160.588 118.891 161.28 120.637H158.573C158.356 119.947 157.932 118.871 157.296 117.406C156.951 116.617 156.585 116.084 156.195 115.814C155.955 115.652 155.539 115.571 154.943 115.571H153.918L152.854 120.638ZM154.299 113.734H155.635C156.989 113.734 157.886 113.655 158.328 113.493C158.769 113.333 159.116 113.08 159.367 112.734C159.616 112.386 159.741 112.027 159.741 111.648C159.741 111.201 159.561 110.869 159.199 110.646C158.977 110.511 158.496 110.446 157.755 110.446H154.986L154.299 113.734ZM163.422 115.837C163.422 115.117 163.533 114.353 163.75 113.551C164.031 112.478 164.464 111.546 165.045 110.754C165.626 109.965 166.362 109.341 167.245 108.883C168.129 108.421 169.136 108.192 170.268 108.192C171.78 108.192 173.003 108.662 173.935 109.603C174.868 110.543 175.333 111.791 175.333 113.342C175.333 114.634 175.031 115.882 174.425 117.09C173.818 118.298 172.994 119.227 171.955 119.877C170.912 120.53 169.735 120.854 168.422 120.854C167.282 120.854 166.325 120.595 165.55 120.079C164.778 119.56 164.231 118.92 163.906 118.154C163.585 117.39 163.422 116.618 163.422 115.837ZM165.909 115.788C165.909 116.629 166.166 117.333 166.678 117.9C167.191 118.467 167.864 118.752 168.698 118.752C169.377 118.752 170.03 118.527 170.656 118.08C171.283 117.632 171.799 116.954 172.208 116.043C172.616 115.134 172.821 114.247 172.821 113.384C172.821 112.422 172.563 111.666 172.046 111.119C171.527 110.57 170.871 110.296 170.066 110.296C168.838 110.296 167.838 110.869 167.067 112.017C166.297 113.162 165.909 114.419 165.909 115.788Z" fill="black"/>
</g>
</g>
<defs>
<clipPath id="clip0_107_97">
<rect width="272" height="128" fill="white" transform="translate(0 0.462646)"/>
</clipPath>
<clipPath id="clip1_107_97">
<rect width="112" height="112" fill="white" transform="translate(80 16.0664)"/>
</clipPath>
</defs>
</svg>
