<?xml version="1.0" standalone="no"?>
<!DOCTYPE svg PUBLIC "-//W3C//DTD SVG 20010904//EN"
 "http://www.w3.org/TR/2001/REC-SVG-20010904/DTD/svg10.dtd">
<svg version="1.0" xmlns="http://www.w3.org/2000/svg"
 width="128.000000pt" height="128.000000pt" viewBox="0 0 128.000000 128.000000"
 preserveAspectRatio="xMidYMid meet">

<g transform="translate(0.000000,128.000000) scale(0.100000,-0.100000)"
fill="#ffffff" stroke="none">
<path d="M81 1267 c-19 -7 -44 -25 -55 -40 -21 -28 -21 -36 -21 -587 0 -551 0
-559 21 -587 38 -51 48 -52 614 -52 566 0 576 1 614 52 21 28 21 36 21 587 0
551 0 559 -21 587 -11 15 -36 33 -55 40 -48 17 -1070 17 -1118 0z m306 -170
c57 -63 56 -137 -2 -193 -43 -40 -90 -50 -144 -28 -107 43 -119 176 -21 242
28 19 44 23 84 19 41 -4 55 -11 83 -40z m638 -303 c43 -22 85 -76 105 -134 8
-22 14 -121 17 -265 4 -197 3 -233 -10 -243 -10 -9 -45 -12 -108 -10 l-94 3
-5 205 c-3 113 -9 212 -14 220 -27 46 -50 60 -96 60 -35 0 -51 -5 -67 -22 -43
-48 -47 -67 -53 -268 l-5 -195 -100 0 -100 0 0 330 0 330 100 0 100 0 3 -32 3
-33 37 29 c53 41 87 51 172 48 53 -1 87 -8 115 -23z m-637 4 c17 -17 17 -629
0 -646 -16 -16 -180 -16 -196 0 -17 17 -17 629 0 646 16 16 180 16 196 0z"/>
</g>
</svg>
