<?xml version="1.0" standalone="no"?>
<!DOCTYPE svg PUBLIC "-//W3C//DTD SVG 20010904//EN"
 "http://www.w3.org/TR/2001/REC-SVG-20010904/DTD/svg10.dtd">
<svg version="1.0" xmlns="http://www.w3.org/2000/svg"
 width="2480.000000pt" height="1748.000000pt" viewBox="0 0 2480.000000 1748.000000"
 preserveAspectRatio="xMidYMid meet">

<g transform="translate(0.000000,1748.000000) scale(0.100000,-0.100000)"
fill="#000000" stroke="none">
<path d="M8665 11307 c-60 -27 -168 -69 -240 -93 -71 -24 -130 -47 -130 -51 1
-5 11 -39 23 -78 52 -164 54 -212 59 -1062 5 -876 -1 -1053 -42 -1220 -13 -57
-31 -119 -39 -138 l-15 -35 294 0 294 0 -24 71 c-62 182 -59 101 -65 1435 l-5
1221 -110 -50z"/>
<path d="M9320 11315 c-62 -19 -123 -75 -156 -140 -24 -50 -26 -64 -22 -139 5
-88 28 -145 80 -193 71 -65 189 -89 293 -59 110 32 195 148 195 266 0 115 -85
233 -190 264 -65 19 -139 19 -200 1z"/>
<path d="M16336 11316 c-88 -33 -147 -96 -173 -185 -30 -105 1 -215 82 -290
131 -121 364 -80 447 78 24 45 28 65 28 130 0 121 -47 198 -154 253 -53 27
-174 35 -230 14z"/>
<path d="M12043 11217 c-100 -147 -254 -285 -450 -403 -57 -34 -100 -65 -96
-67 5 -3 46 -11 92 -18 163 -23 360 4 507 71 76 34 196 115 244 165 l34 35
-139 140 c-77 77 -142 140 -145 140 -3 0 -24 -29 -47 -63z"/>
<path d="M4750 11126 c0 -4 13 -51 30 -106 59 -199 60 -226 60 -1140 0 -904
-2 -943 -57 -1128 -14 -48 -28 -95 -30 -104 -5 -17 14 -18 301 -18 168 0 306
1 306 3 0 2 -11 37 -25 77 -54 160 -68 264 -73 556 l-4 271 164 6 c128 4 183
10 258 30 351 91 577 328 630 661 16 96 8 320 -14 401 -54 199 -188 347 -381
421 -163 62 -208 66 -707 71 -252 3 -458 2 -458 -1z m772 -152 c184 -54 294
-182 344 -399 28 -120 25 -389 -5 -500 -31 -118 -76 -201 -142 -268 -92 -91
-217 -136 -381 -137 l-78 0 0 619 c0 340 3 640 7 666 l6 48 98 -7 c54 -4 122
-14 151 -22z"/>
<path d="M10455 11039 c-78 -44 -241 -122 -298 -142 -17 -7 -18 -17 -13 -130
4 -67 9 -141 12 -164 l5 -43 -100 0 -99 0 -7 -42 c-3 -24 -9 -51 -11 -60 -5
-15 6 -18 103 -20 l108 -3 5 -755 c5 -748 5 -756 27 -820 46 -132 105 -205
203 -247 50 -21 186 -28 251 -13 136 32 263 132 320 254 28 60 50 166 34 166
-4 0 -20 -9 -35 -20 -16 -12 -53 -31 -82 -44 -142 -64 -252 -31 -297 90 -20
53 -21 73 -21 724 l0 670 209 0 c116 0 212 3 214 8 3 4 8 31 12 60 l7 52 -221
0 -221 0 0 265 c0 146 -3 265 -7 265 -5 -1 -48 -24 -98 -51z"/>
<path d="M7155 10589 c-360 -51 -608 -354 -665 -813 -25 -199 0 -472 60 -646
109 -314 335 -512 616 -539 368 -36 672 172 800 547 127 371 81 852 -106 1133
-165 248 -413 360 -705 318z m164 -165 c164 -82 263 -390 278 -869 17 -523
-95 -817 -309 -817 -229 0 -371 370 -371 967 -1 283 21 434 83 570 70 156 191
212 319 149z"/>
<path d="M11805 10590 c-287 -46 -507 -254 -609 -578 -76 -242 -84 -540 -21
-789 80 -314 290 -543 562 -614 98 -25 269 -28 364 -5 192 44 343 170 414 343
23 58 42 133 32 133 -2 0 -31 -16 -63 -35 -121 -73 -242 -101 -394 -92 -166
11 -281 59 -375 158 -90 94 -153 251 -171 422 l-7 67 517 0 516 0 0 198 c0
156 -4 217 -20 292 -51 250 -210 427 -435 485 -75 20 -231 27 -310 15z m166
-161 c114 -57 177 -220 186 -484 6 -159 -5 -207 -52 -225 -15 -6 -143 -10
-301 -10 l-274 0 0 63 c0 249 61 489 149 590 79 90 193 116 292 66z"/>
<path d="M9505 10540 c-60 -26 -165 -66 -232 -90 -68 -23 -123 -46 -123 -49 0
-4 9 -31 19 -61 54 -154 56 -181 56 -815 0 -640 0 -646 -59 -827 l-22 -68 288
0 c158 0 288 2 288 3 0 2 -9 30 -20 63 -11 32 -30 102 -42 154 -21 92 -22 119
-25 918 -2 452 -7 822 -11 821 -4 -1 -56 -22 -117 -49z"/>
<path d="M13525 10574 c-336 -75 -573 -313 -669 -673 -80 -298 -51 -642 74
-891 136 -272 364 -422 644 -422 174 0 303 49 406 152 59 59 121 166 140 240
6 25 14 54 17 64 5 18 3 18 -28 -3 -176 -117 -383 -138 -554 -57 -158 75 -262
234 -315 481 -30 141 -39 471 -16 602 29 168 77 259 163 310 41 24 58 28 123
28 65 0 84 -5 140 -34 86 -44 196 -156 287 -293 l72 -107 9 47 c46 216 93 495
86 502 -5 4 -47 20 -94 36 -76 24 -103 27 -250 30 -122 3 -183 -1 -235 -12z"/>
<path d="M14720 10570 c-27 -15 -152 -73 -357 -165 -1 -1 9 -33 22 -71 56
-160 60 -212 60 -799 0 -575 -3 -628 -50 -789 -13 -45 -27 -89 -30 -98 -7 -17
11 -18 283 -18 l290 0 -29 90 c-55 172 -59 221 -59 843 l0 569 53 51 c29 29
82 67 117 86 55 30 77 35 145 39 69 3 86 0 125 -20 25 -13 57 -41 72 -63 53
-76 58 -129 58 -687 0 -487 8 -676 34 -831 l12 -72 228 -3 c192 -2 227 0 223
12 -18 45 -50 161 -68 245 -20 90 -22 135 -29 706 -8 671 -8 678 -72 797 -62
116 -171 184 -313 195 -207 16 -405 -84 -535 -269 -55 -78 -53 -79 -65 37 -11
108 -48 235 -69 235 -6 -1 -27 -9 -46 -20z"/>
<path d="M16531 10544 c-57 -24 -163 -65 -235 -91 -72 -26 -132 -47 -133 -48
-1 0 9 -31 23 -69 54 -149 58 -213 59 -811 0 -584 -2 -611 -50 -780 -13 -44
-27 -88 -30 -97 -7 -17 11 -18 282 -18 l290 0 -20 58 c-10 31 -28 95 -40 142
-20 82 -21 113 -24 923 -2 460 -7 837 -11 836 -4 0 -54 -21 -111 -45z"/>
<path d="M17689 10570 c-160 -33 -353 -145 -448 -258 -103 -125 -175 -268
-218 -437 -20 -80 -26 -134 -30 -267 -8 -243 18 -396 97 -564 109 -235 274
-381 495 -439 79 -21 251 -21 330 0 184 48 323 185 379 374 24 82 22 84 -46
41 -90 -59 -172 -82 -293 -82 -251 -1 -414 128 -504 398 -48 144 -64 263 -65
484 -1 292 36 435 136 525 84 75 188 84 306 24 78 -39 208 -173 293 -303 35
-53 65 -94 66 -89 1 4 23 121 48 258 25 138 48 257 51 267 6 20 -65 49 -179
72 -105 22 -306 20 -418 -4z"/>
<path d="M19096 10573 c-311 -66 -485 -286 -486 -610 l0 -93 26 0 c15 0 114
-5 221 -11 107 -6 196 -9 199 -6 3 3 -2 22 -11 43 -53 126 -76 333 -46 418 22
63 75 114 139 132 105 31 204 3 276 -76 72 -80 104 -201 113 -433 l6 -147 -39
-38 c-48 -45 -159 -101 -375 -188 -360 -145 -479 -228 -552 -382 -29 -61 -32
-76 -32 -167 0 -118 17 -176 73 -250 43 -58 108 -104 190 -136 48 -19 76 -23
182 -23 109 0 136 4 206 27 102 34 212 105 286 186 52 56 58 59 62 39 15 -77
37 -160 50 -191 l15 -37 217 0 c202 0 216 1 209 18 -26 64 -57 167 -71 236
-14 67 -18 178 -24 636 -7 523 -8 560 -29 639 -59 231 -198 370 -416 416 -90
19 -298 18 -389 -2z m415 -1112 c17 -21 19 -44 19 -250 l0 -227 -52 -31 c-80
-48 -166 -73 -251 -73 -132 0 -214 46 -263 147 -24 48 -28 70 -29 142 0 108
20 165 79 219 76 70 207 103 390 98 79 -2 91 -5 107 -25z"/>
<path d="M4800 7940 l0 -230 230 0 230 0 0 230 0 230 -230 0 -230 0 0 -230z"/>
<path d="M7000 7940 l0 -230 235 0 235 0 0 230 0 230 -235 0 -235 0 0 -230z"/>
<path d="M8340 7940 l0 -230 230 0 230 0 0 230 0 230 -230 0 -230 0 0 -230z"/>
<path d="M9190 7940 l0 -230 230 0 230 0 0 230 0 230 -230 0 -230 0 0 -230z"/>
<path d="M16136 8148 c48 -149 47 -137 54 -678 6 -441 9 -524 24 -575 48 -169
145 -269 301 -310 76 -19 231 -19 314 0 161 38 270 145 317 311 15 51 18 132
24 574 l6 515 27 88 c15 48 27 89 27 92 0 3 -54 5 -120 5 -66 0 -120 -2 -120
-5 0 -2 11 -38 25 -78 40 -121 47 -225 43 -692 -4 -484 -6 -495 -79 -579 -55
-62 -123 -89 -224 -90 -166 0 -266 87 -295 256 -8 45 -10 213 -8 534 4 439 6
474 25 544 12 41 24 83 28 93 7 16 -6 17 -185 17 l-191 0 7 -22z"/>
<path d="M17424 8153 c4 -9 17 -53 29 -97 22 -79 22 -94 22 -666 0 -568 -1
-587 -22 -670 -12 -47 -25 -93 -28 -102 -7 -17 6 -18 185 -18 l191 0 -7 23
c-44 136 -46 159 -51 445 l-5 282 53 0 c133 -1 256 -48 346 -132 l53 -51 0
229 0 228 -52 -50 c-29 -28 -65 -58 -79 -67 -49 -30 -143 -56 -232 -63 l-87
-7 0 275 c0 151 3 297 7 323 l6 48 81 -6 c177 -13 321 -96 422 -243 l39 -57 6
94 c4 52 7 140 8 197 l1 102 -446 0 c-415 0 -446 -1 -440 -17z"/>
<path d="M18470 8165 c0 -3 9 -37 20 -77 34 -128 40 -231 40 -703 0 -472 -6
-575 -40 -703 -11 -40 -20 -74 -20 -77 0 -3 86 -5 190 -5 105 0 190 1 190 3 0
1 -12 47 -26 102 -25 91 -27 121 -32 333 l-4 232 95 0 c80 0 98 -3 121 -21 39
-31 46 -48 140 -353 47 -153 89 -282 92 -287 6 -10 334 -13 334 -3 0 3 -8 18
-19 32 -43 62 -83 160 -146 362 -76 242 -94 283 -134 308 -15 9 -28 22 -27 27
0 6 23 26 49 47 62 46 119 122 148 196 30 75 33 240 6 318 -52 150 -176 238
-372 264 -71 10 -605 14 -605 5z m553 -107 c58 -25 109 -83 139 -157 19 -49
22 -75 23 -201 0 -131 -2 -150 -23 -195 -51 -111 -131 -155 -282 -155 l-90 0
0 364 0 365 28 4 c50 9 156 -5 205 -25z"/>
<path d="M19686 8148 c50 -158 48 -112 51 -869 3 -594 1 -722 -11 -808 -17
-112 -51 -208 -103 -289 -18 -29 -33 -54 -33 -57 0 -8 75 28 124 60 133 85
219 217 263 405 13 54 17 183 23 735 l7 670 25 88 25 87 -189 0 -189 0 7 -22z"/>
</g>
</svg>
