<?xml version="1.0" standalone="no"?>
<!DOCTYPE svg PUBLIC "-//W3C//DTD SVG 20010904//EN"
 "http://www.w3.org/TR/2001/REC-SVG-20010904/DTD/svg10.dtd">
<svg version="1.0" xmlns="http://www.w3.org/2000/svg"
 width="128.000000pt" height="128.000000pt" viewBox="0 0 128.000000 128.000000"
 preserveAspectRatio="xMidYMid meet">

<g transform="translate(0.000000,128.000000) scale(0.100000,-0.100000)"
fill="#ffffff" stroke="none">
<path d="M720 1240 c0 -38 1 -40 33 -40 79 -1 195 -46 271 -106 90 -71 161
-200 174 -319 l7 -60 38 -3 c36 -3 37 -2 37 31 0 56 -38 185 -72 246 -46 81
-159 189 -239 228 -57 27 -189 63 -234 63 -11 0 -15 -11 -15 -40z"/>
<path d="M138 1092 c-86 -88 -108 -117 -123 -161 -25 -77 -17 -144 30 -237
139 -274 373 -510 645 -650 68 -35 82 -39 155 -39 102 0 135 19 263 147 l93
94 -150 107 c-83 59 -157 110 -164 113 -8 3 -56 -20 -106 -52 l-92 -56 -52 35
c-117 79 -267 244 -267 294 0 12 23 58 50 101 28 43 50 83 50 89 0 7 -208 304
-224 321 -2 1 -50 -46 -108 -106z"/>
<path d="M720 1091 c0 -39 2 -41 30 -41 53 0 142 -41 193 -89 58 -54 94 -121
105 -193 7 -53 7 -53 46 -56 l39 -3 -6 48 c-22 191 -168 339 -359 367 l-48 7
0 -40z"/>
<path d="M720 942 c0 -38 1 -40 39 -46 58 -9 120 -68 135 -131 12 -48 15 -50
50 -53 42 -4 45 6 21 84 -27 90 -109 160 -207 178 l-38 7 0 -39z"/>
<path d="M720 796 c0 -47 36 -86 79 -86 36 0 40 17 14 61 -14 24 -66 59 -87
59 -3 0 -6 -16 -6 -34z"/>
</g>
</svg>
